<svg xmlns="http://www.w3.org/2000/svg" viewBox="0 0 61.26 61.26"><defs><style>.cls-1{fill:#ffd367;}</style></defs><title>Asset 5</title><g id="Layer_2" data-name="Layer 2"><circle class="cls-1" cx="30.63" cy="30.63" r="20.64"/><path class="cls-1" d="M30.63,7.49a3.1,3.1,0,0,1-3.11-3.1V3.11a3.11,3.11,0,1,1,6.21,0V4.39A3.1,3.1,0,0,1,30.63,7.49Z"/><path class="cls-1" d="M30.63,61.26a3.11,3.11,0,0,1-3.11-3.11V56.87a3.11,3.11,0,1,1,6.21,0v1.28A3.1,3.1,0,0,1,30.63,61.26Z"/><path class="cls-1" d="M58.15,33.73H56.87a3.11,3.11,0,1,1,0-6.21h1.28a3.11,3.11,0,1,1,0,6.21Z"/><path class="cls-1" d="M4.39,33.73H3.11a3.11,3.11,0,1,1,0-6.21H4.39a3.11,3.11,0,0,1,0,6.21Z"/><path class="cls-1" d="M17.51,11a3.1,3.1,0,0,1-2.69-1.56l-.64-1.11a3.1,3.1,0,1,1,5.38-3.1l.64,1.11A3.11,3.11,0,0,1,17.51,11Z"/><path class="cls-1" d="M44.39,57.57A3.12,3.12,0,0,1,41.7,56l-.64-1.11a3.11,3.11,0,1,1,5.38-3.11l.64,1.11a3.11,3.11,0,0,1-2.69,4.66Z"/><path class="cls-1" d="M53.36,20.61a3.1,3.1,0,0,1-1.56-5.79l1.11-.64A3.11,3.11,0,0,1,56,19.56l-1.11.64A3.13,3.13,0,0,1,53.36,20.61Z"/><path class="cls-1" d="M6.8,47.5a3.11,3.11,0,0,1-1.56-5.8l1.11-.64a3.11,3.11,0,0,1,3.11,5.38l-1.11.64A3.14,3.14,0,0,1,6.8,47.5Z"/><path class="cls-1" d="M7.9,20.61a3.1,3.1,0,0,1-1.55-.41l-1.11-.64a3.11,3.11,0,1,1,3.11-5.38l1.11.64A3.1,3.1,0,0,1,7.9,20.61Z"/><path class="cls-1" d="M54.46,47.5a3.11,3.11,0,0,1-1.55-.42l-1.11-.64a3.11,3.11,0,1,1,3.11-5.38L56,41.7a3.11,3.11,0,0,1-1.56,5.8Z"/><path class="cls-1" d="M43.75,11a3.15,3.15,0,0,1-1.56-.42,3.11,3.11,0,0,1-1.13-4.24l.64-1.11a3.11,3.11,0,1,1,5.38,3.11l-.64,1.11A3.12,3.12,0,0,1,43.75,11Z"/><path class="cls-1" d="M16.86,57.57a3,3,0,0,1-1.55-.42,3.1,3.1,0,0,1-1.13-4.24l.64-1.11a3.11,3.11,0,1,1,5.38,3.11L19.56,56A3.12,3.12,0,0,1,16.86,57.57Z"/></g></svg>