<svg xmlns="http://www.w3.org/2000/svg" viewBox="0 0 77.73 60.58"><defs><style>.cls-1{fill:#ffd367;}.cls-2{fill:#fff;opacity:0.8;}</style></defs><title>Asset 4</title><g id="Layer_2" data-name="Layer 2"><path class="cls-1" d="M41.28,24.66A16.62,16.62,0,1,1,24.66,8,16.62,16.62,0,0,1,41.28,24.66Z"/><path class="cls-1" d="M24.66,6a2.5,2.5,0,0,1-2.5-2.5v-1a2.5,2.5,0,0,1,5,0v1A2.5,2.5,0,0,1,24.66,6Z"/><path class="cls-1" d="M24.66,49.31a2.49,2.49,0,0,1-2.5-2.5v-1a2.5,2.5,0,0,1,5,0v1A2.49,2.49,0,0,1,24.66,49.31Z"/><path class="cls-1" d="M46.82,27.16h-1a2.5,2.5,0,0,1,0-5h1a2.5,2.5,0,0,1,0,5Z"/><path class="cls-1" d="M3.53,27.16h-1a2.5,2.5,0,0,1,0-5h1a2.5,2.5,0,1,1,0,5Z"/><path class="cls-1" d="M14.1,8.86a2.5,2.5,0,0,1-2.17-1.25l-.52-.89a2.5,2.5,0,1,1,4.34-2.5l.51.89a2.5,2.5,0,0,1-.92,3.42A2.53,2.53,0,0,1,14.1,8.86Z"/><path class="cls-1" d="M35.74,46.35a2.5,2.5,0,0,1-2.17-1.25l-.52-.9a2.5,2.5,0,0,1,4.33-2.5l.52.9A2.49,2.49,0,0,1,37,46,2.44,2.44,0,0,1,35.74,46.35Z"/><path class="cls-1" d="M43,16.59a2.47,2.47,0,0,1-2.16-1.25,2.5,2.5,0,0,1,.91-3.41l.9-.52a2.5,2.5,0,0,1,2.5,4.33l-.9.52A2.44,2.44,0,0,1,43,16.59Z"/><path class="cls-1" d="M5.47,38.24a2.5,2.5,0,0,1-1.25-4.67l.89-.52a2.5,2.5,0,0,1,2.5,4.34l-.89.51A2.5,2.5,0,0,1,5.47,38.24Z"/><path class="cls-1" d="M6.36,16.59a2.49,2.49,0,0,1-1.25-.33l-.89-.52a2.5,2.5,0,1,1,2.5-4.33l.89.52a2.5,2.5,0,0,1-1.25,4.66Z"/><path class="cls-1" d="M43.84,38.24a2.44,2.44,0,0,1-1.24-.34l-.9-.51a2.5,2.5,0,0,1,2.5-4.34l.9.52a2.51,2.51,0,0,1-1.26,4.67Z"/><path class="cls-1" d="M35.22,8.86A2.54,2.54,0,0,1,34,8.53a2.51,2.51,0,0,1-.92-3.42l.52-.89a2.5,2.5,0,1,1,4.33,2.5l-.52.89A2.49,2.49,0,0,1,35.22,8.86Z"/><path class="cls-1" d="M13.58,46.35A2.45,2.45,0,0,1,12.33,46a2.49,2.49,0,0,1-.92-3.41l.52-.9a2.5,2.5,0,0,1,4.33,2.5l-.52.9A2.49,2.49,0,0,1,13.58,46.35Z"/><path class="cls-2" d="M77.73,46.29A14.32,14.32,0,0,0,59.31,32.58a22.49,22.49,0,0,0-44.4,5.07A23,23,0,0,0,15,40a10.31,10.31,0,0,0-2.19,20.16,12,12,0,0,0,3.26.41h47c.1,0,1,0,1,0A14.3,14.3,0,0,0,77.73,46.29Z"/></g></svg>