<svg xmlns="http://www.w3.org/2000/svg" xmlns:xlink="http://www.w3.org/1999/xlink" viewBox="0 0 88.34 75.32"><defs><style>.cls-1{fill:#fff;opacity:0.8;isolation:isolate;}.cls-2{fill:#7acbc5;}.cls-3{fill:url(#linear-gradient);}.cls-4{fill:url(#linear-gradient-2);}.cls-5{fill:url(#linear-gradient-3);}.cls-6{fill:url(#linear-gradient-4);}</style><linearGradient id="linear-gradient" x1="48.63" y1="131.91" x2="48.63" y2="162.79" gradientTransform="matrix(1, 0, 0, -1, 0, 197.1)" gradientUnits="userSpaceOnUse"><stop offset="0" stop-color="#5393ed"/><stop offset="1" stop-color="#9fc4f9"/></linearGradient><linearGradient id="linear-gradient-2" x1="50.52" y1="123.76" x2="50.52" y2="127.54" xlink:href="#linear-gradient"/><linearGradient id="linear-gradient-3" x1="31.75" y1="134.99" x2="31.75" y2="138.77" xlink:href="#linear-gradient"/><linearGradient id="linear-gradient-4" x1="35.07" y1="121.79" x2="35.07" y2="132.75" xlink:href="#linear-gradient"/></defs><title>Asset 12</title><g id="Layer_2" data-name="Layer 2"><path class="cls-1" d="M53.27,27.92A10.52,10.52,0,0,0,42.76,17.37a10.66,10.66,0,0,0-3.07.45A16.58,16.58,0,0,0,7,23.29,7.6,7.6,0,0,0,5.43,38.15a8.46,8.46,0,0,0,2.4.31H43.2A10.54,10.54,0,0,0,53.27,27.92Z"/><path class="cls-1" d="M88.34,31.13A14.31,14.31,0,0,0,74,16.82h0a14.7,14.7,0,0,0-4.11.6,22.49,22.49,0,0,0-44.4,5.07,23.16,23.16,0,0,0,.12,2.36A10.31,10.31,0,0,0,23.46,45a11.58,11.58,0,0,0,3.26.42h48A14.29,14.29,0,0,0,88.34,31.13Z"/><path class="cls-2" d="M7.5,62a2.07,2.07,0,0,1-1-.26A2,2,0,0,1,5.77,59h0l5.61-9.9a2,2,0,1,1,3.48,2h0L9.25,61A2,2,0,0,1,7.5,62Z"/><path class="cls-2" d="M12.09,68.57a2,2,0,0,1-1-.27,2,2,0,0,1-.71-2.72L19.71,49.1a2,2,0,1,1,3.48,2L13.84,67.55A2,2,0,0,1,12.09,68.57Z"/><path class="cls-2" d="M24.15,62a2.07,2.07,0,0,1-1-.26A2,2,0,0,1,22.37,59v0L28,49.1a2,2,0,1,1,3.48,2L25.89,61A2,2,0,0,1,24.15,62Z"/><path class="cls-2" d="M62.45,68.57a2,2,0,0,1-1-.27,2,2,0,0,1-.68-2.72L70.08,49.1a2,2,0,0,1,3.47,2h0L64.2,67.55A2,2,0,0,1,62.45,68.57Z"/><path class="cls-2" d="M72.43,65.66a2.07,2.07,0,0,1-1-.26,2,2,0,0,1-.75-2.73h0L78.4,49.1a2,2,0,1,1,3.48,2L74.17,64.65A2,2,0,0,1,72.43,65.66Z"/><path class="cls-3" d="M63.09,48.78H58.85l3-3.45a1,1,0,0,0-1.19-1.61.87.87,0,0,0-.28.32l-4.11,4.73H51l5-5a1,1,0,0,0-1.38-1.38l-5,5V42.11L54.33,38a1,1,0,1,0-1.27-1.47l-3.46,3V35.29a1,1,0,0,0-2,0v4.24l-3.46-3A1,1,0,1,0,42.9,38v0l4.74,4.11v5.29l-5-5a1,1,0,0,0-1.38,1.38l5,5H41L36.86,44a1,1,0,0,0-1.37-.1,1,1,0,0,0-.1,1.38l3,3.45H34.16a1,1,0,0,0-1.2.75,1,1,0,0,0,.76,1.2,1.09,1.09,0,0,0,.44,0h4.23l-3,3.46a1,1,0,1,0,1.47,1.28L41,50.73h5.29l-5,5a1,1,0,0,0-.36,1.36,1,1,0,0,0,1.37.36,1,1,0,0,0,.39-.41l5-5v5.3L43,61.45a1,1,0,0,0-.17,1.41,1,1,0,0,0,1.41.18h0l3.46-3v4.24a1,1,0,0,0,2,0V60l3.46,3a1,1,0,0,0,.63.24,1,1,0,0,0,.74-.34,1,1,0,0,0-.1-1.37L49.6,57.41v-5.3l5,5A1,1,0,0,0,56.29,56a.89.89,0,0,0-.31-.3l-5-5h5.29l4.11,4.74a1.08,1.08,0,0,0,.74.33,1.06,1.06,0,0,0,.64-.23,1,1,0,0,0,.1-1.38l-3-3.46H63.1a1,1,0,0,0,.45-1.95.86.86,0,0,0-.45,0Z"/><circle class="cls-4" cx="50.52" cy="71.46" r="1.89"/><circle class="cls-5" cx="31.75" cy="60.22" r="1.89"/><path class="cls-6" d="M39.71,69H37.08l1.86-1.86A.83.83,0,0,0,37.76,66h0L35.9,67.82V65.2a.84.84,0,0,0-.84-.84.83.83,0,0,0-.83.83h0v2.62L32.37,66a.83.83,0,0,0-1.18,1.18h0L33.05,69H30.42a.84.84,0,0,0-.84.83.86.86,0,0,0,.84.84h2.63l-1.86,1.83a.82.82,0,0,0,0,1.17.86.86,0,0,0,.6.25.87.87,0,0,0,.59-.24l1.86-1.86v2.63a.83.83,0,0,0,.83.83h0a.84.84,0,0,0,.84-.83V71.86l1.86,1.86a.85.85,0,0,0,1.18,0,.84.84,0,0,0,0-1.18h0l-1.86-1.86h2.63a.85.85,0,0,0,.84-.84A.83.83,0,0,0,39.71,69Z"/></g></svg>