<svg xmlns="http://www.w3.org/2000/svg" viewBox="0 0 88.34 68.57"><defs><style>.cls-1{fill:#fff;opacity:0.8;}.cls-2{fill:#7acbc5;}</style></defs><title>Asset 3</title><g id="Layer_2" data-name="Layer 2"><path class="cls-1" d="M53.27,27.92a10.53,10.53,0,0,0-13.58-10.1A16.58,16.58,0,0,0,7,23.29,7.6,7.6,0,0,0,5.43,38.15a8.56,8.56,0,0,0,2.4.31H43.2A10.54,10.54,0,0,0,53.27,27.92Z"/><path class="cls-1" d="M88.34,31.13A14.31,14.31,0,0,0,74,16.82a14.64,14.64,0,0,0-4.11.6,22.49,22.49,0,0,0-44.4,5.07,22.87,22.87,0,0,0,.12,2.36A10.31,10.31,0,0,0,23.46,45a11.62,11.62,0,0,0,3.26.42h47l1,0A14.29,14.29,0,0,0,88.34,31.13Z"/><path class="cls-2" d="M24.12,62a2.05,2.05,0,0,1-1-.26A2,2,0,0,1,22.39,59L28,49.1a2,2,0,1,1,3.48,2L25.87,61A2,2,0,0,1,24.12,62Z"/><path class="cls-2" d="M28.71,68.57a2,2,0,0,1-1-.27A2,2,0,0,1,27,65.58L36.33,49.1a2,2,0,1,1,3.48,2L30.46,67.55A2,2,0,0,1,28.71,68.57Z"/><path class="cls-2" d="M40.77,62a2.05,2.05,0,0,1-1-.26A2,2,0,0,1,39,59l5.62-9.9a2,2,0,1,1,3.48,2L42.51,61A2,2,0,0,1,40.77,62Z"/><path class="cls-2" d="M46.4,66.74a2,2,0,0,1-1-.26,2,2,0,0,1-.75-2.73L53,49.1a2,2,0,1,1,3.48,2L48.14,65.73A2,2,0,0,1,46.4,66.74Z"/><path class="cls-2" d="M53.68,68.57a2,2,0,0,1-1-.27A2,2,0,0,1,52,65.58L61.31,49.1a2,2,0,1,1,3.47,2L55.43,67.55A2,2,0,0,1,53.68,68.57Z"/><path class="cls-2" d="M63.66,65.66a2,2,0,0,1-1-.26,2,2,0,0,1-.75-2.73L69.63,49.1a2,2,0,1,1,3.48,2L65.4,64.65A2,2,0,0,1,63.66,65.66Z"/></g></svg>