<svg xmlns="http://www.w3.org/2000/svg" viewBox="0 0 88.34 65.35"><defs><style>.cls-1{fill:#fff;opacity:0.8;isolation:isolate;}.cls-2{fill:#7acbc5;}</style></defs><title>Asset 13</title><g id="Layer_2" data-name="Layer 2"><path class="cls-1" d="M53.27,27.92a10.53,10.53,0,0,0-13.58-10.1A16.58,16.58,0,0,0,7,23.29,7.6,7.6,0,0,0,5.43,38.15a8.56,8.56,0,0,0,2.4.31H43.2A10.54,10.54,0,0,0,53.27,27.92Z"/><path class="cls-1" d="M88.34,31.13a14.29,14.29,0,0,0-18.42-13.7,22.49,22.49,0,0,0-44.4,5.06,23,23,0,0,0,.12,2.36A10.31,10.31,0,0,0,23.46,45a11.62,11.62,0,0,0,3.26.42h47l1,0A14.29,14.29,0,0,0,88.34,31.13Z"/><path class="cls-2" d="M70.83,51.67a12.25,12.25,0,0,1-24.5,0c0-6.76,12.25-19.92,12.25-19.92S70.83,44.91,70.83,51.67Z"/><path class="cls-2" d="M40.25,59.27a6.08,6.08,0,1,1-12.16,0c0-3.36,6.08-9.89,6.08-9.89S40.25,55.91,40.25,59.27Z"/></g></svg>