<svg xmlns="http://www.w3.org/2000/svg" xmlns:xlink="http://www.w3.org/1999/xlink" viewBox="0 0 88.34 75.28"><defs><style>.cls-1{fill:url(#_Á_ó_ð_ðÆ_55);}.cls-2{fill:url(#_Á_ó_ð_ðÆ_55-2);}.cls-3{fill:url(#_Á_ó_ð_ðÆ_55-3);}.cls-4{fill:url(#_Á_ó_ð_ðÆ_55-4);}.cls-5{fill:url(#_Á_ó_ð_ðÆ_55-5);}.cls-6{fill:url(#_Á_ó_ð_ðÆ_55-6);}.cls-7{fill:#fff;opacity:0.8;}</style><linearGradient id="_Á_ó_ð_ðÆ_55" x1="48.62" y1="65.16" x2="48.62" y2="34.28" gradientUnits="userSpaceOnUse"><stop offset="0" stop-color="#5393ed"/><stop offset="1" stop-color="#9fc4f9"/></linearGradient><linearGradient id="_Á_ó_ð_ðÆ_55-2" x1="57.4" y1="70.5" x2="57.4" y2="66.72" xlink:href="#_Á_ó_ð_ðÆ_55"/><linearGradient id="_Á_ó_ð_ðÆ_55-3" x1="73.21" y1="50.87" x2="73.21" y2="47.09" xlink:href="#_Á_ó_ð_ðÆ_55"/><linearGradient id="_Á_ó_ð_ðÆ_55-4" x1="28.53" y1="60.76" x2="28.53" y2="56.98" xlink:href="#_Á_ó_ð_ðÆ_55"/><linearGradient id="_Á_ó_ð_ðÆ_55-5" x1="68.35" y1="67.7" x2="68.35" y2="55.51" xlink:href="#_Á_ó_ð_ðÆ_55"/><linearGradient id="_Á_ó_ð_ðÆ_55-6" x1="35.06" y1="75.28" x2="35.06" y2="64.32" xlink:href="#_Á_ó_ð_ðÆ_55"/></defs><title>Asset 2</title><g id="Layer_2" data-name="Layer 2"><path class="cls-1" d="M63.09,48.74H58.85l3-3.45A1,1,0,1,0,60.38,44l-4.11,4.73H51l5-5a1,1,0,0,0-1.38-1.38l-5,5V42.07L54.33,38a1,1,0,0,0,.1-1.38,1,1,0,0,0-1.37-.09l-3.46,3V35.25a1,1,0,0,0-2,0v4.24l-3.46-3a1,1,0,0,0-1.37.09A1,1,0,0,0,42.91,38l4.74,4.11v5.29l-5-5a1,1,0,0,0-1.38,1.38l5,5H41L36.86,44a1,1,0,0,0-1.37-.1,1,1,0,0,0-.1,1.38l3,3.45H34.16a1,1,0,1,0,0,1.95h4.23l-3,3.46a1,1,0,0,0,.1,1.38,1,1,0,0,0,1.37-.1L41,50.69h5.29l-5,5A1,1,0,1,0,42.69,57l5-5v5.3l-4.74,4.11A1,1,0,0,0,44.19,63l3.46-3v4.24a1,1,0,0,0,2,0V60l3.46,3a1,1,0,0,0,.63.24.94.94,0,0,0,.74-.34,1,1,0,0,0-.1-1.37L49.6,57.37v-5.3l5,5a1,1,0,1,0,1.38-1.38l-5-5h5.29l4.11,4.74a1,1,0,0,0,.74.33,1,1,0,0,0,.64-.23,1,1,0,0,0,.1-1.38l-3-3.46h4.24a1,1,0,1,0,0-1.95Z"/><circle class="cls-2" cx="57.4" cy="68.61" r="1.89"/><circle class="cls-3" cx="73.21" cy="48.98" r="1.89"/><circle class="cls-4" cx="28.53" cy="58.87" r="1.89"/><path class="cls-5" d="M73.61,60.77H70.37l2.29-2.3a.83.83,0,0,0,0-1.18.85.85,0,0,0-1.18,0l-2.29,2.29V56.34a.84.84,0,0,0-1.68,0v3.24l-2.29-2.29a.85.85,0,0,0-1.18,0,.83.83,0,0,0,0,1.18l2.29,2.3H63.09a.83.83,0,0,0-.83.83.84.84,0,0,0,.83.84h3.24L64,64.73a.83.83,0,0,0,0,1.18.85.85,0,0,0,.59.25.83.83,0,0,0,.59-.25l2.29-2.29v3.24a.84.84,0,1,0,1.68,0V63.62l2.29,2.29a.83.83,0,0,0,.59.25.85.85,0,0,0,.59-.25.83.83,0,0,0,0-1.18l-2.29-2.29h3.24a.84.84,0,0,0,.83-.84A.83.83,0,0,0,73.61,60.77Z"/><path class="cls-6" d="M39.71,69H37.08l1.86-1.86a.83.83,0,0,0-1.18-1.18L35.9,67.78V65.16a.84.84,0,0,0-.84-.84.83.83,0,0,0-.83.84v2.62l-1.86-1.85a.83.83,0,0,0-1.18,1.18L33.05,69H30.42a.84.84,0,0,0-.84.83.85.85,0,0,0,.84.84h2.63L31.19,72.5a.83.83,0,0,0,.59,1.42.84.84,0,0,0,.59-.24l1.86-1.86v2.63a.83.83,0,0,0,.83.83.84.84,0,0,0,.84-.83V71.82l1.86,1.86a.82.82,0,0,0,.59.24.84.84,0,0,0,.59-.24.83.83,0,0,0,0-1.18l-1.86-1.86h2.63a.85.85,0,0,0,.84-.84A.84.84,0,0,0,39.71,69Z"/><path class="cls-7" d="M53.27,27.92a10.53,10.53,0,0,0-13.58-10.1A16.58,16.58,0,0,0,7,23.29,7.6,7.6,0,0,0,5.43,38.15a8.56,8.56,0,0,0,2.4.31H43.2A10.54,10.54,0,0,0,53.27,27.92Z"/><path class="cls-7" d="M88.34,31.13A14.31,14.31,0,0,0,74,16.82a14.64,14.64,0,0,0-4.11.6,22.49,22.49,0,0,0-44.4,5.07,22.87,22.87,0,0,0,.12,2.36A10.31,10.31,0,0,0,23.46,45a11.62,11.62,0,0,0,3.26.42h47l1,0A14.29,14.29,0,0,0,88.34,31.13Z"/></g></svg>