<svg xmlns="http://www.w3.org/2000/svg" viewBox="0 0 11.04 13.64"><defs><style>.cls-1{fill:#9bf2ff;}</style></defs><title>Asset 8</title><g id="Layer_2" data-name="Layer 2"><g id="_1" data-name=" 1"><rect class="cls-1" x="0.36" y="11.86" width="1.12" height="0.9"/><rect class="cls-1" x="9.91" y="11.86" width="1.12" height="0.9"/><path class="cls-1" d="M5.69,13.63c2.83,0,3.14-1.5,3.16-1.65s-.21-2.25-.21-4.12c0-.13,0-.26,0-.38v0c0-.11,0-.23,0-.34V7l0-.31s0-.08,0-.12,0-.18,0-.27V6.24A8.69,8.69,0,0,1,9.3,4.35a.09.09,0,0,1,.12,0,.1.1,0,0,1,.05.12A8.43,8.43,0,0,0,9,6.14a.15.15,0,0,1,.1.12l.81,5.42H11V10c0-5.62-.94-7.32-1.06-7.52L7.3,1.36s0,0,0,0l-.75.91a.2.2,0,0,1-.17.09h0a.25.25,0,0,1-.17-.11l-.48-.59-.36.45a.08.08,0,0,1,0,.06V13.51a.09.09,0,0,1-.09.09.1.1,0,0,1-.1-.09V2.35A.14.14,0,0,1,5,2.41H5a.2.2,0,0,1-.17-.09L4.1,1.41s0,0,0,0L1.41,2.51c-.12.2-1,1.92-1,7.52v1.65H1.49L2.3,6.26a.15.15,0,0,1,.1-.12,8.43,8.43,0,0,0-.49-1.72A.1.1,0,0,1,2,4.3a.09.09,0,0,1,.12,0A8.69,8.69,0,0,1,2.6,6.24v0a.17.17,0,0,0,0,.07,2.51,2.51,0,0,0,0,.27s0,.08,0,.12L2.7,7V7.1c0,.11,0,.23,0,.34v0c0,.12,0,.25,0,.38,0,1.87-.2,4-.21,4.12S2.86,13.63,5.69,13.63ZM6.12,3.21a.09.09,0,1,1,0,.18.09.09,0,0,1,0-.18Zm0,1.52a.09.09,0,1,1,0,.18.09.09,0,0,1,0-.18Zm0,1.52a.09.09,0,1,1,0,.18.09.09,0,0,1,0-.18Zm0,1.52a.09.09,0,1,1,0,.18.09.09,0,0,1,0-.18Zm0,1.74a.09.09,0,1,1,0,.18.09.09,0,1,1,0-.18Zm0,1.73a.09.09,0,0,1,.1.09.09.09,0,0,1-.1.1.09.09,0,0,1-.09-.1A.09.09,0,0,1,6.12,11.24Z"/><path d="M11,11.69v1H9.64v-1a.09.09,0,0,1-.09-.09.1.1,0,0,1,.08-.09l-.81-5.4a.05.05,0,0,0,0,0,2,2,0,0,0,0,.24l.79,5.3v1.07a.1.1,0,0,0,.09.1H11a.1.1,0,0,0,.09-.1V11.6A.09.09,0,0,1,11,11.69Z"/><path d="M8.56,7.78c0,1.93.22,4,.22,4s-.22,1.73-3.26,1.73-3.26-1.73-3.26-1.73.21-2.11.22-4a.09.09,0,0,1-.09-.09c0,1.93-.22,4.09-.22,4.12v0c0,.07.26,1.81,3.35,1.81s3.34-1.74,3.35-1.81v0s-.22-2.19-.22-4.12A.09.09,0,0,1,8.56,7.78Z"/><path d="M9.86,2.26S11,3.78,11,9.86v1.65a.09.09,0,0,1,.09.09V9.86c0-6-1.06-7.59-1.1-7.65l0,0L7.05,1l0,.12Z"/><path d="M2.32,6.6l0-.24Z"/><path d="M8.75,6.36l0,.24Z"/><path d="M8.68,7c0,.1,0,.21,0,.31C8.66,7.24,8.67,7.14,8.68,7Z"/><path d="M2.39,7.69c0-.11,0-.22,0-.33C2.39,7.47,2.39,7.58,2.39,7.69Z"/><path d="M8.66,7.36c0,.11,0,.22,0,.33C8.65,7.58,8.65,7.47,8.66,7.36Z"/><path d="M2.36,7l0-.29Z"/><path d="M.09,11.51V9.86c0-6.08,1.09-7.6,1.09-7.6L3.94,1.08,4,1,1.14,2.18l0,0C1.06,2.27,0,3.82,0,9.86V11.6A.09.09,0,0,1,.09,11.51Z"/><path d="M.09,12.78h1.3a.1.1,0,0,0,.1-.1V11.61l.79-5.3a2,2,0,0,0,0-.24.05.05,0,0,0,0,0l-.81,5.4a.1.1,0,0,1,.08.09.09.09,0,0,1-.1.09h0v1H.09v-1A.09.09,0,0,1,0,11.6v1.08A.1.1,0,0,0,.09,12.78Z"/><path d="M8.71,6.7l0,.29Z"/><path d="M2.38,7.34c0-.1,0-.21,0-.31C2.37,7.14,2.38,7.24,2.38,7.34Z"/><path d="M2.56,7.31v0Z"/><path d="M8.59,6.16l0-.09v0A.2.2,0,0,1,8.59,6.16Z"/><path d="M2.43,6.07a.28.28,0,0,1,0,.09.15.15,0,0,0,0-.07Z"/><path d="M7.13,1.19,9.8,2.34c.12.19,1,1.9,1,7.52v1.65H11V9.86c0-6.08-1.09-7.6-1.09-7.6L7.1,1.08l0,.06Z"/><path d="M8.47,7.69c0,1.86.2,4,.21,4.12s-.33,1.65-3.16,1.65S2.38,12,2.36,11.81s.21-2.26.21-4.12a.09.09,0,0,1-.09.09h0c0,1.93-.22,4-.22,4s.22,1.73,3.26,1.73,3.26-1.73,3.26-1.73-.21-2.11-.22-4h0A.09.09,0,0,1,8.47,7.69Z"/><polygon points="10.86 11.69 10.86 12.59 9.74 12.59 9.74 11.69 9.64 11.69 9.64 12.68 10.95 12.68 10.95 11.69 10.95 11.69 10.86 11.69"/><path d="M9.72,11.51,8.91,6.09A.17.17,0,0,0,8.81,6s0,.06,0,.1a.05.05,0,0,1,0,0l.81,5.4h.09Z"/><path d="M8.55,6.43s0,.08,0,.12S8.55,6.47,8.55,6.43Z"/><path d="M2.5,6.55s0-.08,0-.12S2.5,6.51,2.5,6.55Z"/><path d="M.18,11.51V9.86c0-5.6.94-7.32,1.06-7.52L3.91,1.19V1.14l0-.06L1.18,2.26S.09,3.78.09,9.86v1.65H.18Z"/><path d="M2.54,6.93v0Z"/><polygon points="1.3 12.59 0.18 12.59 0.18 11.69 0.09 11.69 0.09 11.69 0.09 12.68 1.4 12.68 1.4 11.69 1.3 11.69 1.3 12.59"/><path d="M8.51,6.86v0Z"/><path d="M2.13,6.09l-.81,5.42h.09l.81-5.4a.05.05,0,0,1,0,0s0-.07,0-.1A.15.15,0,0,0,2.13,6.09Z"/><path d="M8.48,7.27v0Z"/><path class="cls-1" d="M4.63.88h0a.31.31,0,0,1-.1-.13h0L4.46.86,4.39,1h.46Z"/><path class="cls-1" d="M5,2.21h0v0l.51-.62L5.1,1.22H4.41l-.11.05,0,.06Z"/><polygon class="cls-1" points="4.98 1.13 4.85 1.04 4.39 1.04 4.35 1.15 4.39 1.13 4.98 1.13"/><polygon class="cls-1" points="5.1 1.22 4.98 1.13 4.39 1.13 4.35 1.15 4.3 1.27 4.41 1.22 5.1 1.22"/><path d="M4.21.65l.12-.2a.3.3,0,0,1,0-.16A.4.4,0,0,1,4.5.1a1,1,0,0,0-.3.39L4.13.6v0L4,1l.12,0Z"/><path d="M4.68,2.15a.2.2,0,0,0,.17.09h0A.23.23,0,0,0,5,2.18V2.05H5l0,0a.12.12,0,0,1-.21,0L4,1.18v0l-.1,0s0,0,0,.05Z"/><path d="M5.06,2h0a.08.08,0,0,1,.06,0l.37-.45-.06-.07Z"/><polygon points="4.06 1.03 4.11 0.91 3.99 0.96 3.94 1.08 4.06 1.03"/><path d="M3.91,1.19l.1,0,0-.12-.12.05,0,.06Z"/><path d="M4.22.87h0L4.29.69,4.36.58h0a.27.27,0,0,1,0-.12l-.12.2-.1.26.07,0Z"/><path d="M4.75,2.09a.12.12,0,0,0,.21,0L5,2A.1.1,0,0,1,5.06,2l.4-.49v0l0,0,0,0L4.89,2V2h0l-.72-.87,0-.06L4,1.15v0Z"/><path d="M4.22.87h0l-.07,0L4.06,1,4.18,1Z"/><polygon points="4.13 1.1 4.18 0.98 4.06 1.03 4.01 1.15 4.13 1.1"/><path class="cls-1" d="M6.8.88,6.59,1H7L6.92.86a.43.43,0,0,1,0-.07.27.27,0,0,1-.07.08Z"/><path class="cls-1" d="M6.34,1.22l-.51.38.49.59v0h0l.72-.88,0-.06L7,1.22Z"/><polygon class="cls-1" points="6.46 1.13 6.99 1.13 7.03 1.15 6.99 1.04 6.58 1.04 6.46 1.13"/><polygon class="cls-1" points="6.46 1.13 6.34 1.22 6.97 1.22 7.08 1.27 7.03 1.15 6.99 1.13 6.46 1.13"/><path d="M6.75.52l.08.13.1.26.12,0L6.92.62v0L6.84.49,6.76.36A.29.29,0,0,1,6.75.52Z"/><path d="M6.28,2.09a.11.11,0,0,1-.2,0l-.49-.6h0l-.05.06L6,2.13a.25.25,0,0,0,.17.11h0a.21.21,0,0,0,.17-.09l.75-.91s0,0,0-.05l-.1,0v0Z"/><polygon points="6.98 1.03 7.1 1.08 7.05 0.96 6.93 0.91 6.98 1.03"/><path d="M7.13,1.19V1.14l0-.06L7,1l0,.12Z"/><path d="M5.55,1.49l-.06,0,0,0v0l.06.07.05-.06Z"/><path d="M5.43,1.42l0,0v0Z"/><path d="M6.75.69l.07.18h0l.07,0L6.83.65,6.75.52a.3.3,0,0,1,0,.1A.43.43,0,0,0,6.75.69Z"/><path d="M6.21,2h0V2l-.49-.6-.06.05h0l.49.6a.11.11,0,0,0,.2,0L7,1.18v0l-.12,0,0,.06Z"/><path d="M6.82.87h0l0,.11L7,1,6.93.91l-.07,0Z"/><polygon points="6.91 1.1 7.03 1.15 6.98 1.03 6.86 0.98 6.91 1.1"/><path class="cls-1" d="M6,1l.5-.68H4.91l.5.68Z"/><polygon class="cls-1" points="5.83 1.22 5.55 1.22 5.69 1.41 5.83 1.22"/><polygon class="cls-1" points="5.9 1.13 5.97 1.04 5.41 1.04 5.48 1.13 5.9 1.13"/><polygon class="cls-1" points="5.83 1.22 5.9 1.13 5.48 1.13 5.55 1.22 5.83 1.22"/><path class="cls-1" d="M4.7.53a.17.17,0,0,0,0,.2L5.16,1h0L4.75.45A.14.14,0,0,0,4.7.53Z"/><polygon class="cls-1" points="5.18 1.04 5.16 1.04 5.21 1.07 5.18 1.04"/><path class="cls-1" d="M5.41,1,4.91.36,4.82.4,5.3,1Z"/><polygon class="cls-1" points="5.55 1.22 5.44 1.22 5.46 1.26 5.68 1.42 5.69 1.41 5.55 1.22"/><polygon class="cls-1" points="5.48 1.13 5.41 1.04 5.3 1.04 5.37 1.13 5.48 1.13"/><polygon class="cls-1" points="5.55 1.22 5.48 1.13 5.37 1.13 5.44 1.22 5.55 1.22"/><path class="cls-1" d="M5.3,1,4.82.4a.18.18,0,0,0-.07,0L5.18,1Z"/><polygon class="cls-1" points="5.41 1.22 5.46 1.26 5.44 1.22 5.41 1.22"/><polygon class="cls-1" points="5.29 1.13 5.37 1.13 5.3 1.04 5.18 1.04 5.21 1.07 5.29 1.13"/><polygon class="cls-1" points="5.44 1.22 5.37 1.13 5.29 1.13 5.41 1.22 5.44 1.22"/><path class="cls-1" d="M6.64.44,6.2,1h.08L6.69.73A.2.2,0,0,0,6.75.59,1.18,1.18,0,0,0,6.64.44Z"/><polygon class="cls-1" points="6.15 1.13 6.28 1.04 6.2 1.04 6.13 1.13 6.15 1.13"/><polygon class="cls-1" points="6.15 1.13 6.13 1.13 6.1 1.17 6.15 1.13"/><path class="cls-1" d="M6.08,1,6.57.38l-.1,0L6,1Z"/><polygon class="cls-1" points="5.95 1.22 5.83 1.22 5.69 1.41 5.72 1.45 5.84 1.36 5.95 1.22"/><polygon class="cls-1" points="6.01 1.13 6.08 1.04 5.97 1.04 5.9 1.13 6.01 1.13"/><polygon class="cls-1" points="5.95 1.22 6.01 1.13 5.9 1.13 5.83 1.22 5.95 1.22"/><polygon class="cls-1" points="5.68 1.42 5.72 1.45 5.72 1.45 5.69 1.41 5.68 1.42"/><path class="cls-1" d="M6.2,1l.44-.6a1.18,1.18,0,0,1,.11.15.13.13,0,0,0,0-.06A.26.26,0,0,0,6.57.38L6.08,1Z"/><polygon class="cls-1" points="6.03 1.22 5.95 1.22 5.84 1.36 6.03 1.22"/><polygon class="cls-1" points="6.13 1.13 6.2 1.04 6.08 1.04 6.01 1.13 6.13 1.13"/><polygon class="cls-1" points="6.03 1.22 6.1 1.17 6.13 1.13 6.01 1.13 5.95 1.22 6.03 1.22"/><path d="M4.68.12a.33.33,0,0,1,.15,0H6.38l.09,0c.1,0,.19.12.29.28a.14.14,0,0,0,0-.07A.48.48,0,0,0,6.27,0H4.83A.59.59,0,0,0,4.5.1l.07,0A.15.15,0,0,1,4.68.12Z"/><path d="M4.46.71l.22.16h.16L4.52.63a.31.31,0,0,1-.1-.16l-.06.1a.31.31,0,0,0,.1.13Z"/><polygon points="5.23 1.16 5.09 1.05 4.93 1.05 5.4 1.4 5.4 1.39 5.23 1.16"/><polygon points="4.84 0.87 4.68 0.87 4.81 0.96 4.96 0.96 4.84 0.87"/><polygon points="4.96 0.96 4.81 0.96 4.93 1.05 5.09 1.05 4.96 0.96"/><path d="M4.35.29a.3.3,0,0,0,0,.16A.71.71,0,0,1,4.55.18.31.31,0,0,1,4.68.12a.15.15,0,0,0-.11,0L4.5.1A.4.4,0,0,0,4.35.29Z"/><path d="M4.42.47A.29.29,0,0,1,4.55.18a.71.71,0,0,0-.22.27.27.27,0,0,0,0,.12Z"/><path d="M5.45,1.34h0l-.23-.17.17.23h0l0,0A.08.08,0,0,1,5.45,1.34Z"/><path d="M6.26.87h.15L6.63.71h0A.27.27,0,0,0,6.71.62l0,0,0,0a.23.23,0,0,1-.07.1ZM6.58.63Z"/><polygon points="5.74 1.25 5.64 1.39 5.66 1.43 6.17 1.05 6.01 1.05 5.74 1.25"/><polygon points="6.29 0.96 6.42 0.87 6.26 0.87 6.13 0.96 6.29 0.96"/><polygon points="6.01 1.05 6.17 1.05 6.29 0.96 6.13 0.96 6.01 1.05"/><path d="M6.47.08,6.38.1a.35.35,0,0,1,.29.29l.08.13a.29.29,0,0,0,0-.16C6.66.2,6.57.09,6.47.08Z"/><path d="M5.57,1.48h0Z"/><polygon points="5.48 1.35 5.52 1.4 5.53 1.38 5.48 1.35"/><path d="M5.52,1.39l0,.06,0,0,.06,0h0Z"/><path d="M5.52,1.39l0,0,0,0h0a.08.08,0,0,0,0,.08l0,0Z"/><path d="M6.65.53l0,0,0,0a.3.3,0,0,0,0-.1L6.67.39A.23.23,0,0,1,6.65.53Z"/><path d="M5.74,1.25l-.14.11a.07.07,0,0,1,0,.09v0h0l.06-.05,0,0Z"/><path d="M5.59,1.45a.07.07,0,0,0,0-.09l0,0h0l.06.08Z"/><path d="M4.74.19H6.3l0,0,0,0H4.83a.33.33,0,0,0-.15,0s0,0,0,0Z"/><path d="M4.84.87H5L4.58.56a.18.18,0,0,1-.06-.2A.16.16,0,0,1,4.58.28h0a.93.93,0,0,0-.15.2.31.31,0,0,0,.1.16Z"/><polygon points="5.09 1.05 5.23 1.16 5.15 1.05 5.09 1.05"/><polygon points="5.08 0.96 5.04 0.9 4.99 0.87 4.84 0.87 4.96 0.96 5.08 0.96"/><polygon points="5.08 0.96 4.96 0.96 5.09 1.05 5.15 1.05 5.08 0.96"/><path d="M4.63.2l0,0,.09,0,0,0s0,0,0,0a.31.31,0,0,0-.13.06A.06.06,0,0,1,4.63.2Z"/><polygon points="5.46 1.32 5.51 1.25 5.29 1.09 5.46 1.32"/><path d="M4.42.47a.93.93,0,0,1,.15-.2h0A.18.18,0,0,1,4.65.23l0,0a.06.06,0,0,0-.08,0A.29.29,0,0,0,4.42.47Z"/><polygon points="5.29 1.09 5.24 1.05 5.15 1.05 5.23 1.16 5.46 1.33 5.46 1.32 5.29 1.09"/><polygon points="5.04 0.9 5.08 0.96 5.12 0.96 5.04 0.9"/><polygon points="5.24 1.05 5.12 0.96 5.08 0.96 5.15 1.05 5.24 1.05"/><path d="M6.1.87h.16L6.58.63a.23.23,0,0,0,.07-.1L6.58.42a.2.2,0,0,1-.06.14Z"/><polygon points="5.74 1.25 6.01 1.05 5.89 1.05 5.74 1.25"/><polygon points="6.13 0.96 6.26 0.87 6.11 0.87 5.98 0.96 6.13 0.96"/><polygon points="5.89 1.05 6.01 1.05 6.13 0.96 5.98 0.96 5.93 1 5.89 1.05"/><path d="M6.34.14l0,0,.1,0h0c.07-.09.17,0,.26.19A.35.35,0,0,0,6.38.1Z"/><polygon points="5.55 1.28 5.58 1.32 5.67 1.19 5.55 1.28"/><polygon points="5.58 1.32 5.55 1.28 5.55 1.28 5.51 1.25 5.46 1.32 5.48 1.35 5.53 1.38 5.58 1.32"/><polygon points="5.46 1.33 5.48 1.35 5.46 1.32 5.46 1.33"/><path d="M6.41.2h0a.26.26,0,0,1,.17.15.13.13,0,0,1,0,.06l.07.11a.23.23,0,0,0,0-.14C6.58.24,6.48.11,6.41.2Z"/><path d="M5.86,1.05l-.19.14-.09.13v0l.14-.11.15-.2Z"/><polygon points="5.93 1 5.86 1.05 5.89 1.05 5.93 1"/><path d="M5.58,1.32l0,.06h0l0,0v0Z"/><path d="M5,2.18V13.34a.09.09,0,0,0,.1.09.09.09,0,0,0,.09-.09V2.05a.06.06,0,0,0,0-.06L5,2.13A.12.12,0,0,1,5,2.18Z"/><path d="M5.09,2h0L5,2H5v.13a.12.12,0,0,0,0-.05L5.15,2A.08.08,0,0,0,5.09,2Z"/><path d="M5,2,5.06,2A.1.1,0,0,0,5,2Z"/><circle cx="5.95" cy="3.13" r="0.09"/><path d="M6,4.74a.09.09,0,1,0,0-.18.09.09,0,0,0,0,.18Z"/><circle cx="5.95" cy="6.17" r="0.09"/><circle cx="5.95" cy="7.69" r="0.09"/><circle cx="5.95" cy="9.43" r="0.09"/><path d="M6,11.26a.1.1,0,0,0,.1-.1.09.09,0,0,0-.1-.09.09.09,0,0,0-.09.09A.1.1,0,0,0,6,11.26Z"/><path d="M2.33,6.7a.34.34,0,0,0,0-.1Z"/><path d="M2.38,7.36v0Z"/><path d="M2.36,7V7Z"/><path d="M2.28,6.31v0Z"/><path d="M2.49,6.43c0-.09,0-.18-.05-.27C2.46,6.25,2.47,6.34,2.49,6.43Z"/><path d="M1.79,4.13a.1.1,0,0,0-.05.12A8.43,8.43,0,0,1,2.23,6h0a.16.16,0,0,1,.15.11,8.69,8.69,0,0,0-.52-1.89A.09.09,0,0,0,1.79,4.13Z"/><path d="M2.57,7.69c0-.13,0-.26,0-.38C2.57,7.44,2.57,7.56,2.57,7.69Z"/><path d="M2.53,6.86l0-.31Z"/><path d="M2.56,7.27c0-.11,0-.23,0-.34C2.55,7.05,2.56,7.16,2.56,7.27Z"/><path d="M2.48,7.78V7.69a9.47,9.47,0,0,0-.14-1.58c0-.06-.06-.07-.1,0a2,2,0,0,1,0,.24h0v.05l0,.24a.34.34,0,0,1,0,.1l0,.29V7c0,.1,0,.21,0,.31v0c0,.11,0,.22,0,.33A.09.09,0,0,0,2.48,7.78Z"/><path d="M2.34,6.11a9.47,9.47,0,0,1,.14,1.58v.09h0a.09.09,0,0,0,.09-.09c0-.13,0-.25,0-.38v0c0-.11,0-.22,0-.34V6.86l0-.31s0-.08,0-.12,0-.18-.05-.27a.28.28,0,0,0,0-.09A.16.16,0,0,0,2.28,6h0s0,.06,0,.1S2.34,6.05,2.34,6.11Z"/><path d="M8.66,7.34v0Z"/><path d="M8.68,7V7Z"/><path d="M8.72,6.6a.34.34,0,0,0,0,.1Z"/><path d="M8.75,6.36V6.31h0Z"/><path d="M9.25,4.13a.09.09,0,0,0-.12,0,8.69,8.69,0,0,0-.52,1.89A.15.15,0,0,1,8.76,6h.05a9.82,9.82,0,0,1,.48-1.72A.1.1,0,0,0,9.25,4.13Z"/><path d="M8.59,6.16a2.51,2.51,0,0,1,0,.27A2.51,2.51,0,0,0,8.59,6.16Z"/><path d="M8.5,6.93c0,.11,0,.23,0,.34C8.48,7.16,8.49,7.05,8.5,6.93Z"/><path d="M8.54,6.55c0,.1,0,.21,0,.31C8.51,6.76,8.53,6.65,8.54,6.55Z"/><path d="M8.47,7.31v0Z"/><path d="M8.7,6.11a9.47,9.47,0,0,0-.14,1.58v.09a.09.09,0,0,0,.09-.09c0-.11,0-.22,0-.33v0c0-.1,0-.21,0-.31V7l0-.29a.34.34,0,0,1,0-.1l0-.24V6.31h0a2,2,0,0,1,0-.24S8.7,6.05,8.7,6.11Z"/><path d="M8.76,6h0a.15.15,0,0,0-.15.11l0,.09a2.51,2.51,0,0,1,0,.27s0,.08,0,.12,0,.21,0,.31v.07c0,.12,0,.23,0,.34v.42a.09.09,0,0,0,.09.09h0V7.69A9.47,9.47,0,0,1,8.7,6.11c0-.06.06-.07.1,0s0-.07,0-.1Z"/><path d="M.18,11.69H1.3v-.11l0-.07H.18Z"/><path d="M.09,11.69v-.18a.09.09,0,1,0,0,.18Z"/><path d="M1.39,11.69h0a.09.09,0,0,0,.1-.09.1.1,0,0,0-.08-.09l0,.09Z"/><polygon points="0.18 11.69 0.18 11.51 0.09 11.51 0.09 11.51 0.09 11.69 0.09 11.69 0.18 11.69"/><path d="M1.32,11.51l0,.07v.11h.09V11.6l0-.09H1.32Z"/><path d="M9.74,11.58v.11h1.11v-.18H9.72Z"/><path d="M9.63,11.51a.1.1,0,0,0-.08.09.09.09,0,0,0,.09.09v-.18Z"/><path d="M11,11.51v.18a.09.09,0,0,0,0-.18Z"/><path d="M9.74,11.6v0l0-.07H9.63v.18h.1Z"/><polygon points="10.86 11.51 10.86 11.69 10.95 11.69 10.95 11.69 10.95 11.51 10.95 11.51 10.86 11.51"/></g></g></svg>