<svg xmlns="http://www.w3.org/2000/svg" viewBox="0 0 10.61 13.64"><defs><style>.cls-1{fill:#f9c087;}</style></defs><title>Asset 10</title><g id="Layer_2" data-name="Layer 2"><g id="_1" data-name=" 1"><path class="cls-1" d="M6.13,12.3H4.93A15.85,15.85,0,0,1,3,12.14l-.21,0,.17.86H8l.18-.86-.25,0A12.92,12.92,0,0,1,6.13,12.3Z"/><path d="M7.91,12.9H2.7l-.2-1-.09,0,.2,1A.09.09,0,0,0,2.7,13H7.91A.1.1,0,0,0,8,12.92l.2-1-.1,0Z"/><path d="M7.83,12.81H2.77L2.6,12H2.5l.2,1H7.91l.19-1H8Z"/><path class="cls-1" d="M1.26,3.56a1.16,1.16,0,0,0,0,.18h0a44.78,44.78,0,0,0-.86,8.81l1.18.17.17,0a9.16,9.16,0,0,0,.2-1.14v-.06l.21-6.29a2.69,2.69,0,0,0-.47-1A5.37,5.37,0,0,1,1.26,3.56Z"/><path class="cls-1" d="M8.82,5.26,9,11.55v.06a9.31,9.31,0,0,0,.19,1.14l.17,0,1.19-.17a44.06,44.06,0,0,0-.87-8.81h0a.46.46,0,0,0,0-.19,3.5,3.5,0,0,1-.39.72A2.69,2.69,0,0,0,8.82,5.26Z"/><path class="cls-1" d="M6,2.81a.06.06,0,0,1,0,.06v2.6a.09.09,0,1,1-.18,0V2.87h0L5.5,3h0l-.32-.1h0v2.6a.09.09,0,1,1-.18,0V2.87a.08.08,0,0,1,0-.06L3.28,2.27l-.08,0a4.58,4.58,0,0,0-1.87,1.2.1.1,0,0,1,.11.06,4,4,0,0,0,.37.68,2.64,2.64,0,0,1,.5,1.09,60,60,0,0,1-.22,6.35c0,.19.11.26.35.28l.16,0,0,0H8.3l0,0,.15,0c.25,0,.34-.09.35-.28a63.11,63.11,0,0,1-.21-6.35,2.64,2.64,0,0,1,.5-1.09,4,4,0,0,0,.37-.68.1.1,0,0,1,.11-.06A4.52,4.52,0,0,0,7.78,2.21a.24.24,0,0,1-.11.06Zm2,7.52V11a.09.09,0,0,1-.08.09,17.38,17.38,0,0,1-2.4.17A17.61,17.61,0,0,1,3.07,11,.11.11,0,0,1,3,11v-.64l.65-2.26A.09.09,0,0,1,3.74,8H7.21a.09.09,0,0,1,.09.06L8,10.31Z"/><path class="cls-1" d="M4.93,12.11h1.2q.42,0,.78,0H4.12Q4.51,12.11,4.93,12.11Z"/><path class="cls-1" d="M2.65,11.89l0,0L3,12l.22,0H7.76l.15,0,.44-.06,0,0Z"/><path class="cls-1" d="M4.12,12.08H6.91L7.76,12H3.22Z"/><path d="M8.92,12.63a.05.05,0,0,1,.05,0c-.08-.33-.14-.73-.2-1.17,0,.26-.15.36-.43.39H8.22l0,.09h.15a.64.64,0,0,0,.37-.14,8.32,8.32,0,0,0,.18.94A.11.11,0,0,1,8.92,12.63Z"/><path d="M.09,12.38A45.58,45.58,0,0,1,1,3.57C1,2.9,2.06,2.39,3,2L2.9,1.92c-.93.41-2,.92-2,1.63A45.07,45.07,0,0,0,0,12.47a.08.08,0,0,1,0-.07A.07.07,0,0,1,.09,12.38Z"/><path d="M7.72,1.89h0a.43.43,0,0,0,0,.07c.87.4,1.93.92,2,1.6a44.06,44.06,0,0,1,.87,8.81s.05,0,.06,0a.08.08,0,0,1,0,.07,45.07,45.07,0,0,0-.87-8.92C9.69,2.83,8.63,2.31,7.72,1.89Z"/><path d="M2.39,11.83H2.26c-.28,0-.41-.13-.43-.39a9.73,9.73,0,0,1-.2,1.17.06.06,0,0,1,.06,0,.11.11,0,0,1,0,.08,8.32,8.32,0,0,0,.18-.94.7.7,0,0,0,.37.14h.16l0-.09Z"/><path d="M4.76,12A14.82,14.82,0,0,1,3,11.91H2.59v0l.21,0a16,16,0,0,0,1.95.15H6A13.05,13.05,0,0,0,7.76,12L8,12v0H7.59A12.66,12.66,0,0,1,6,12Z"/><path d="M8.22,11.83h-.1l0,.1.1,0,0-.09Z"/><path d="M2.49,11.84h-.1l0,.09.09,0Z"/><path d="M2.59,11.91H3l-.55-.07v.1h.1Z"/><path d="M8,11.91v0h.1l0-.1-.53.07Z"/><path d="M2,5.18A.09.09,0,0,1,2,5.09H2l-.21,6.3v.06a9.16,9.16,0,0,1-.2,1.14l-.17,0,.26,0h0a9.73,9.73,0,0,0,.2-1.17v0Z"/><path d="M2,5.18l-.21,6.2v0a60.62,60.62,0,0,0,.22-6.25Z"/><path d="M2.43,11.74l-.16,0c-.24,0-.33-.09-.35-.28a60,60,0,0,0,.22-6.35.09.09,0,0,1-.09.09h0a60.62,60.62,0,0,1-.22,6.25c0,.26.15.36.43.39h.13a.08.08,0,0,1,0-.07Z"/><path d="M8.56,5.18h0a60.92,60.92,0,0,0,.21,6.25s0,0,0,0Z"/><path d="M9.23,12.56l-.17,0a9.31,9.31,0,0,1-.19-1.14v-.06l-.22-6.3h0a.09.09,0,0,1-.09.09l.22,6.2s0,0,0,0c.06.44.12.84.2,1.17H9Z"/><path d="M.18,12.39a45.58,45.58,0,0,1,.87-8.81h0a1.16,1.16,0,0,1,0-.18h0a.09.09,0,0,1,.06-.12h0A4.58,4.58,0,0,1,3,2.06.27.27,0,0,1,3,2c-.89.4-2,.91-2,1.58a45.58,45.58,0,0,0-.87,8.81s0,0,0,0Z"/><path d="M7.61,2A4.52,4.52,0,0,1,9.45,3.26h0a.09.09,0,0,1,0,.12h0a.46.46,0,0,1,0,.19h0a44.06,44.06,0,0,1,.87,8.81h.08s0,0,0,0a44.06,44.06,0,0,0-.87-8.81c0-.68-1.09-1.2-2-1.6Z"/><path d="M8.56,5.18a.09.09,0,0,1-.09-.09,63.11,63.11,0,0,0,.21,6.35c0,.19-.1.26-.35.28l-.15,0,0,0a.14.14,0,0,1,0,.07h.12c.28,0,.42-.13.43-.39a60.92,60.92,0,0,1-.21-6.25Z"/><path d="M4.76,11.94q-.42,0-.81,0H3A14.82,14.82,0,0,0,4.76,12H6a12.66,12.66,0,0,0,1.63-.12H6.74c-.25,0-.5,0-.78,0Z"/><path d="M3.05,11.82l-.22,0-.4,0,0,0a.08.08,0,0,0,0,.07h.1v0Z"/><path d="M8.18,11.74l-.44.06-.15,0h.53v0h.1a.14.14,0,0,0,0-.07Z"/><path d="M7.59,11.82l-.85.09h.85l.53-.07v0Z"/><path d="M4,11.91l-.9-.09H2.48v0l.55.07Z"/><path class="cls-1" d="M7.06,1.14a.44.44,0,0,1,0,.34A.31.31,0,0,1,7,1.59,7.61,7.61,0,0,0,7.73,2a.42.42,0,0,0,0-.33l-.16-.48a.79.79,0,0,0-.67-.6h0l-.07,0A.82.82,0,0,1,7,.82Z"/><path class="cls-1" d="M4.05,1.62a.24.24,0,0,1-.14-.14.44.44,0,0,1,0-.34L4,.82A1.06,1.06,0,0,1,4.14.54l-.07,0H4a.79.79,0,0,0-.66.6l-.17.48a.42.42,0,0,0,0,.33s0,0,0,0h0A6.11,6.11,0,0,0,4.05,1.62Z"/><path class="cls-1" d="M7.57,2.11a4.59,4.59,0,0,1-.81-.44L5.5,2.09H5.44L4.27,1.7a5.7,5.7,0,0,1-.84.43l2,.64Z"/><path class="cls-1" d="M4.06,1.63h0a6.11,6.11,0,0,1-.8.38h0a.22.22,0,0,0,.06.07,7.76,7.76,0,0,0,.86-.42Z"/><path class="cls-1" d="M6.88,1.63h0a6.13,6.13,0,0,0,.8.42L7.73,2h0A7.61,7.61,0,0,1,7,1.59Z"/><path class="cls-1" d="M6.76,1.67a4.59,4.59,0,0,0,.81.44l0,0a.06.06,0,0,0,.06,0,6.13,6.13,0,0,1-.8-.42Z"/><path class="cls-1" d="M4.16,1.66a7.76,7.76,0,0,1-.86.42h0l.1,0a5.7,5.7,0,0,0,.84-.43Z"/><path d="M6.5.24l.24.07A.85.85,0,0,1,7.49,1l.17.48a.51.51,0,0,1,0,.4l.08,0a.66.66,0,0,0,0-.48L7.58.94A1,1,0,0,0,6.76.22,4.41,4.41,0,0,0,5.3,0a2.78,2.78,0,0,1,.94.15A.43.43,0,0,1,6.5.24Z"/><path d="M2.94,1.45,3.11,1A.85.85,0,0,1,3.86.31L4.11.24A.43.43,0,0,1,4.37.15,2.76,2.76,0,0,1,5.3,0,4.38,4.38,0,0,0,3.85.22,1,1,0,0,0,3,.94l-.16.47a.64.64,0,0,0,0,.49l0,0,.08,0A.53.53,0,0,1,2.94,1.45Z"/><path d="M7.47,2h0L5.3,2.7,3.13,2h0L3,2.06l.08,0,1.69.54a.09.09,0,0,1,.07,0A.09.09,0,0,1,5,2.69l.31.1h.06l.32-.1a.08.08,0,0,1,.09-.08.07.07,0,0,1,.06,0L7.5,2.1A.39.39,0,0,0,7.61,2L7.52,2h0a.05.05,0,0,1,0,0Z"/><path d="M7.59,1.93l.09,0a.43.43,0,0,1,0-.07h0l-.08,0A.35.35,0,0,1,7.59,1.93Z"/><path d="M3,2,3,1.88l-.08,0L3,2Z"/><path d="M3,2.06,3.13,2A.24.24,0,0,1,3,2L3,2A.27.27,0,0,0,3,2.06Z"/><path d="M7.51,2h0l.09,0L7.68,2l-.09,0A.24.24,0,0,1,7.51,2Z"/><path d="M3.05,1.81a.42.42,0,0,1,0-.33L3.2,1A.79.79,0,0,1,3.86.4h0L4,.37A.57.57,0,0,1,4.11.24L3.86.31A.85.85,0,0,0,3.11,1l-.17.48a.53.53,0,0,0,0,.43l.09,0S3.05,1.82,3.05,1.81Z"/><path d="M6.64.37l.07,0h0a.79.79,0,0,1,.67.6l.16.48a.42.42,0,0,1,0,.33l0,0,0,0a.51.51,0,0,0,0-.4L7.49,1A.85.85,0,0,0,6.74.31L6.5.24A.57.57,0,0,1,6.64.37Z"/><path d="M5.3,2.6,3.26,2l-.1,0h0L5.3,2.7,7.47,2h0a.05.05,0,0,0,0,0L7.4,1.94Z"/><path d="M3.07,1.84,3,1.88,3,2l.09,0A.22.22,0,0,1,3.07,1.84Z"/><path d="M7.56,1.81h0l-.06.08.09,0a.35.35,0,0,0,0-.08l0,0Z"/><path d="M7.44,1.92l0,0L7.51,2a.24.24,0,0,0,.08-.06l-.09,0Z"/><path d="M3.13,2h0l.1,0-.1,0h0L3,2A.24.24,0,0,0,3.13,2Z"/><polygon class="cls-1" points="0.35 13.63 1.49 13.63 1.67 12.93 0.36 12.74 0.35 12.74 0.35 13.63"/><polygon class="cls-1" points="1.67 12.93 0.36 12.74 1.67 12.93 1.67 12.93"/><path d="M1.6,12.78h0l-.2.78H.09v-1h0A.09.09,0,0,1,0,12.47v1.08a.09.09,0,0,0,.09.09h1.3a.08.08,0,0,0,.09-.07l.22-.86h0A.1.1,0,0,1,1.6,12.78Z"/><polygon points="0.18 12.39 1.37 12.56 0.18 12.39 0.18 12.39"/><path d="M1.69,12.63a.06.06,0,0,0-.06,0,.19.19,0,0,1,0,.08l0,.09h0a.1.1,0,0,0,.1-.07h0A.11.11,0,0,0,1.69,12.63Z"/><path d="M.08,12.56h0v-.18a.07.07,0,0,0-.06,0,.08.08,0,0,0,0,.07A.09.09,0,0,0,.08,12.56Z"/><path d="M1.37,12.56.18,12.39H.11s0,0,0,0v.09l1.52.21a.19.19,0,0,0,0-.08h0Z"/><polygon points="1.32 13.46 0.18 13.46 0.18 12.57 0.19 12.57 0.09 12.56 0.09 13.55 1.4 13.55 1.59 12.77 1.5 12.76 1.32 13.46"/><polygon points="0.09 12.56 0.19 12.57 1.5 12.76 1.5 12.76 1.59 12.77 1.61 12.68 0.09 12.47 0.09 12.56"/><path d="M1.26,3.32a.08.08,0,0,0-.1-.06.54.54,0,0,0-.07.13,5.37,5.37,0,0,0,.39.71,2.66,2.66,0,0,1,.47,1H2A.16.16,0,0,1,2,5L1.38,3.76a2.51,2.51,0,0,1-.2-.41l.2.41A5,5,0,0,1,2,5h0a.1.1,0,0,1,.09.1A2.77,2.77,0,0,0,1.64,4,5.06,5.06,0,0,1,1.26,3.32Z"/><path d="M2,5A.16.16,0,0,0,2,5.08H2A.09.09,0,0,0,2,5.18V5.09Z"/><path d="M2,5.18h0v0Z"/><path d="M2.05,5H2s0,.06,0,.09v.09h0a.09.09,0,0,0,.09-.09A.1.1,0,0,0,2.05,5Z"/><path d="M1.15,3.26a.09.09,0,0,0-.06.12h0a.54.54,0,0,1,.07-.13Z"/><path d="M1.38,3.76l-.2-.41A2.51,2.51,0,0,0,1.38,3.76Z"/><path d="M1.38,3.76,2,5H2A5,5,0,0,0,1.38,3.76Z"/><path d="M2,5H2l0,.09S2,5,2,5Z"/><polygon class="cls-1" points="10.59 13.63 10.59 12.74 9.28 12.93 9.45 13.63 10.59 13.63"/><polygon class="cls-1" points="10.59 12.74 9.28 12.93 9.28 12.93 10.59 12.74 10.59 12.74"/><path d="M10.53,12.56h0v1H9.21L9,12.77H9a.1.1,0,0,1-.09-.07h0l.22.86a.09.09,0,0,0,.09.07h1.3a.1.1,0,0,0,.1-.09V12.47A.11.11,0,0,1,10.53,12.56Z"/><polygon points="10.42 12.39 10.42 12.39 9.23 12.56 10.42 12.39"/><path d="M10.51,12.38v.18h0a.11.11,0,0,0,.08-.09.08.08,0,0,0,0-.07S10.53,12.38,10.51,12.38Z"/><path d="M9,12.78H9l0-.09a.31.31,0,0,0,0-.08.05.05,0,0,0-.05,0,.11.11,0,0,0,0,.08h0A.1.1,0,0,0,9,12.78Z"/><path d="M10.42,12.39h0l-1.19.17-.25,0H9a.31.31,0,0,1,0,.08l1.52-.21v-.09s0,0,0,0Z"/><polygon points="10.42 13.46 9.28 13.46 9.11 12.76 9.02 12.77 9.21 13.55 10.51 13.55 10.51 12.56 10.42 12.57 10.42 13.46"/><polygon points="9.02 12.77 9.11 12.76 9.11 12.76 10.42 12.57 10.42 12.57 10.51 12.56 10.51 12.47 8.99 12.68 9.02 12.77"/><path d="M9.34,3.32A4,4,0,0,1,9,4a2.64,2.64,0,0,0-.5,1.09A.1.1,0,0,1,8.56,5h0a5.28,5.28,0,0,1,.65-1.23l.21-.41a2.67,2.67,0,0,1-.21.41L8.6,5a.1.1,0,0,1,.05.08h0a2.66,2.66,0,0,1,.47-1,4.06,4.06,0,0,0,.39-.72.34.34,0,0,0-.06-.12A.1.1,0,0,0,9.34,3.32Z"/><path d="M8.6,5l0,.09a.38.38,0,0,1,0-.1h0a.1.1,0,0,0-.09.1.09.09,0,0,0,.09.09h0v0a.09.09,0,0,0,.09-.09h0A.1.1,0,0,0,8.6,5Z"/><path d="M9.51,3.38a.09.09,0,0,0,0-.12h0a.34.34,0,0,1,.06.12Z"/><path d="M8.56,5.18h0v0Z"/><path d="M9.22,3.76A5.28,5.28,0,0,0,8.57,5h0Z"/><path d="M9.22,3.76a2.67,2.67,0,0,0,.21-.41Z"/><path d="M8.6,5h0a.38.38,0,0,0,0,.1Z"/><path d="M4.78,5.3A.09.09,0,0,0,5,5.3V2.7H5l-.16,0a.08.08,0,0,0,0,.06Zm.09-2.6v0Z"/><path d="M4.87,2.61a.09.09,0,0,0-.07,0l.16,0A.09.09,0,0,0,4.87,2.61Z"/><path d="M5.64,5.3a.1.1,0,0,0,.1.09.09.09,0,0,0,.09-.09V2.7a.06.06,0,0,0,0-.06l-.15,0h0Zm.1-2.6v0Z"/><path d="M5.74,2.61a.08.08,0,0,0-.09.08l.15,0A.07.07,0,0,0,5.74,2.61Z"/><path class="cls-1" d="M3.81,8.17l-.63,2.18v.52a16.8,16.8,0,0,0,4.59,0v-.52L7.14,8.17Z"/><path d="M7,7.82H3.57a.08.08,0,0,0-.09.06l-.65,2.26s0,0,0,0v.62a.11.11,0,0,0,.08.09A17.61,17.61,0,0,0,5.3,11a17.49,17.49,0,0,0,2.4-.17.09.09,0,0,0,.08-.09v-.64L7.13,7.88A.09.09,0,0,0,7,7.82Zm.65,3a17.39,17.39,0,0,1-4.78,0v-.62l.66-2.25H7l.65,2.25Z"/><path d="M3.57,7.91l-.66,2.25v.62a17.39,17.39,0,0,0,4.78,0v-.62L7,7.91Zm4,2.79A16.8,16.8,0,0,1,3,10.7v-.53L3.64,8H7l.63,2.17Z"/><path class="cls-1" d="M4.56.5c-.16,0-.32.15-.39.38l-.11.31a.3.3,0,0,0,0,.21s0,.05,0,.06l.11,0,0,0H6.82a.1.1,0,0,0,0-.06.3.3,0,0,0,0-.21L6.78.88C6.7.65,6.55.5,6.39.5h0A3,3,0,0,0,5.47.36a2.84,2.84,0,0,0-.88.13Z"/><polygon class="cls-1" points="5.47 1.9 6.21 1.66 4.73 1.66 5.47 1.9"/><path class="cls-1" d="M6.49,1.57l.28-.1H4.28l0,0,.23.08Z"/><polygon class="cls-1" points="6.21 1.66 6.49 1.56 4.46 1.56 4.73 1.66 6.21 1.66"/><path d="M3.71,1a.45.45,0,0,0,0,.34.24.24,0,0,0,.14.14L4,1.39l-.05,0A.31.31,0,0,1,3.8,1L3.91.68A.74.74,0,0,1,4.15.32L4,.37a1.06,1.06,0,0,0-.15.28Z"/><path d="M6.7.68,6.8,1a.33.33,0,0,1-.09.37l.08.06a.31.31,0,0,0,.08-.11.44.44,0,0,0,0-.34L6.78.65A.82.82,0,0,0,6.64.37l-.18,0A.81.81,0,0,1,6.7.68Z"/><path d="M6.34,1.49l-1,.34-1-.34H4.15a.1.1,0,0,0-.05,0l1.17.39h.06L6.59,1.5H6.34Z"/><path d="M6.61,1.4l.09.06h0l.08,0-.08-.06h0Zm.07,0Z"/><path d="M4,1.39l-.09.06h0l.1,0,.09-.07Z"/><path d="M4.27,1.49l-.19-.07L4,1.49l.11,0a.1.1,0,0,1,.05,0Z"/><path d="M6.61,1.4l-.27.09h.25l.11,0Z"/><path d="M4.11.24A4.42,4.42,0,0,1,5.3.09,4.57,4.57,0,0,1,6.5.24.43.43,0,0,0,6.24.15,2.78,2.78,0,0,0,5.3,0a2.76,2.76,0,0,0-.93.15A.43.43,0,0,0,4.11.24Z"/><path d="M6.46.32l.18,0A.57.57,0,0,0,6.5.24,4.57,4.57,0,0,0,5.3.09a2.6,2.6,0,0,1,.92.15A.46.46,0,0,1,6.46.32Z"/><path d="M4,.37l.18,0A.41.41,0,0,1,4.39.24,2.58,2.58,0,0,1,5.3.09,4.42,4.42,0,0,0,4.11.24.57.57,0,0,0,4,.37Z"/><path d="M6.22.33c.16,0,.31.15.39.38L6.72,1a.3.3,0,0,1,0,.21s0,.05,0,.05l-.05,0h0a.09.09,0,0,1,.07,0l0,0A.33.33,0,0,0,6.8,1L6.7.68A.81.81,0,0,0,6.46.32,4.9,4.9,0,0,0,5.3.18a2.76,2.76,0,0,1,.89.14Z"/><path d="M3.91.68,3.8,1a.31.31,0,0,0,.12.38l.05,0L4,1.33h0L4,1.28s0,0-.05-.05a.3.3,0,0,1,0-.21L4,.71c.07-.23.23-.38.39-.38h0A2.66,2.66,0,0,1,5.3.18,4.81,4.81,0,0,0,4.15.32.74.74,0,0,0,3.91.68Z"/><polygon points="5.3 1.73 4.56 1.49 4.27 1.49 5.3 1.83 6.33 1.49 6.04 1.49 5.3 1.73"/><path d="M4.11,1.39h.17l-.22-.07H4L4,1.39l.11,0Z"/><path d="M6.61,1.39h0l.07,0h0l0,0a.09.09,0,0,0-.07,0h0l-.28.09Z"/><path d="M4.28,1.39H4.11l0,0,.19.07h.29Z"/><polygon points="6.32 1.4 6.04 1.49 6.33 1.49 6.61 1.4 6.61 1.4 6.32 1.4"/><path d="M4.15.32A4.81,4.81,0,0,1,5.3.18,4.9,4.9,0,0,1,6.46.32.46.46,0,0,0,6.22.24,2.6,2.6,0,0,0,5.3.09a2.58,2.58,0,0,0-.91.15A.41.41,0,0,0,4.15.32Z"/></g></g></svg>