<svg xmlns="http://www.w3.org/2000/svg" viewBox="0 0 9.75 13.64"><defs><style>.cls-1{fill:#875430;}.cls-2{fill:#f9c087;}</style></defs><title>Asset 9</title><g id="Layer_2" data-name="Layer 2"><g id="_1" data-name=" 1"><path class="cls-1" d="M4.33,6.87,2.59,3.53a.06.06,0,0,1,0-.07l.25-.58L2.36,2.7a.1.1,0,0,1-.06-.11L2.65,1.1,1,1.56s-.3.09-.64.87v9.48l1,.17.27-7.87a5.3,5.3,0,0,0-.23-1.29.09.09,0,0,1,.06-.12.09.09,0,0,1,.11.06A5.35,5.35,0,0,1,1.81,4.2h0L1.63,9.82a.1.1,0,0,1,.09-.06l1.11.08a.09.09,0,0,1,.09.09.11.11,0,0,1-.09.09h0L1.71,9.94a.08.08,0,0,1-.08-.06l-.1,3.06a6.66,6.66,0,0,0,2.89.69L5,12V7.3A.8.8,0,0,1,4.33,6.87Z"/><path class="cls-1" d="M7.73,2.7l-.46.18.24.58a.06.06,0,0,1,0,.07L5.76,6.87a.8.8,0,0,1-.62.43V12l.53,1.59a6.18,6.18,0,0,0,2.89-.69l-.1-3.06a.08.08,0,0,1-.08.06L7.27,10h0a.11.11,0,0,1-.09-.09.09.09,0,0,1,.09-.09l1.11-.08a.09.09,0,0,1,.09.06L8.28,4.21h0a5.84,5.84,0,0,1,.25-1.34.1.1,0,0,1,.11-.06.09.09,0,0,1,.06.12,5.3,5.3,0,0,0-.23,1.29l.27,7.87,1-.17V2.43c-.35-.78-.64-.87-.65-.87L7.44,1.1l.35,1.49A.1.1,0,0,1,7.73,2.7ZM5.94,11.84A.09.09,0,1,1,6,11.75.09.09,0,0,1,5.94,11.84Zm0-1.3A.09.09,0,1,1,6,10.45.09.09,0,0,1,5.94,10.54Zm0-1.3a.09.09,0,0,1-.09-.1.09.09,0,0,1,.18,0A.09.09,0,0,1,5.94,9.24Zm0-1.31A.09.09,0,1,1,6,7.84.09.09,0,0,1,5.94,7.93Z"/><path d="M.08,11.91l1.12.19,0,.72s0,.07,0,.08a6.49,6.49,0,0,0,3.1.74h0a.1.1,0,0,0,.09-.06l.46-1.41.47,1.41a.09.09,0,0,0,.09.06,6,6,0,0,0,3.1-.74s0-.05,0-.08l0-.72,1.12-.19a.1.1,0,0,0,.07-.09V2.24a.06.06,0,0,0,0,0c-.39-.89-.74-1-.77-1L6.25.44h0l.93.29A.09.09,0,0,1,7.24.8v0l1.69.48s.33.06.72.94v9.58L8.48,12,8.21,4.13h0l.27,8.7a6.17,6.17,0,0,1-3.05.72L4.9,12H4.85l-.53,1.58a6.51,6.51,0,0,1-3.05-.72l.27-8.7h0L1.27,12,.1,11.82V2.24c.39-.88.72-.94.72-.94L2.5.82v0A.09.09,0,0,1,2.57.73L3.5.44h0L.79,1.21s-.39.1-.78,1a.06.06,0,0,0,0,0v9.58A.1.1,0,0,0,.08,11.91Zm9.57-.09Z"/><path d="M4.78,11.88h0l-.53,1.59a6.66,6.66,0,0,1-2.89-.69l.1-3.06a0,0,0,0,1,0,0v0L1.64,4h0a.09.09,0,0,1-.09.09h0l-.27,8.7a6.51,6.51,0,0,0,3.05.72L4.85,12A.1.1,0,0,1,4.78,11.88Z"/><path d="M8.2,4.13A.09.09,0,0,1,8.11,4h0l.18,5.61a0,0,0,0,0,0,0s0,0,0,0l.1,3.06a6.18,6.18,0,0,1-2.89.69L5,11.87H5A.1.1,0,0,1,4.9,12l.53,1.58a6.17,6.17,0,0,0,3.05-.72l-.27-8.7Z"/><path d="M1.45,4h0l-.27,7.87-1-.17V2.26c.35-.78.64-.87.65-.87L2.48.92l0-.1L.81,1.3s-.33.06-.72.94v9.58L1.27,12l.27-7.88A.11.11,0,0,1,1.45,4Z"/><path d="M8.92,1.39s.3.09.64.87v9.48l-1,.17L8.3,4h0a.11.11,0,0,1-.09.09L8.48,12l1.17-.19V2.24c-.39-.88-.72-.94-.72-.94L7.25.82l0,.1Z"/><path class="cls-2" d="M5.05.36A2.06,2.06,0,0,0,4,.61H6.07A2,2,0,0,0,5.05.36Z"/><polygon class="cls-2" points="6.26 0.79 3.83 0.79 5.04 6.55 6.26 0.79"/><path class="cls-2" d="M6.07.61H4L3.87.7H6.22A.66.66,0,0,0,6.07.61Z"/><path class="cls-2" d="M3.83.79H6.26V.73l0,0H3.87l-.05,0Z"/><path d="M3.52.44h.15A2.19,2.19,0,0,1,4.87.09,2.2,2.2,0,0,1,6.08.43h.17A2.16,2.16,0,0,0,4.87,0,2.15,2.15,0,0,0,3.5.44Z"/><path d="M6.15.45a.08.08,0,0,1,.08,0H6.08l0,0Z"/><path d="M3.59.45l0,0,0,0H3.52A.06.06,0,0,1,3.59.45Z"/><polygon points="3.52 0.44 3.5 0.44 3.5 0.44 3.52 0.44"/><polygon points="6.25 0.44 6.25 0.44 6.23 0.44 6.25 0.44"/><path d="M4.87.18a2.17,2.17,0,0,1,1,.25h.18A2.2,2.2,0,0,0,4.87.09a2.19,2.19,0,0,0-1.2.34h.18A2.16,2.16,0,0,1,4.87.18Z"/><path d="M3.64.51v0H3.7l.15-.1H3.67l0,0A.05.05,0,0,1,3.64.51Z"/><path d="M6.05.53h.06v0a.05.05,0,0,1,0,0l0,0H5.9Z"/><path d="M6.11.53H6.05l0,0Z"/><path d="M3.7.53H3.64v0Z"/><path class="cls-2" d="M2.84,1.06,2.5,2.56,3,2.74a.12.12,0,0,1,0,0,.11.11,0,0,1,0,.08l-.26.62L4.49,6.78a.62.62,0,0,0,.42.32L3.65.82Z"/><path class="cls-2" d="M5,7,3.65.82h0L4.91,7.1H5Z"/><path d="M2.19,2.53l.46.18-.24.57a.08.08,0,0,0,0,.08L4.16,6.7a.8.8,0,0,0,.62.43h0l0-.09a.72.72,0,0,1-.52-.38L2.5,3.32l.28-.66-.56-.22L2.58.9l-.1,0-.35,1.5A.1.1,0,0,0,2.19,2.53Z"/><path d="M3.46.54a.08.08,0,0,1,0-.08l0,0L2.57.73A.09.09,0,0,0,2.51.8v0l1-.27Z"/><polygon points="2.58 0.9 2.6 0.82 3.46 0.55 3.46 0.55 2.5 0.82 2.48 0.93 2.58 0.9"/><polygon points="4.88 6.38 3.66 0.62 3.66 0.62 4.85 6.51 4.88 6.38"/><polygon points="3.65 0.56 3.65 0.56 3.66 0.62 3.66 0.62 3.65 0.56"/><polygon points="3.52 0.44 3.52 0.44 3.52 0.44 3.52 0.44"/><path d="M4.79,7.08V7h0l0,.09h0S4.79,7.09,4.79,7.08Z"/><path d="M3.46.54h0l.09,0A.23.23,0,0,1,3.62.47l0,0a.06.06,0,0,0-.07,0h0l0,0A.08.08,0,0,0,3.46.54Z"/><polygon points="3.46 0.55 3.46 0.55 3.55 0.53 3.46 0.55"/><polygon points="4.85 6.51 3.66 0.62 3.57 0.62 4.83 6.6 4.85 6.51"/><path d="M3.64.51a.05.05,0,0,0,0,0,.23.23,0,0,0-.07.06h.09Z"/><polygon points="3.66 0.62 3.65 0.56 3.65 0.56 3.64 0.53 3.55 0.53 3.57 0.62 3.66 0.62"/><path d="M2.78,2.66l-.28.66L4.24,6.65A.72.72,0,0,0,4.76,7l0-.1a.62.62,0,0,1-.42-.32L2.6,3.32l.26-.62a.11.11,0,0,0,0-.08.12.12,0,0,0,0-.05l-.48-.18L2.67.89,3.48.64h0L2.58.9,2.22,2.44Z"/><polygon points="3.46 0.55 2.6 0.82 2.58 0.9 3.48 0.64 3.46 0.55"/><path d="M4.78,6.94h0l0,.1h0Z"/><path d="M4.78,6.83h0v0l0-.06L3.57.62h0l-.08,0h0Z"/><polygon points="3.56 0.62 3.57 0.62 3.55 0.53 3.46 0.55 3.48 0.64 3.56 0.62"/><polygon points="4.83 6.6 3.57 0.62 3.57 0.62 4.8 6.74 4.83 6.6"/><polygon points="3.57 0.62 3.55 0.53 3.57 0.62 3.57 0.62"/><path class="cls-2" d="M5.6,6.78,7.32,3.49l-.26-.62a.11.11,0,0,1,0-.08.12.12,0,0,1,.05,0l.48-.18-.34-1.5L6.44.82,5.18,7.1A.62.62,0,0,0,5.6,6.78Z"/><path class="cls-2" d="M5.14,7v.11h0L6.44.82h0Z"/><path d="M7,2.66l.28.66L5.51,6.65A.72.72,0,0,1,5,7l0,.09H5a.8.8,0,0,0,.62-.43L7.33,3.36a.08.08,0,0,0,0-.08l-.25-.57.47-.18a.1.1,0,0,0,.06-.11L7.27.92l-.1,0,.36,1.54Z"/><path d="M6.29.54h0l1,.27v0A.09.09,0,0,0,7.18.73L6.25.44v0A.07.07,0,0,1,6.29.54Z"/><polygon points="6.29 0.55 7.15 0.82 7.17 0.9 7.27 0.93 7.25 0.82 6.29 0.55 6.29 0.55"/><polygon points="4.88 6.38 4.9 6.51 6.09 0.62 6.09 0.62 4.88 6.38"/><polygon points="6.09 0.62 6.1 0.56 6.1 0.56 6.09 0.62 6.09 0.62"/><polygon points="6.23 0.44 6.23 0.44 6.23 0.44 6.23 0.44"/><path d="M5,7v0s0,0,0,0H5L5,7H5Z"/><path d="M6.23.44a.08.08,0,0,0-.08,0l0,0A.23.23,0,0,1,6.2.53l.09,0h0a.07.07,0,0,0,0-.08v0Z"/><polygon points="6.29 0.55 6.2 0.53 6.29 0.55 6.29 0.55"/><polygon points="4.92 6.6 6.18 0.62 6.09 0.62 4.9 6.51 4.92 6.6"/><path d="M6.11.51v0H6.2A.23.23,0,0,0,6.13.47.05.05,0,0,0,6.11.51Z"/><polygon points="6.1 0.56 6.1 0.56 6.09 0.62 6.18 0.62 6.2 0.53 6.11 0.53 6.1 0.56"/><polygon points="4.88 6.65 4.9 6.51 4.88 6.38 4.85 6.51 4.88 6.65"/><path d="M5,7.08V7h0A.08.08,0,0,1,5,7.08Z"/><path d="M4.83,7h0v0A.08.08,0,0,1,4.83,7Z"/><polygon points="4.85 6.51 4.83 6.6 4.88 6.82 4.92 6.6 4.9 6.51 4.88 6.65 4.85 6.51"/><path d="M4.86,7,4.8,6.74l0,.06v0h0V7h.08Z"/><path d="M4.87,7h0v-.2l0-.22,0,.14L4.86,7Z"/><path d="M6.27.64l.81.25.34,1.5-.48.18a.12.12,0,0,0-.05.05.11.11,0,0,0,0,.08l.26.62L5.43,6.61A.64.64,0,0,1,5,6.93L5,7a.72.72,0,0,0,.52-.38L7.25,3.32,7,2.66l.56-.22L7.17.9,6.27.64Z"/><polygon points="7.17 0.9 7.15 0.82 6.29 0.55 6.27 0.64 7.17 0.9"/><path d="M5,6.8v0H5L6.27.64h0l-.08,0h0L5,6.74Z"/><path d="M5,7H5l0-.1H5Z"/><polygon points="6.19 0.62 6.27 0.64 6.29 0.55 6.2 0.53 6.18 0.62 6.19 0.62"/><polygon points="4.95 6.74 6.18 0.62 6.18 0.62 4.92 6.6 4.95 6.74"/><polygon points="6.18 0.62 6.2 0.53 6.18 0.62 6.18 0.62"/><path d="M4.92,7H5v-.2H5V6.74L4.89,7Z"/><path d="M4.87,7h0L5,6.74l0-.14,0,.22Z"/><path d="M5.77,7.58a.09.09,0,1,0,.09.09A.09.09,0,0,0,5.77,7.58Z"/><path d="M5.77,8.88A.09.09,0,0,0,5.68,9a.09.09,0,1,0,.18,0A.09.09,0,0,0,5.77,8.88Z"/><path d="M5.77,10.18a.1.1,0,0,0-.09.1.09.09,0,0,0,.18,0A.1.1,0,0,0,5.77,10.18Z"/><path d="M5.77,11.49a.09.09,0,1,0,.09.09A.09.09,0,0,0,5.77,11.49Z"/><path d="M1.39,2.69a.1.1,0,0,0-.12-.06.11.11,0,0,0-.06.12A4.89,4.89,0,0,1,1.45,4h0A.11.11,0,0,1,1.53,4L1.3,2.72A5.35,5.35,0,0,1,1.54,4h0A.09.09,0,0,1,1.64,4h0A5.84,5.84,0,0,0,1.39,2.69Z"/><polygon points="1.54 4.13 1.54 4.13 1.55 4.04 1.54 4.13"/><path d="M1.53,4A.11.11,0,0,0,1.45,4h0a.11.11,0,0,0,.09.09V4Z"/><path d="M1.55,4.13a.09.09,0,0,0,0-.18h0a.28.28,0,0,0,0,.09v.09Z"/><path d="M1.53,4h0A5.35,5.35,0,0,0,1.3,2.72Z"/><path d="M1.55,4a.28.28,0,0,1,0-.09h0Z"/><path d="M8.47,2.63a.09.09,0,0,0-.11.06A5.35,5.35,0,0,0,8.11,4h0A.09.09,0,0,1,8.2,4h0a5.35,5.35,0,0,1,.24-1.23L8.22,4A.11.11,0,0,1,8.3,4h0a5.3,5.3,0,0,1,.23-1.29A.09.09,0,0,0,8.47,2.63Z"/><polygon points="8.21 4.13 8.21 4.13 8.2 4.04 8.21 4.13"/><path d="M8.21,4h0a.09.09,0,0,0,0,.18h0V4S8.21,4,8.21,4Z"/><path d="M8.3,4h0A.11.11,0,0,0,8.22,4L8.2,4v.09A.11.11,0,0,0,8.3,4Z"/><path d="M8.21,4h0l.23-1.23A5.35,5.35,0,0,0,8.21,4Z"/><path d="M8.2,4l0-.09h0S8.2,4,8.2,4Z"/><path d="M4.87,7.21a.09.09,0,0,1-.09-.08h0v4.72a.08.08,0,0,1,.08-.06h0V7.21Z"/><path d="M5,7.13H5a.1.1,0,0,1-.1.08v4.58a.09.09,0,0,1,.09.06V7.13Z"/><path d="M4.85,12H4.9l0-.09Z"/><path d="M5,11.88H5v0a.09.09,0,0,0-.09-.06v.09l0,.09A.1.1,0,0,0,5,11.88Z"/><path d="M4.87,11.79h0a.08.08,0,0,0-.08.06v0h0a.1.1,0,0,0,.07.09l0-.09Z"/><path d="M4.87,7.13H4.78a.09.09,0,0,0,.09.08h0V7.13Z"/><path d="M4.87,7.21A.1.1,0,0,0,5,7.13h-.1Z"/><polygon points="4.78 7.13 4.78 7.13 4.78 7.12 4.78 7.13"/><path d="M4.79,7.08s0,0,0,0h.09A.1.1,0,0,1,4.79,7.08Z"/><polygon points="4.97 7.13 4.97 7.12 4.97 7.13 4.97 7.13"/><path d="M5,7.08a.11.11,0,0,1-.09,0H5S5,7.09,5,7.08Z"/><path d="M4.92,7h0l0,.07v0a.11.11,0,0,0,.09,0A.08.08,0,0,0,4.92,7Z"/><path d="M4.86,7h0a.08.08,0,0,0,0,0,.1.1,0,0,0,.08,0h0V7Z"/><path d="M4.86,7v.07l0-.07h0Z"/><path d="M4.83,7h0Z"/><path d="M4.86,7h0V7h0Z"/><path d="M4.92,7h0Z"/><path d="M4.89,7h0V7Z"/><path d="M1.54,9.77l1.11.08h0a.11.11,0,0,0,.09-.09.09.09,0,0,0-.09-.09L1.55,9.59a.09.09,0,0,0-.09.06v.06A.08.08,0,0,0,1.54,9.77Zm1.12,0L1.55,9.68Z"/><path d="M1.45,9.68a0,0,0,0,0,0,0v0Z"/><path d="M8.2,9.59l-1.11.08A.09.09,0,0,0,7,9.76a.11.11,0,0,0,.09.09h0l1.11-.08a.08.08,0,0,0,.08-.06V9.65A.1.1,0,0,0,8.2,9.59Zm-1.11.17L8.2,9.68Z"/><path d="M8.3,9.68a0,0,0,0,1,0,0v.06S8.3,9.69,8.3,9.68Z"/></g></g></svg>