<svg xmlns="http://www.w3.org/2000/svg" viewBox="0 0 11.47 13.64"><defs><style>.cls-1{fill:#fff;}.cls-2{fill:#7f7f7f;}</style></defs><title>Asset 3</title><g id="Layer_2" data-name="Layer 2"><g id="_1" data-name=" 1"><path class="cls-1" d="M2.16,6.53c0-.15,0-.28,0-.41l-.92-.07H1.13L.82,6c-.08.36-.15.74-.21,1.11h.5l1,.08C2.14,7,2.15,6.75,2.16,6.53Z"/><path d="M.34,7h0c.06-.38.13-.76.21-1.11a.09.09,0,0,1-.06,0,.11.11,0,0,1,0-.08C.39,6.16.31,6.59.24,7A.1.1,0,0,1,.34,7Z"/><path d="M.44,7c.06-.37.13-.75.21-1.11H.56C.48,6.19.41,6.57.35,7L.76,7Z"/><path d="M1,5.87H1Z"/><path d="M.94,7l1,.08H2Z"/><path class="cls-1" d="M2.34,4.17a2.18,2.18,0,0,0,0-.25h0a2,2,0,0,0-.2-.79v0L2,2.66,2,2.31a17.74,17.74,0,0,0-.78,2.24H1.5l.33,0h.06l.39,0h0A4.4,4.4,0,0,0,2.34,4.17Z"/><path d="M.9,4.37h0A21.68,21.68,0,0,1,1.76,2l0-.12a.07.07,0,0,1,0-.06h0A17.68,17.68,0,0,0,.81,4.44.1.1,0,0,1,.9,4.37Z"/><path d="M1,4.38A18.7,18.7,0,0,1,1.8,2.13l0-.16a21.68,21.68,0,0,0-.84,2.4l.29,0Z"/><path d="M2.11,4.47l-.39,0Z"/><path d="M1.66,4.43l-.33,0Z"/><path class="cls-2" d="M2.12,8.08c0-.06,0-.12,0-.17V7.84h0V7.42l-.48,0h0l-.54,0H.91l-.32,0c-.06.37-.11.75-.14,1.11l.35,0H1l.6,0h0l.52,0C2.13,8.38,2.12,8.23,2.12,8.08Z"/><path class="cls-2" d="M2.13,7.42l-.48,0,.48,0Z"/><path class="cls-2" d="M.59,7.31h0l.32,0Z"/><path class="cls-2" d="M1.09,7.34l.54,0Z"/><path d="M.18,8.25h0c0-.39.09-.76.14-1.12a.09.09,0,0,1-.06,0A.14.14,0,0,1,.24,7c-.06.44-.12.87-.16,1.3A.09.09,0,0,1,.18,8.25Z"/><path d="M.94,7h0Z"/><path d="M.32,7.13s0-.06,0-.09S.35,7,.35,7h0A.1.1,0,0,0,.24,7a.14.14,0,0,0,0,.07A.09.09,0,0,0,.32,7.13Z"/><path d="M2,7.06.94,7H.76L.35,7S.34,7,.34,7c.54,0,1.08.06,1.62.12Z"/><path d="M.28,8.25c0-.36.08-.74.13-1.11H.32c0,.36-.1.73-.14,1.12l.45,0Z"/><path d="M1.44,8.32l.52,0H2Z"/><path d="M1.42,8.32l-.6,0Z"/><path d="M1.46,7.2h0Z"/><path d="M.74,7.16h0Z"/><path d="M.41,7.14h0l.33,0H.92l.54,0h0l.48,0V7.16C1.42,7.1.88,7.07.34,7c0,0,0,.06,0,.09H.41Z"/><path class="cls-2" d="M2.29,10.48,2.23,10h0L1.55,10H1.47l-.54,0H.36v.34c0,.27,0,.53,0,.77l.39,0H1l.62,0h0l.57.05.2,0h0Q2.35,10.89,2.29,10.48Z"/><path d="M.12,10.85c0-.23,0-.48,0-.77,0-.12,0-.23,0-.35h0A.08.08,0,0,1,0,9.64c0,.14,0,.29,0,.44A8.07,8.07,0,0,0,0,11a.14.14,0,0,1,0-.07A.09.09,0,0,1,.12,10.85Z"/><path d="M.54,9.75h0Z"/><path d="M.61,10.87l-.39,0c0-.24,0-.5,0-.77,0-.12,0-.23,0-.35H.1c0,.12,0,.23,0,.35,0,.29,0,.54,0,.77h0Z"/><path d="M2,11l-.56-.05Z"/><path d="M2.06,9.86h0Z"/><path d="M1.41,10.92l-.62,0Z"/><polygon points="2.23 11 2.24 11 2.24 11 2.23 11"/><path d="M1.3,9.8h0Z"/><path class="cls-1" d="M2.56,11.8s-.05-.16-.11-.44H2.37l-.19,0-.61-.05H1.46l-.5,0H.73l-.32,0a3.55,3.55,0,0,0,.35,1.35h.69l.21,0H1.8l.07,0h0l.07,0H2l.07,0h.08a1.68,1.68,0,0,0,.49-.92h0A.1.1,0,0,1,2.56,11.8Z"/><path class="cls-1" d="M2.45,11.36h0Z"/><path class="cls-1" d="M1.57,11.28l.61.05Z"/><path class="cls-1" d="M.41,11.21h0l.32,0Z"/><path class="cls-1" d="M1,11.24l.5,0Z"/><path d="M.46,12.41h0A4.11,4.11,0,0,1,.14,11h0A.08.08,0,0,1,0,11a4.15,4.15,0,0,0,.39,1.54h0A.09.09,0,0,1,.46,12.41Z"/><path d="M2.09,12.65a.08.08,0,0,1,0,.09h0a1.91,1.91,0,0,0,.56-1.07h-.1A1.86,1.86,0,0,1,2.09,12.65Z"/><path d="M1.46,10.93h0Z"/><path d="M2.23,11,2,11Z"/><path d="M.79,10.88h0Z"/><path d="M.13,11h0a.28.28,0,0,0,0-.09.28.28,0,0,0,0-.09.09.09,0,0,0-.06,0A.14.14,0,0,0,0,11,.08.08,0,0,0,.13,11Z"/><path d="M2.24,11h0L2,11l-.56-.05H1.41l-.62,0H.61l-.47,0h0a.28.28,0,0,1,0,.09q1.07,0,2.13.15Z"/><path d="M.59,12.39A3.55,3.55,0,0,1,.24,11H.14A4.11,4.11,0,0,0,.49,12.4h.1Z"/><path d="M1.16,12.45h0Z"/><path d="M2,12.61H2l.1,0,0,0a1.86,1.86,0,0,0,.5-1h-.1A1.63,1.63,0,0,1,2,12.61Z"/><path d="M1.92,12.59h0Z"/><path d="M1.29,11.1h0Z"/><path d="M.8,12.41h0Z"/><path d="M.72,12.4h0Z"/><path d="M.56,11.05l.23,0Z"/><path d="M.65,12.4h0Z"/><path d="M.88,12.42h0Z"/><path d="M1,12.43H1Z"/><path d="M1.49,12.5l-.21,0Z"/><path d="M1.81,12.57l-.07,0Z"/><path d="M1.28,12.47l-.1,0Z"/><path d="M1.6,12.52h0Z"/><path d="M1.7,12.54h0Z"/><path d="M2,11.16l.19,0Z"/><path d="M1.06,12.44h0Z"/><path d="M.23,11H.56l.23,0,.5,0H1.4l.61.05.19,0h.08l0-.1Q1.2,11,.13,10.94a.28.28,0,0,1,0,.09H.23Z"/><path class="cls-1" d="M2.15,9.14c0-.14,0-.28,0-.42l-.56-.05h0L1,8.63H.43C.4,9,.37,9.36.36,9.72l.38,0h.2l.62,0h.08l.55,0h0Z"/><path class="cls-1" d="M2.14,8.72l-.56-.05.56.05Z"/><path class="cls-1" d="M.43,8.61Z"/><path class="cls-1" d="M1,8.63l.57,0Z"/><path class="cls-1" d="M2.19,9.84h0Z"/><path class="cls-1" d="M1.64,9.8h0Z"/><path class="cls-1" d="M.94,9.75h0Z"/><path d="M.1,9.55c0-.38,0-.76.07-1.12a.06.06,0,0,1-.06,0,.09.09,0,0,1,0-.07C0,8.77,0,9.21,0,9.64a.14.14,0,0,1,0-.07A.07.07,0,0,1,.1,9.55Z"/><path d="M1.44,8.32h0Z"/><path d="M.82,8.28h0Z"/><path d="M.17,8.43V8.34a.28.28,0,0,0,0-.09h0a.09.09,0,0,0-.1.08.09.09,0,0,0,0,.07A.06.06,0,0,0,.17,8.43Z"/><path d="M2,8.37l-.52,0h0l-.6,0H.63l-.45,0a.28.28,0,0,1,0,.09c.6,0,1.2.06,1.79.12Z"/><path d="M.76,9.76l.54,0Z"/><path d="M.19,9.73h0l.35,0Z"/><path d="M1.38,9.8,2,9.86Z"/><path d="M.09,9.73h0V9.55a.07.07,0,0,0-.07,0,.14.14,0,0,0,0,.07A.08.08,0,0,0,.09,9.73Z"/><path d="M.19,9.73l.35,0H.76l.54,0h.08L2,9.86h.05V9.77C1.4,9.7.75,9.66.1,9.64v.09Z"/><path d="M.6,8.45h0Z"/><path d="M1.38,8.5h0Z"/><path d="M1.39,9.62l-.63,0Z"/><path d="M2,9.67l-.55-.05Z"/><path d="M.57,9.57l-.38,0c0-.36,0-.74.07-1.11H.17c0,.36-.06.74-.07,1.12h0Z"/><path d="M.26,8.44h0l.34,0H.81l.57,0h0L2,8.55a.28.28,0,0,1,0-.09C1.37,8.4.77,8.36.17,8.34v.09H.26Z"/><path d="M2,9.67H2l-.55-.05H1.39l-.63,0H.57l-.47,0h0v.09c.65,0,1.3.06,1.95.13C2.05,9.74,2,9.71,2,9.67Z"/><path class="cls-2" d="M2.26,5.21l0-.25,0-.13h0l-.39,0h0l-.36,0H1.35l-.21,0C1,5.1.94,5.47.86,5.84h.42l.92.08C2.22,5.65,2.24,5.4,2.26,5.21Z"/><path class="cls-2" d="M1.28,5.86h0Z"/><path class="cls-2" d="M1.87,4.79l.39,0Z"/><path class="cls-2" d="M1.48,4.76l.36,0Z"/><path class="cls-2" d="M1.14,4.73h0l.21,0Z"/><path d="M.58,5.66h0q.13-.59.27-1.11s0,0-.05,0a.11.11,0,0,1,0-.08C.69,4.87.58,5.3.49,5.73A.1.1,0,0,1,.58,5.66Z"/><path d="M2,6l-.92-.07L2,6Z"/><path d="M.65,5.85h0l.3,0Z"/><path d="M.56,5.84a.29.29,0,0,1,0-.09.29.29,0,0,1,0-.09h0a.1.1,0,0,0-.09.07.11.11,0,0,0,0,.08A.09.09,0,0,0,.56,5.84Z"/><path d="M.65,5.85h0l.3,0h.14L2,6V5.86c-.48-.05-1-.08-1.44-.11a.29.29,0,0,0,0,.09H.65Z"/><path d="M1.33,4.4h0Z"/><path d="M2.11,4.47h0Z"/><path d="M1.72,4.43h0Z"/><path d="M.82,4.52s0,0,.05,0l0-.08,0-.1h0a.1.1,0,0,0-.09.07A.11.11,0,0,0,.82,4.52Z"/><path d="M2.14,4.48h0l-.39,0H1.66l-.33,0H1.21l-.29,0,0,.1c.41,0,.82,0,1.23.1Z"/><path d="M2.13,4.66h0Z"/><path d="M1.11,5.69,2,5.77H2Z"/><path d="M.69,5.67C.77,5.3.87,4.93,1,4.56H.87Q.74,5.08.6,5.66l.35,0Z"/><path d="M1.67,4.62h0Z"/><path d="M1.18,4.58h0Z"/><path d="M2,5.77l-.91-.08H1l-.35,0a.29.29,0,0,0,0,.09c.48,0,1,.06,1.44.11Z"/><path d="M1,4.56H1l.21,0h.13a2.19,2.19,0,0,1,.36,0h0l.4,0h0V4.57c-.41-.05-.82-.08-1.23-.1l0,.08H1Z"/><path class="cls-1" d="M9.69,3.1v0a2.44,2.44,0,0,0-.19.79h0a2.29,2.29,0,0,0,0,.25,4.4,4.4,0,0,0,0,.48h0l.4,0H10l.32,0h.32a21.8,21.8,0,0,0-.78-2.24l-.07.35Z"/><path d="M9.73,1.85l0,.12a21.68,21.68,0,0,1,.84,2.4h0a.1.1,0,0,1,.09.07,20.11,20.11,0,0,0-.93-2.65h0A.06.06,0,0,1,9.73,1.85Z"/><path d="M10.14,4.4l-.32,0Z"/><path d="M10.46,4.38h-.19l.28,0A21.68,21.68,0,0,0,9.71,2l0,.16A23.21,23.21,0,0,1,10.46,4.38Z"/><path d="M9.76,4.43l-.4,0Z"/><path class="cls-1" d="M9.25,11.8a.09.09,0,0,1-.09.06h0a1.64,1.64,0,0,0,.5.92h.07l.07,0h0l.07,0h0l.07,0h.25l.1,0h.7a4,4,0,0,0,.35-1.35l-.33,0h-.22l-.51,0h-.11l-.61.05-.19,0H9.37C9.3,11.64,9.25,11.79,9.25,11.8Z"/><path d="M9.38,12.65a1.94,1.94,0,0,1-.5-1h-.1a1.89,1.89,0,0,0,.57,1.07h0A.08.08,0,0,1,9.38,12.65Z"/><path d="M11.34,11h0A4.51,4.51,0,0,1,11,12.4h0a.09.09,0,0,1,0,.07h0A3.94,3.94,0,0,0,11.43,11,.08.08,0,0,1,11.34,11Z"/><path d="M10.19,12.47l-.1,0Z"/><path d="M10,12.51h0Z"/><path d="M10.06,12.49h0Z"/><path d="M10.07,11.11h0Z"/><path d="M9.84,12.53h0Z"/><path d="M10.63,12.41h0Z"/><path d="M9.51,12.6h0a1.7,1.7,0,0,1-.5-.92h-.1a1.94,1.94,0,0,0,.5,1l0,0Z"/><path d="M10.71,12.41h0Z"/><path d="M10.88,12.39H11A4.51,4.51,0,0,0,11.33,11h-.09A3.67,3.67,0,0,1,10.88,12.39Z"/><path d="M10.28,12.45h0Z"/><path d="M10.78,12.4h0Z"/><path d="M10.38,12.44h0Z"/><path d="M9.27,11.18l.19,0Z"/><path d="M9.62,12.58h0Z"/><path d="M10.47,12.43h0Z"/><path d="M10.55,12.42h0Z"/><path d="M10.83,12.4h0Z"/><path d="M10.68,11.07l.23,0Z"/><path d="M9.73,12.55l-.07,0Z"/><path class="cls-2" d="M9.69,7.84v.24c0,.15,0,.3,0,.46l.52,0h0l.59,0H11l.36,0c0-.36-.08-.74-.14-1.11l-.33,0h-.18l-.53,0h0l-.49,0C9.69,7.56,9.69,7.69,9.69,7.84Z"/><path d="M11.15,7.13c.06.36.1.73.14,1.12h0a.08.08,0,0,1,.09.08c0-.43-.09-.86-.16-1.3a.08.08,0,0,1,0,.07Z"/><path d="M9.51,8.37l.52,0-.52,0Z"/><path d="M10.65,8.28l-.6,0Z"/><path d="M11.06,7.14c.06.37.1.75.14,1.11l-.36,0,.45,0c0-.39-.08-.76-.14-1.12h-.09Z"/><path d="M10.55,7.17h0Z"/><path d="M10,7.21h0Z"/><path class="cls-1" d="M9.66,6.53h0c0,.22,0,.46,0,.7l1-.08h.49c-.06-.37-.13-.75-.21-1.11l-.3,0h-.14l-.92.07C9.64,6.25,9.65,6.38,9.66,6.53Z"/><path class="cls-1" d="M10.88,7.14h0Z"/><path d="M10.91,5.84c.08.35.15.73.21,1.11h0a.1.1,0,0,1,.1.08c-.07-.44-.15-.87-.24-1.3a.11.11,0,0,1,0,.08A.06.06,0,0,1,10.91,5.84Z"/><path d="M10,7.2l.53,0Z"/><path d="M11.06,7.14l-.33,0,.33,0Z"/><path d="M10,7.21l-.49,0h0Z"/><path d="M11.13,7h0l0,.09s0,.06,0,.09l.06,0a.08.08,0,0,0,0-.07A.1.1,0,0,0,11.13,7Z"/><path d="M9.51,7.25l.49,0h0l.53,0h.18l.33,0h.09s0-.06,0-.09c-.54,0-1.09.06-1.63.12Z"/><path d="M10.82,5.85c.08.36.15.74.21,1.11h-.32l.41,0c-.06-.38-.13-.76-.21-1.11h-.09Z"/><path d="M10.38,5.88h0Z"/><path d="M9.51,7.06l1-.08-1,.08Z"/><path d="M10.54,7l-1,.08v.1c.54-.06,1.09-.09,1.63-.12l0-.09-.41,0Z"/><path class="cls-2" d="M9.53,5l0,.25c0,.19,0,.44.06.73l.91-.08H11q-.12-.55-.27-1.11l-.22,0h-.12l-.37,0h0l-.4,0h0Z"/><path class="cls-2" d="M9.55,4.83l.4,0Z"/><path class="cls-2" d="M10,4.79l.37,0Z"/><path class="cls-2" d="M10.68,4.73l-.22,0,.22,0Z"/><path class="cls-2" d="M10.69,5.85h0Z"/><path d="M10.65,4.52a.05.05,0,0,1-.05,0c.09.35.19.72.28,1.11h0a.1.1,0,0,1,.1.07q-.15-.65-.33-1.29A.08.08,0,0,1,10.65,4.52Z"/><path d="M9.33,4.48h0Z"/><path d="M9.82,4.43h0Z"/><path d="M10.27,4.39h0Z"/><path d="M10.57,4.37h0l0,.1a.31.31,0,0,0,0,.08.05.05,0,0,0,.05,0,.08.08,0,0,0,0-.08A.1.1,0,0,0,10.57,4.37Z"/><path d="M10.14,4.4l-.32,0H9.76l-.4,0h0v.09c.41-.05.82-.08,1.24-.1l0-.1-.28,0Z"/><path d="M10.38,5.88,9.46,6h0Z"/><path d="M10.82,5.85l-.3,0,.3,0Z"/><path d="M10.89,5.66h0a.29.29,0,0,0,0,.09s0,.06,0,.09a.06.06,0,0,0,.06,0,.11.11,0,0,0,0-.08A.1.1,0,0,0,10.89,5.66Z"/><path d="M9.46,6l.92-.07h.14l.3,0h.09s0-.06,0-.09c-.48,0-1,.06-1.44.11Z"/><path d="M10.17,4.59h0Z"/><path d="M9.38,4.66h0Z"/><path d="M9.78,4.62h0Z"/><path d="M9.45,5.77l.91-.08-.91.08Z"/><path d="M10.51,4.56q.15.56.27,1.11h-.26l.36,0c-.09-.39-.19-.76-.28-1.11h-.09Z"/><path d="M9.35,4.66h0l.4,0h0l.37,0h.12l.22,0h.09a.31.31,0,0,1,0-.08c-.42,0-.83,0-1.24.1Z"/><path d="M10.36,5.69l-.91.08v.09c.48-.05,1-.08,1.44-.11a.29.29,0,0,1,0-.09l-.36,0Z"/><path class="cls-2" d="M9.53,10.48q-.06.4-.12.69h0l.21,0,.56-.05h.06l.62,0H11l.4,0c0-.24,0-.5,0-.77V9.91h-.57l-.55,0h-.08L9.64,10H9.58C9.57,10.19,9.55,10.34,9.53,10.48Z"/><path class="cls-2" d="M10.24,11.09h0Z"/><path class="cls-2" d="M9.62,11.15l-.21,0Z"/><path class="cls-2" d="M11,11h0Z"/><path d="M11.38,9.73h0v.35c0,.29,0,.54,0,.77a.09.09,0,0,1,.06,0,.06.06,0,0,1,0,.07,8.07,8.07,0,0,0,0-.87V9.64A.09.09,0,0,1,11.38,9.73Z"/><path d="M10.18,11.1l.5,0Z"/><path d="M9.27,11.18h0Z"/><path d="M11.24,11h0Z"/><path d="M9.46,11.16l.61-.05Z"/><path d="M11.35,10.85s0,.06,0,.09,0,.06,0,.09h0a.08.08,0,0,0,.09-.08.06.06,0,0,0,0-.07A.09.09,0,0,0,11.35,10.85Z"/><path d="M9.2,11.19h.07l.19,0,.61-.05h.11l.5,0,.23,0h.42s0-.06,0-.09c-.71,0-1.41.08-2.12.15Z"/><path d="M9.46,9.86h0Z"/><path d="M10.69,10.88l-.62,0Z"/><path d="M10,10.93,9.45,11Z"/><path d="M10.09,9.8h0Z"/><path d="M11.29,10.08c0,.27,0,.53,0,.77l-.4,0,.48,0h0c0-.23,0-.48,0-.77V9.73h-.09Z"/><path d="M10.71,9.76h0Z"/><polygon points="9.24 11 9.24 11 9.24 11 9.24 11"/><path d="M10.86,10.87h-.17l-.62,0H10L9.45,11l-.21,0h0a.29.29,0,0,0,0,.09c.71-.07,1.41-.12,2.12-.15,0,0,0-.06,0-.09h0Z"/><path class="cls-1" d="M9.66,9.14c0,.24,0,.48-.06.71h0l.54,0h.09l.62,0h.19l.38,0c0-.36,0-.74-.06-1.11h-.56l-.51,0h-.09l-.55.05C9.67,8.86,9.67,9,9.66,9.14Z"/><path class="cls-1" d="M10.32,8.67l.51,0Z"/><path class="cls-1" d="M11.39,8.61h0Z"/><path class="cls-1" d="M10.23,8.67l-.55.05h0Z"/><path class="cls-1" d="M11.07,9.74h0Z"/><path class="cls-1" d="M10.26,9.79h0Z"/><path class="cls-1" d="M9.6,9.85h0Z"/><path d="M11.31,8.43c0,.36,0,.74.06,1.12a.06.06,0,0,1,.07,0,.09.09,0,0,1,0,.07c0-.43,0-.87-.08-1.31a.14.14,0,0,1,0,.07Z"/><path d="M10.84,8.27h0Z"/><path d="M10.05,8.32h0Z"/><path d="M11.3,8.25h0s0,.06,0,.09a.28.28,0,0,0,0,.09l.06,0a.14.14,0,0,0,0-.07A.08.08,0,0,0,11.3,8.25Z"/><path d="M10.65,8.28l-.6,0h0l-.52,0v.09c.6-.06,1.19-.1,1.79-.12,0,0,0-.06,0-.09l-.45,0Z"/><path d="M9.46,9.86l.63-.06Z"/><path d="M11.29,9.73l-.36,0,.36,0Z"/><path d="M10.17,9.8l.54,0Z"/><path d="M11.37,9.55s0,.06,0,.09v.09h0a.09.09,0,0,0,.09-.09.09.09,0,0,0,0-.07A.06.06,0,0,0,11.37,9.55Z"/><path d="M9.42,9.77v.09h.05l.63-.06h.08l.54,0h.22l.36,0h.09V9.64C10.72,9.66,10.07,9.7,9.42,9.77Z"/><path d="M10.06,8.5h0Z"/><path d="M10.66,8.46h0Z"/><path d="M10.71,9.58l-.63,0Z"/><path d="M10,9.63l-.54,0Z"/><path d="M11.22,8.44c0,.37,0,.75.06,1.11l-.38,0,.47,0h0c0-.38,0-.76-.06-1.12h-.09Z"/><path d="M9.51,8.55l.55-.05h.08l.52,0h.22l.34,0h.09a.28.28,0,0,1,0-.09c-.6,0-1.19.06-1.79.12Z"/><path d="M10.9,9.57h-.19l-.63,0H10l-.54,0h0a.31.31,0,0,1,0,.1c.65-.07,1.3-.11,2-.13,0,0,0-.06,0-.09h0Z"/><path class="cls-2" d="M3.19,9l.26,0,.19,0h.27l.18,0H7.73l.17,0h.28l.19,0,.26,0,.2,0h.06V8.7c0-.27,0-.55,0-.84H8.84l-.2,0-.26,0H8.19l-.27,0H7.73l-.27,0H4.35l-.27,0H3.89l-.26,0h-.2l-.26,0L3,7.85H2.9c0,.29,0,.57,0,.84,0,.09,0,.18,0,.27H3Z"/><path class="cls-2" d="M2.73,8.6c0-.24,0-.48,0-.72l-.2,0-.21,0v.63h.07Z"/><path class="cls-2" d="M2.92,8.7c0-.27,0-.55,0-.84H2.81c0,.25,0,.5,0,.74h0A.09.09,0,0,1,2.92,8.7Z"/><path class="cls-2" d="M2.72,7.88h0c0,.24,0,.48,0,.72l-.35,0,.45,0c0-.24,0-.49,0-.74Z"/><path class="cls-2" d="M2.53,9l.2,0h0V8.78l-.37,0H2.32c0,.1,0,.2,0,.29Z"/><path class="cls-2" d="M2.37,8.75l.37,0h0Z"/><path class="cls-2" d="M2.93,9c0-.09,0-.18,0-.27a.09.09,0,0,1,0,.07l-.06,0V9Z"/><path class="cls-2" d="M2.31,8.55Z"/><path class="cls-2" d="M2.92,8.7a.09.09,0,0,0-.08-.09h0v.18l.06,0A.09.09,0,0,0,2.92,8.7Z"/><path class="cls-2" d="M2.83,8.61l-.45,0H2.31a.38.38,0,0,1,0,.1l.51,0Z"/><path class="cls-2" d="M2.32,8.74Z"/><path class="cls-2" d="M2.83,8.79H2.74V9h.1Z"/><path class="cls-2" d="M2.74,8.78h.09V8.7l-.51,0v.09h.05Z"/><path class="cls-2" d="M9.51,7.92l-.22,0-.19,0c0,.24,0,.48,0,.72l.35,0H9.5c0-.15,0-.31,0-.47Z"/><path class="cls-2" d="M8.91,7.86c0,.29,0,.57,0,.84A.1.1,0,0,1,9,8.61H9c0-.24,0-.49,0-.74Z"/><path class="cls-2" d="M9,7.87c0,.25,0,.5,0,.74l.44,0-.35,0c0-.24,0-.48,0-.72H9Z"/><path class="cls-2" d="M9.08,8.78V9h0l.21,0,.19,0a2.71,2.71,0,0,0,0-.29H9.44Z"/><path class="cls-2" d="M9.08,8.78h0l.36,0Z"/><path class="cls-2" d="M8.89,8.7V9H9V8.79l-.06,0A.09.09,0,0,1,8.89,8.7Z"/><path class="cls-2" d="M9.5,8.55Z"/><path class="cls-2" d="M8.89,8.7a.09.09,0,0,0,0,.07l.06,0V8.61H9A.1.1,0,0,0,8.89,8.7Z"/><path class="cls-2" d="M9,8.61V8.7l.51,0v-.1H9.43Z"/><path class="cls-2" d="M9.07,9V8.78H9V9Z"/><path class="cls-2" d="M9.49,8.74Z"/><path class="cls-2" d="M9,8.79h.1l.36,0h.05s0-.06,0-.09L9,8.7Z"/><path d="M2.05,7.91V7.76L2,7.74s0,0,0-.07H2v.24c0,.15,0,.3,0,.45h.09Z"/><path d="M2,8.36H2Z"/><path d="M2.07,8.87h0c0-.1,0-.2,0-.31H2C2,8.69,2,8.83,2,9A.11.11,0,0,1,2.07,8.87Z"/><path d="M2,8.55H2Z"/><path d="M2,8.37H2Z"/><path d="M2.05,8.37H2v.09h.09Z"/><path d="M2.06,8.56h0Z"/><path d="M2.06,8.56V8.47H2a.28.28,0,0,0,0,.09h.09Z"/><path d="M9.43,7.76v.15c0,.16,0,.31,0,.46h.09c0-.15,0-.3,0-.45V7.67a.11.11,0,0,1,0,.07Z"/><path d="M9.45,8.37h0Z"/><path d="M9.4,8.87h0a.1.1,0,0,1,.08.1c0-.14,0-.28,0-.42H9.42C9.41,8.67,9.41,8.77,9.4,8.87Z"/><path d="M9.51,8.55Z"/><path d="M9.42,8.37h0Z"/><path d="M9.42,8.37v.1h.09V8.37H9.42Z"/><path d="M9.47,8.55h0Z"/><path d="M9.42,8.56h.09V8.46H9.42Z"/><path d="M4.37,7.57h0Z"/><path d="M6.83,7.56h0Z"/><path d="M5.28,7.55h0Z"/><path d="M3.91,7.6h0Z"/><path d="M6.35,7.55h0Z"/><path d="M4.83,7.56h0Z"/><path d="M3,8.78l.27,0Z"/><path d="M3.46,7.63h0Z"/><path d="M3.47,8.74l.27,0Z"/><path d="M3,7.66l-.2,0Z"/><path d="M5.74,7.54Z"/><path d="M7.75,7.61h0Z"/><path d="M6.26,8.67h0Z"/><path d="M6.78,8.68h0Z"/><path d="M7.26,8.7h0Z"/><path d="M8.2,8.76l.26,0Z"/><path d="M4.83,8.67h0Z"/><path d="M4.37,8.69h0Z"/><path d="M7.29,7.58h0Z"/><path d="M6.19,8.66h0Z"/><path d="M7.73,8.72l.28,0Z"/><path d="M8.72,8.8Z"/><path d="M2.82,8.8h0Z"/><path d="M3.92,8.71h0Z"/><path d="M8.67,7.68l-.2,0Z"/><path d="M8.21,7.64h0Z"/><path d="M2.35,7.73l.2,0h0Z"/><path d="M2.14,7.75H2.05v.61h.09V7.75Z"/><polygon points="2.55 7.71 2.55 7.71 2.55 7.7 2.55 7.71"/><path d="M2.16,8.86c0-.09,0-.19,0-.29H2.06c0,.11,0,.21,0,.31l.29,0Z"/><polygon points="2.56 8.82 2.57 8.82 2.57 8.82 2.56 8.82"/><path d="M2.76,8.8h0Z"/><path d="M2.14,8.38h0Z"/><path d="M2.14,8.38H2.05v.1h.1A.34.34,0,0,0,2.14,8.38Z"/><path d="M2.15,8.57Z"/><path d="M2.67,8.81h0Z"/><path d="M2.15,8.48h-.1v.09h.09Z"/><path d="M9.12,7.73l-.19,0h0Z"/><path d="M9.33,7.75s0,.1,0,.16,0,.32,0,.47h.09c0-.15,0-.3,0-.46V7.76h-.1Z"/><polygon points="8.93 7.71 8.93 7.71 8.92 7.7 8.93 7.71"/><path d="M9.12,8.84l.28,0c0-.1,0-.2,0-.31h-.1a2.71,2.71,0,0,1,0,.29Z"/><polygon points="8.91 8.82 8.9 8.82 8.9 8.82 8.91 8.82"/><path d="M8.81,8.81Z"/><path d="M9.33,8.38Z"/><path d="M9.33,8.48h.09v-.1H9.33Z"/><path d="M9.32,8.57h0Z"/><path d="M8.81,8.81h0Z"/><path d="M9.32,8.57h.1V8.47H9.33Z"/><path class="cls-1" d="M8.87,10h0c0-.26,0-.54,0-.85H8.83l-.22,0-.24,0H8.16l-.24,0H7.71l-.25,0H4.36l-.26,0H3.9l-.25,0H3.44l-.24,0L3,9.15H2.93c0,.31,0,.59,0,.85H3v.31h.24l.41,0H8.21l.65.06C8.86,10.22,8.86,10.12,8.87,10Z"/><path class="cls-1" d="M2.74,10.34h0v-.25l-.35,0c0,.11,0,.21,0,.32l.21,0h.07Z"/><path class="cls-1" d="M3,10H3a.11.11,0,0,1,0,.07l-.06,0v.23H3Z"/><path class="cls-1" d="M2.82,10.33h0V10.1H2.77v.25h0Z"/><path class="cls-1" d="M2.76,9.9c0-.22,0-.46,0-.72l-.21,0-.2,0,.06.65h0Z"/><path class="cls-1" d="M2.4,9.87Z"/><path class="cls-1" d="M3,10c0-.26,0-.54,0-.85H2.84c0,.27,0,.52,0,.74h0A.09.09,0,0,1,3,10Z"/><path class="cls-1" d="M2.77,10.09l-.35,0h0l.35,0Z"/><path class="cls-1" d="M3,10H3a.09.09,0,0,0-.08-.09h0v.19l.06,0A.11.11,0,0,0,3,10Z"/><path class="cls-1" d="M2.77,10.09h.09V10l-.45,0a.28.28,0,0,0,0,.09l.35,0Z"/><path class="cls-1" d="M2.75,9.17h0c0,.26,0,.5,0,.72l-.35,0,.45,0c0-.22,0-.47,0-.74Z"/><path class="cls-1" d="M2.86,9.91l-.45,0h0V10l.45,0Z"/><path class="cls-1" d="M9,10.34l.32,0c0-.11,0-.21,0-.32l-.35,0A2,2,0,0,1,9,10.34Z"/><path class="cls-1" d="M8.87,10h0c0,.11,0,.21,0,.31H9V10.1l-.06,0S8.86,10,8.87,10Z"/><path class="cls-1" d="M9,10.34a2,2,0,0,0,0-.25H9v.23Z"/><path class="cls-1" d="M9.28,9.2l-.21,0c0,.26,0,.5,0,.72l.35,0h0c0-.22,0-.43.05-.65Z"/><path class="cls-1" d="M9.42,9.87Z"/><path class="cls-1" d="M8.88,9.16c0,.31,0,.59,0,.85h0A.08.08,0,0,1,9,9.92H9c0-.22,0-.47,0-.74Z"/><path class="cls-1" d="M9.05,10.09l.35,0h0l-.35,0Z"/><path class="cls-1" d="M8.87,10s0,.05,0,.07l.06,0V9.91H9A.08.08,0,0,0,8.87,10Z"/><path class="cls-1" d="M9,10.1h.09l.35,0a.28.28,0,0,1,0-.09L9,10Z"/><path class="cls-1" d="M9,9.17c0,.27,0,.52,0,.74l.44,0-.35,0c0-.22,0-.46,0-.72H9Z"/><path class="cls-1" d="M9,9.91V10l.45,0V9.87h0Z"/><path class="cls-1" d="M5.31,9h0Z"/><path class="cls-1" d="M8.16,9.1l-.24,0Z"/><path class="cls-1" d="M6.81,9h0Z"/><path class="cls-1" d="M7.26,9.05h0Z"/><path class="cls-1" d="M7.71,9.07l-.25,0Z"/><path class="cls-1" d="M4.82,9h0Z"/><path class="cls-1" d="M4.36,9.05l-.26,0Z"/><path class="cls-1" d="M8.83,9.15h0Z"/><path class="cls-1" d="M5.46,9h0Z"/><path class="cls-1" d="M3.9,9.08l-.25,0Z"/><path class="cls-1" d="M3.44,9.11l-.24,0Z"/><path class="cls-1" d="M2.93,9.16h0Z"/><path class="cls-1" d="M8.61,9.13l-.24,0Z"/><path class="cls-1" d="M2.34,9.22h0l.2,0Z"/><path class="cls-1" d="M2.84,9.17Z"/><path class="cls-1" d="M2.75,9.17h0Z"/><path class="cls-1" d="M9.28,9.2l.19,0h0Z"/><path class="cls-1" d="M8.88,9.16Z"/><path class="cls-1" d="M9,9.17H9Z"/><path d="M2.19,10.21h0c0-.11,0-.22-.05-.34H2.06l.06.45A.08.08,0,0,1,2.19,10.21Z"/><path d="M2.15,9.87Z"/><path d="M2.08,9.06A.08.08,0,0,1,2,9,.16.16,0,0,1,2,9c0,.24,0,.48.06.7h.09c0-.19,0-.4,0-.62Z"/><path d="M2.13,9.68h0Z"/><path d="M2.14,9.78H2.05v.09h.09A.28.28,0,0,0,2.14,9.78Z"/><path d="M2.13,9.68H2s0,.07,0,.1h.09Z"/><path d="M9.28,10.21a.1.1,0,0,1,.08.1c0-.14,0-.3.05-.45H9.32c0,.12,0,.23,0,.34Z"/><path d="M9.32,9.87h0Z"/><path d="M9.39,9.06c0,.22,0,.43-.05.62h.09c0-.22.05-.46.06-.7a.09.09,0,0,1,0,.07Z"/><path d="M9.34,9.68Z"/><path d="M9.32,9.87h.09V9.77H9.33S9.32,9.84,9.32,9.87Z"/><path d="M9.34,9.68v.1h.09a.31.31,0,0,0,0-.1Z"/><path d="M6.65,8.67h0Z"/><path d="M7.1,8.69h0Z"/><path d="M4.69,8.68h0Z"/><path d="M3.28,8.76l.19,0Z"/><path d="M2.82,8.8l.19,0Z"/><path d="M8,8.74l.19,0Z"/><path d="M8.46,8.78l.2,0Z"/><path d="M7.55,8.71h0Z"/><path d="M3.74,8.72h0Z"/><path d="M4.21,8.7h0Z"/><path d="M6.19,8.66h0Z"/><path d="M5.21,8.67h0Z"/><path d="M2.56,8.82l-.2,0Z"/><path d="M8.91,8.82l.21,0Z"/><path d="M2.08,9.06h0V9a.34.34,0,0,1,0-.1h0A.11.11,0,0,0,2,9,.16.16,0,0,0,2,9,.08.08,0,0,0,2.08,9.06Z"/><path d="M9.41,8.87h0v.19l.07,0a.09.09,0,0,0,0-.07A.1.1,0,0,0,9.41,8.87Z"/><path d="M8.66,8.8l-.2,0-.26,0L8,8.74l-.28,0h-4l-.27,0-.19,0L3,8.78l-.19,0H2.76v.09a32.85,32.85,0,0,1,6,0V8.8Z"/><path d="M2.57,8.82h0l-.2,0-.29,0a.34.34,0,0,0,0,.1l.5-.06Z"/><path d="M2.76,8.8H2.67V8.9h.09Z"/><path d="M2.67,8.81h-.1v.09h.09Z"/><path d="M8.91,8.82h0v.09L9.4,9v-.1l-.28,0Z"/><path d="M8.71,8.89h.1V8.81H8.72Z"/><path d="M8.81,8.9H8.9V8.82H8.81Z"/><path d="M6.54,10h0Z"/><path d="M8,10.09H8Z"/><path d="M8,10.08H8Z"/><path d="M5.86,10h0Z"/><path d="M6.26,10h0Z"/><path d="M6,10H6Z"/><path d="M6.68,10h0Z"/><path d="M6.13,10h0Z"/><path d="M7.57,10.05h0Z"/><path d="M6.82,10h0Z"/><path d="M7.43,10h0Z"/><path d="M7.29,10h0Z"/><path d="M7.7,10.06h0Z"/><path d="M7.83,10.07h0Z"/><path d="M7,10H7Z"/><path d="M7.16,10h0Z"/><path d="M6.4,10h0Z"/><path d="M8.2,8.94h0Z"/><path d="M7.75,8.91h0Z"/><path d="M6.82,8.86h0Z"/><path d="M7.29,8.88h0Z"/><path d="M8.66,9,8.44,9Z"/><path d="M3,10.13H3Z"/><path d="M2.92,10.13h0Z"/><path d="M2.82,10.14h0Z"/><path d="M3.93,8.9h0Z"/><path d="M3.45,10.09h0Z"/><path d="M3.48,8.93h0Z"/><path d="M3,9,2.82,9Z"/><path d="M4.83,8.86h0Z"/><path d="M4.38,8.87h0Z"/><path d="M5.28,8.85h0Z"/><path d="M6.33,8.85h0Z"/><path d="M5,10H5Z"/><path d="M5.74,10h0Z"/><path d="M4.88,10h0Z"/><path d="M4.74,10h0Z"/><path d="M5.15,10h0Z"/><path d="M3.57,10.08h0Z"/><path d="M5.57,10h0Z"/><path d="M5.43,10h0Z"/><path d="M5.29,10h0Z"/><path d="M4,10.05H4Z"/><path d="M4.6,10h0Z"/><path d="M3.7,10.07h0Z"/><path d="M3.84,10.06h0Z"/><path d="M4.11,10h0Z"/><path d="M4.4,10h0Z"/><path d="M4.25,10h0Z"/><path d="M2.22,10.2l.28,0-.21,0c0-.11,0-.21,0-.32h-.1c0,.12,0,.23.05.34Z"/><path d="M2.57,10.17h0Z"/><path d="M2.73,10.15h0Z"/><path d="M2.65,10.16h0Z"/><path d="M2.15,9.87Z"/><path d="M2.17,9.05H2.08c0,.22,0,.43,0,.62h.1Z"/><path d="M2.36,9l.22,0h0Z"/><path d="M2.23,9.69h0Z"/><path d="M2.21,9.88h0Z"/><path d="M2.25,9.88V9.79h-.1a.28.28,0,0,1,0,.09h.1Z"/><polygon points="2.58 9.01 2.58 9.01 2.58 9 2.58 9.01"/><path d="M2.23,9.69h-.1v.1h.1Z"/><path d="M9.23,9.88c0,.11,0,.21,0,.32h.09c0-.11,0-.22,0-.34H9.23Z"/><path d="M9.32,9.87Z"/><path d="M8.9,9l.21,0L8.9,9Z"/><path d="M9.39,9.06H9.3c0,.22,0,.43-.05.64h.09c0-.19,0-.4.05-.62Z"/><path d="M9.25,9.69Z"/><path d="M9.26,9.88h0Z"/><path d="M9.23,9.88h.09s0-.06,0-.09H9.24A.28.28,0,0,0,9.23,9.88Z"/><polygon points="8.89 9 8.9 9.01 8.9 9.01 8.89 9"/><path d="M9.24,9.79h.09v-.1H9.25A.38.38,0,0,0,9.24,9.79Z"/><path d="M8.71,8.89a32.85,32.85,0,0,0-6,0V9h.06L3,9l.24,0h.21l.25,0h.2l.26,0h3.1l.25,0h.21l.24,0H8.2l.24,0,.22,0h.05Z"/><path d="M2.36,9l.22,0V8.91L2.08,9v.09h.09Z"/><path d="M2.76,8.89H2.67V9h.09Z"/><path d="M2.67,9V8.9H2.58V9h.09Z"/><path d="M8.9,9l.21,0,.19,0h.09V9l-.5-.06Z"/><path d="M8.71,9H8.8V8.9h-.1Z"/><path d="M8.8,9h.1V8.91H8.81Z"/><path class="cls-1" d="M2.74,2.21v.27h.11l.24,0,.22,0,.24,0h.23l.24,0H7.78l.24,0h.23l.24,0,.23,0,.24,0h.1V2.21a.1.1,0,0,1,.06-.08L9.67,2A5.12,5.12,0,0,0,7.51,1s0,0,0,0a2.5,2.5,0,0,1-1.58.46A2.47,2.47,0,0,1,4.33,1a0,0,0,0,1,0,0A5.11,5.11,0,0,0,2.14,2l.54.18A.08.08,0,0,1,2.74,2.21Z"/><path class="cls-1" d="M2.39,2.51l.18,0V2.28l-.44-.14.08.4Z"/><path class="cls-1" d="M2.66,2.48h.09V2.21a.08.08,0,0,0-.06-.08L2.14,2A.21.21,0,0,0,2.1,2V2l.55.19S2.65,2.31,2.66,2.48Z"/><path class="cls-1" d="M2.57,2.49h.09c0-.17,0-.26,0-.26L2.1,2l0,.11.44.14Z"/><path class="cls-1" d="M9.25,2.49l.18,0,.18,0,.08-.4-.44.14Z"/><path class="cls-1" d="M9.07,2.21v.27h.1V2.22L9.71,2V2L9.67,2l-.54.18A.1.1,0,0,0,9.07,2.21Z"/><path class="cls-1" d="M9.16,2.48h.09V2.28l.44-.14,0-.11-.55.19Z"/><path d="M9.6,1.75h0a.1.1,0,0,1,.11.05h0C9.47,1.28,8.3.86,7.29.58l0,.11A5.11,5.11,0,0,1,9.6,1.75Z"/><path d="M1.86,1.74h0A5,5,0,0,1,4.14.69l0-.11c-1,.28-2.18.7-2.43,1.21h0A.09.09,0,0,1,1.86,1.74Z"/><path d="M1.88,2.41a.09.09,0,0,1,.06,0L1.86,2a1,1,0,0,0-.06.14l.07.35A.09.09,0,0,1,1.88,2.41Z"/><path d="M1.74,1.85l0,.12.07-.14a.22.22,0,0,1,0-.08h0a.09.09,0,0,0-.11.05A.07.07,0,0,0,1.74,1.85Z"/><path d="M1.86,2l0-.16L1.76,2l0,.16A1,1,0,0,1,1.86,2Z"/><path d="M9.59,2.41a.1.1,0,0,1,0,.07l.07-.35S9.63,2,9.61,2l-.08.39A.06.06,0,0,1,9.59,2.41Z"/><path d="M9.62,1.74h0a.59.59,0,0,1,0,.08L9.71,2l0-.12a.06.06,0,0,0,0-.06A.1.1,0,0,0,9.62,1.74Z"/><path d="M9.68,2.13l0-.16-.07-.14,0,.16S9.65,2.08,9.68,2.13Z"/><path d="M6,2.15H6Z"/><path d="M4.33,2.18h0Z"/><path d="M3.39,2.23h0Z"/><path d="M2.93,2.27l.22,0Z"/><path d="M3.86,2.2h0Z"/><path d="M6.92,2.17h0Z"/><path d="M6.45,2.16h0Z"/><path d="M7.39,2.19h0Z"/><path d="M7.85,2.22h0Z"/><path d="M5.27,2.15h0Z"/><path d="M8.32,2.25l.23,0Z"/><path d="M4.8,2.16h0Z"/><path d="M8.89,2.31h0Z"/><path d="M7.34.79a5.12,5.12,0,0,1,2.16,1l.1,0A5.11,5.11,0,0,0,7.33.69v0A.11.11,0,0,1,7.34.79Z"/><path d="M2.68,2.3h0Z"/><path d="M4.14.79a.08.08,0,0,1,0-.08v0A5,5,0,0,0,1.88,1.75l.09,0A5.11,5.11,0,0,1,4.14.79Z"/><path d="M2,2.37l.27,0L2,2.36,2,2l-.07,0,0,.05.08.39Z"/><path d="M2.58,2.31Z"/><path d="M1.93,1.84a.21.21,0,0,1,0-.06l-.09,0a.22.22,0,0,0,0,.08l.1,0Z"/><path d="M1.88,1.94,2,2l0-.11-.1,0,0,.16Z"/><path d="M2.49,2.31h0Z"/><path d="M9.26,2.34l.27,0h0L9.61,2l0-.05L9.52,2l-.08.39Z"/><path d="M9,2.31Z"/><path d="M9.55,1.84v0l.1,0a.59.59,0,0,0,0-.08l-.1,0Z"/><path d="M9.52,2l.07,0,0,.05,0-.16-.1,0Z"/><path d="M9,2.32H9Z"/><path class="cls-1" d="M3.08,5.05l.19,0h.24l.2,0H4l.2,0H7.67l.2,0h.24L8.3,5h.25l.19,0,.25,0H9v-.3C9,4.49,9,4.22,9,4h-.1l-.25,0-.18,0-.24,0H7.82l-.19,0H4.19l-.2,0H3.57l-.24,0-.19,0L2.9,4H2.79c0,.26,0,.53,0,.82,0,.1,0,.2,0,.3h0Z"/><path class="cls-1" d="M2.61,4H2.52c0,.06,0,.12,0,.18s0,.31,0,.5h.13C2.62,4.43,2.62,4.2,2.61,4Z"/><path class="cls-1" d="M2.82,4.78c0-.29,0-.56,0-.82H2.7c0,.23,0,.47,0,.72h0A.1.1,0,0,1,2.82,4.78Z"/><path class="cls-1" d="M2.7,4H2.61c0,.22,0,.45,0,.7H2.5l.22,0C2.72,4.44,2.71,4.2,2.7,4Z"/><path class="cls-1" d="M2.64,4.87l-.16,0V5l0,.13.19,0h0Z"/><path class="cls-1" d="M2.64,4.87l-.16,0h0l.16,0Z"/><path class="cls-1" d="M2.83,5.08c0-.1,0-.2,0-.3a.09.09,0,0,1,0,.07.07.07,0,0,1-.06,0v.21Z"/><path class="cls-1" d="M2.82,4.78a.1.1,0,0,0-.08-.09h0v.18a.07.07,0,0,0,.06,0A.09.09,0,0,0,2.82,4.78Z"/><path class="cls-1" d="M2.72,4.69l-.22,0v.09l.24,0Z"/><path class="cls-1" d="M2.73,4.87H2.64v.22h.09Z"/><path class="cls-1" d="M2.64,4.87h.09V4.78l-.24,0v.09l.16,0Z"/><path class="cls-1" d="M9.29,4H9.2c0,.22,0,.45,0,.7h.14a4.75,4.75,0,0,1,0-.5Z"/><path class="cls-1" d="M9,4c0,.26,0,.53,0,.82a.09.09,0,0,1,.08-.09h0l0-.72H9Z"/><path class="cls-1" d="M9.2,4H9.11l0,.72.23,0H9.18C9.19,4.43,9.2,4.2,9.2,4Z"/><path class="cls-1" d="M9.17,5.09h0l.19,0V4.85l-.16,0C9.18,4.94,9.17,5,9.17,5.09Z"/><path class="cls-1" d="M9.18,4.87l.16,0h0l-.16,0Z"/><path class="cls-1" d="M9,4.78v.3h.09a1.48,1.48,0,0,1,0-.21s-.05,0-.06,0A.09.09,0,0,1,9,4.78Z"/><path class="cls-1" d="M9,4.78a.09.09,0,0,0,0,.07s0,0,.06,0V4.69h0A.09.09,0,0,0,9,4.78Z"/><path class="cls-1" d="M9.09,4.78l.24,0V4.67l-.23,0Z"/><path class="cls-1" d="M9.17,5.09c0-.07,0-.15,0-.22H9.09a1.48,1.48,0,0,0,0,.21Z"/><path class="cls-1" d="M9.09,4.87h.09l.16,0V4.76l-.24,0Z"/><path d="M2.26,4V3.83l-.07,0a.09.09,0,0,1,0-.06h0a2.18,2.18,0,0,1,0,.25,4.4,4.4,0,0,1,0,.48h.1C2.25,4.3,2.26,4.15,2.26,4Z"/><polygon points="2.23 4.48 2.23 4.49 2.23 4.49 2.23 4.48"/><path d="M2.17,5h0l0-.28H2.13l0,.13,0,.25A.08.08,0,0,1,2.17,5Z"/><path d="M2.14,4.48Z"/><path d="M2.24,4.48h-.1v.09h.1Z"/><path d="M2.22,4.67Z"/><path d="M2.23,4.58h-.1v.09h.09Z"/><path d="M9.22,3.83h0a.91.91,0,0,0,0,.17,4.26,4.26,0,0,0,0,.48h.09A4.4,4.4,0,0,1,9.3,4c0-.08,0-.16,0-.25h0a.09.09,0,0,1,0,.06Z"/><polygon points="9.24 4.49 9.25 4.48 9.24 4.49 9.24 4.49"/><path d="M9.3,5A.09.09,0,0,1,9.39,5l0-.25V4.66H9.26l0,.28Z"/><path d="M9.25,4.48h0Z"/><path d="M9.24,4.48v.1h.09V4.48H9.24Z"/><path d="M9.26,4.67h0Z"/><path d="M9.26,4.67h.09V4.57H9.25Z"/><path d="M3.1,4.86l.24,0Z"/><path d="M3.54,4.83h0Z"/><path d="M2.66,4.9l.25,0Z"/><path d="M8.13,4.84l.25,0Z"/><path d="M6.38,3.64h0Z"/><path d="M6.8,3.65h0Z"/><path d="M4.88,3.65h0Z"/><path d="M5.31,3.64h0Z"/><path d="M8.08,3.72h0Z"/><path d="M7.65,3.69h0Z"/><path d="M7.23,3.67h0Z"/><path d="M5.48,3.64h0Z"/><path d="M8.5,3.76l-.19,0Z"/><path d="M3.16,3.74,3,3.76Z"/><path d="M4.45,3.66h0Z"/><path d="M8.74,3.78h0Z"/><path d="M4,3.68H4Z"/><path d="M3.59,3.71h0Z"/><path d="M6.82,4.77h0Z"/><path d="M5.93,4.75h0Z"/><path d="M6.39,4.76h0Z"/><path d="M4,4.8H4Z"/><path d="M5.3,4.76h0Z"/><path d="M4.86,4.77h0Z"/><path d="M4.42,4.78h0Z"/><path d="M7.26,4.79h0Z"/><path d="M8.57,4.88l.24,0Z"/><path d="M7.7,4.82h0Z"/><path d="M2.62,3.79Z"/><path d="M2.35,3.82H2.26V4c0,.15,0,.3,0,.48h.09c0-.18,0-.34,0-.49S2.35,3.88,2.35,3.82Z"/><path d="M2.55,3.8h0Z"/><path d="M2.33,4.49h0Z"/><path d="M2.47,4.92l-.19,0,0-.13V4.68H2.22l0,.28Z"/><path d="M2.25,4.67h0Z"/><path d="M2.33,4.49H2.24v.1h.09Z"/><path d="M2.22,4.67Z"/><path d="M2.31,4.68V4.59H2.23v.09h.09Z"/><path d="M9.12,3.82V4a4.42,4.42,0,0,0,0,.49h.09a4.26,4.26,0,0,1,0-.48.91.91,0,0,1,0-.17h-.1Z"/><path d="M8.85,3.79h0Z"/><path d="M9.15,4.49Z"/><path d="M9.16,4.68l0,.13v.13L9,4.92l.28,0,0-.28h-.1Z"/><path d="M9.23,4.67h0Z"/><path d="M9.16,4.59h.09v-.1H9.15Z"/><path d="M9.26,4.67Z"/><path d="M9.16,4.68h.1V4.58H9.16Z"/><path class="cls-2" d="M2.79,3.78h.1l.22,0,.21,0,.23,0h.2l.24,0H7.82l.25,0h.19l.24,0,.2,0,.23,0H9c0-.46,0-.85,0-1.12H8.93l-.23,0-.23,0-.24,0L8,2.57H7.55l-.25,0H4.52l-.26,0H3.8l-.22,0-.23,0-.23,0-.23,0H2.76C2.76,2.93,2.78,3.32,2.79,3.78Z"/><path class="cls-2" d="M2.43,2.7l-.19,0,.06.34a2.43,2.43,0,0,1,.2.75h.11c0-.46,0-.84,0-1.12Z"/><path class="cls-2" d="M2.76,2.66h-.1c0,.27,0,.66,0,1.12h.09C2.78,3.32,2.76,2.93,2.76,2.66Z"/><path class="cls-2" d="M2.7,3.79c0-.46,0-.85,0-1.12H2.57c0,.28,0,.66,0,1.12H2.7Z"/><path class="cls-2" d="M9.21,3.8h.1a2.43,2.43,0,0,1,.2-.75l.07-.34-.2,0-.14,0C9.23,3,9.22,3.34,9.21,3.8Z"/><path class="cls-2" d="M9.15,2.67H9.06c0,.27,0,.66,0,1.12h.09C9.13,3.33,9.14,2.94,9.15,2.67Z"/><path class="cls-2" d="M9.12,3.79h.09c0-.46,0-.84,0-1.12H9.15C9.14,2.94,9.13,3.33,9.12,3.79Z"/><path class="cls-2" d="M3.12,2.63l.23,0Z"/><path class="cls-2" d="M8.47,2.61l.23,0Z"/><path class="cls-2" d="M6.36,2.51h0Z"/><path class="cls-2" d="M5,2.52H5Z"/><path class="cls-2" d="M6.68,2.51h0Z"/><path class="cls-2" d="M3.58,2.59l.22,0Z"/><path class="cls-2" d="M7.55,2.55h0Z"/><path class="cls-2" d="M7.11,2.53h0Z"/><path class="cls-2" d="M8,2.57l.22,0Z"/><path class="cls-2" d="M4.05,2.56h0Z"/><path class="cls-2" d="M9.06,2.66h0Z"/><path class="cls-2" d="M4.52,2.53h0Z"/><path class="cls-2" d="M2.89,2.65h0Z"/><path class="cls-2" d="M2.24,2.72h0l.19,0Z"/><path class="cls-2" d="M2.76,2.66Z"/><path class="cls-2" d="M2.66,2.67h0Z"/><path class="cls-2" d="M9.58,2.72l-.2,0,.2,0Z"/><path class="cls-2" d="M9.15,2.67Z"/><path class="cls-2" d="M9.16,2.67h0Z"/><path class="cls-2" d="M3.11,3.75l.21,0Z"/><path class="cls-2" d="M3.55,3.71h0Z"/><path class="cls-2" d="M4,3.68H4Z"/><path class="cls-2" d="M5.33,3.63h0Z"/><path class="cls-2" d="M9,3.78H9Z"/><path class="cls-2" d="M8.5,3.73l.2,0Z"/><path class="cls-2" d="M7.64,3.67h0Z"/><path class="cls-2" d="M4.43,3.66h0Z"/><path class="cls-2" d="M5.93,3.62h0Z"/><path class="cls-2" d="M2.89,3.77h0Z"/><path class="cls-2" d="M8.07,3.7h0Z"/><path class="cls-2" d="M6.77,3.63h0Z"/><path class="cls-2" d="M6.34,3.62h0Z"/><path class="cls-2" d="M7.2,3.65h0Z"/><path class="cls-2" d="M4.87,3.64h0Z"/><path class="cls-2" d="M2.79,3.78h0Z"/><path class="cls-2" d="M2.67,3.79h0Z"/><path class="cls-2" d="M9.12,3.79Z"/><path class="cls-2" d="M9.14,3.79h0Z"/><path d="M2.24,3.65h0a2.49,2.49,0,0,0-.19-.74L2,2.56H2a.1.1,0,0,1-.1-.08L2,2.93V3a2.29,2.29,0,0,1,.2.79h0A.08.08,0,0,1,2.24,3.65Z"/><path d="M9.52,2.56h0l-.07.35a2.67,2.67,0,0,0-.2.74h0a.08.08,0,0,1,.08.1h0A2.6,2.6,0,0,1,9.51,3v0l.09-.45A.09.09,0,0,1,9.52,2.56Z"/><path d="M6,2.15H6Z"/><path d="M4.55,2.17h0Z"/><path d="M6.67,2.16h0Z"/><path d="M8.55,2.27l.24,0Z"/><path d="M2.68,2.3l.25,0Z"/><path d="M8.08,2.23l.24,0Z"/><path d="M6.2,2.15h0Z"/><path d="M7.14,2.18h0Z"/><path d="M7.61,2.2l.24,0Z"/><path d="M3.62,2.22l.24,0Z"/><path d="M5,2.16H5Z"/><path d="M3.15,2.25l.24,0Z"/><path d="M4.09,2.19h0Z"/><path d="M2.4,2.32l-.18,0,.18,0Z"/><path d="M2.46,2.32h0Z"/><path d="M9.26,2.34l-.18,0h0Z"/><path d="M9.08,2.32h0Z"/><path d="M2,2.56H2V2.47l0-.09a.09.09,0,0,0-.06,0,.09.09,0,0,0,0,.07A.1.1,0,0,0,2,2.56Z"/><path d="M9.5,2.56h0a.09.09,0,0,0,.07-.15.06.06,0,0,0-.06,0v.09Z"/><path d="M2.58,2.4a31.68,31.68,0,0,1,6.31,0V2.31h-.1l-.24,0-.23,0-.24,0H7.85l-.24,0H3.86l-.24,0H3.39l-.24,0-.22,0-.25,0h-.1Z"/><path d="M2.4,2.42v-.1l-.18,0L2,2.37h0l0,.09Z"/><path d="M2.58,2.31H2.49v.1h.09Z"/><path d="M2.4,2.42h.09v-.1H2.4Z"/><path d="M9.07,2.42l.45.05V2.38h0l-.27,0-.18,0Z"/><path d="M9,2.31h-.1V2.4H9Z"/><path d="M9,2.41h.09v-.1H9Z"/><path d="M8.74,3.78l-.24,0Z"/><path d="M8.31,3.74l-.23,0Z"/><path d="M5.09,3.64h0Z"/><path d="M7.88,3.71l-.23,0Z"/><path d="M4.24,3.67h0Z"/><path d="M5.48,3.64h0Z"/><path d="M3.82,3.69l-.23,0Z"/><path d="M3,3.76l-.24,0Z"/><path d="M3.39,3.72l-.23,0Z"/><path d="M6.16,3.64h0Z"/><path d="M4.67,3.65h0Z"/><path d="M7,3.66H7Z"/><path d="M7.45,3.68h0Z"/><path d="M6.59,3.65h0Z"/><path d="M2.35,3.82Z"/><path d="M2.53,3.8Z"/><path d="M2.44,3.81Z"/><path d="M9.12,3.82Z"/><path d="M8.92,3.8h0Z"/><path d="M8.94,3.8h0Z"/><path d="M2.26,3.83s0-.06,0-.09,0-.07,0-.09h0a.08.08,0,0,0-.08.1.09.09,0,0,0,0,.06Z"/><path d="M9.23,3.65h0a.31.31,0,0,1,0,.09v.09h0l.06,0a.09.09,0,0,0,0-.06A.08.08,0,0,0,9.23,3.65Z"/><path d="M8.85,3.7a30.88,30.88,0,0,0-6.23,0v.09h.11l.24,0,.19,0,.23,0h.2l.23,0H7.65l.23,0h.2l.23,0,.19,0,.24,0h.11Z"/><path d="M2.35,3.82h.09V3.72l-.19,0s0,.06,0,.09h.09Z"/><path d="M2.62,3.7H2.53V3.8h.09Z"/><path d="M2.53,3.71H2.44v.09h.09Z"/><path d="M9,3.81h.19V3.74L9,3.72Z"/><path d="M8.85,3.79h.09V3.71H8.85Z"/><path d="M8.94,3.8H9V3.72h-.1Z"/><path d="M6.19,2.33h0Z"/><path d="M8.09,3.54l.24,0Z"/><path d="M6.2,2.33h0Z"/><path d="M7.65,3.51l.25,0Z"/><path d="M7.21,3.49h0Z"/><path d="M8.53,3.58l.23,0Z"/><path d="M4.44,3.48h0Z"/><path d="M3.63,2.4h0Z"/><path d="M7.6,2.39h0Z"/><path d="M4.09,2.38l.25,0Z"/><path d="M7.13,2.36l.25,0Z"/><path d="M8.06,2.42l.24,0Z"/><path d="M3.17,2.44l.24,0Z"/><path d="M2.72,3.6l.22,0Z"/><path d="M3.15,3.56l.23,0Z"/><path d="M2.72,2.48l.23,0Z"/><path d="M8.53,2.46l.22,0Z"/><path d="M4,3.5H4Z"/><path d="M3.58,3.53l.24,0Z"/><path d="M5,2.34H5Z"/><path d="M5.3,3.45h0Z"/><path d="M6.31,3.46h0Z"/><path d="M6.77,3.47h0Z"/><path d="M5.76,3.45h0Z"/><path d="M4.87,3.46h0Z"/><path d="M6.66,2.34h0Z"/><path d="M4.54,2.35h0Z"/><path d="M2.4,2.51h0Z"/><path d="M2.43,3.62l-.1,0a2.34,2.34,0,0,0-.2-.75l-.06-.34H2l.08.35a2.49,2.49,0,0,1,.19.74l.19,0Z"/><path d="M2.48,2.5h0Z"/><path d="M2.43,3.62Z"/><path d="M9.34,2.89a2.34,2.34,0,0,0-.2.75l-.1,0H9l.19,0a2.67,2.67,0,0,1,.2-.74l.07-.35H9.41Z"/><path d="M9.21,2.52h0Z"/><path d="M9,3.62Z"/><path d="M9.07,2.51h0Z"/><path d="M2.72,2.48l.23,0,.22,0,.24,0,.22,0h.46l.25,0H7.13l.25,0h.46l.22,0,.24,0,.23,0,.22,0h.14V2.4a31.68,31.68,0,0,0-6.31,0v.09Z"/><path d="M2.07,2.55l.19,0H2.4V2.42L2,2.47v.09Z"/><path d="M2.59,2.49V2.4H2.49V2.5Z"/><path d="M2.48,2.5h0V2.41H2.4v.09Z"/><path d="M9.21,2.52l.2,0H9.5l0-.09-.45-.05v.09Z"/><path d="M9,2.5V2.41H8.89v.09Z"/><path d="M9,2.5h.08V2.42H9V2.5Z"/><path d="M2.62,3.7a30.88,30.88,0,0,1,6.23,0V3.61H8.76l-.23,0-.2,0-.24,0H7.9l-.25,0H3.82l-.24,0h-.2l-.23,0-.21,0-.22,0h-.1Z"/><path d="M2.43,3.62l-.19,0s0,.06,0,.09l.19,0Z"/><path d="M2.62,3.61H2.53v.09h.09Z"/><path d="M2.53,3.62h-.1v.1h.09Z"/><path d="M9,3.72l.18,0a.31.31,0,0,0,0-.09L9,3.62Z"/><path d="M8.85,3.7h.09V3.62h-.1Z"/><path d="M9,3.62v.09H9v-.1H9Z"/><path class="cls-1" d="M3.17,7.65l.23,0,.23,0h.22l.23,0H7.73L8,7.6h.23l.23,0,.22,0,.23,0h.05a2.72,2.72,0,0,1,0-.28h0c0-.27,0-.55,0-.83H8.82l-.21,0-.23,0-.22,0H7.93l-.22,0H4.1l-.22,0H3.65l-.21,0-.24,0L3,6.55H2.87c0,.28,0,.56,0,.83h0a2.53,2.53,0,0,0,0,.28H3Z"/><path class="cls-1" d="M2.7,7.29c0-.24,0-.47,0-.71H2.55l-.21,0c0,.21,0,.42,0,.64h.06Z"/><path class="cls-1" d="M2.89,7.39c0-.27,0-.55,0-.83H2.78c0,.24,0,.49,0,.73h0A.11.11,0,0,1,2.89,7.39Z"/><path class="cls-1" d="M2.75,6.57H2.68c0,.24,0,.47,0,.71l-.32,0,.41,0c0-.24,0-.49,0-.73Z"/><path class="cls-1" d="M2.5,7.71l.21,0V7.48l-.33,0H2.31v.29Z"/><path class="cls-1" d="M2.38,7.44l.33,0h0Z"/><path class="cls-1" d="M2.9,7.67a2.53,2.53,0,0,1,0-.28h0a.08.08,0,0,1,0,.07.09.09,0,0,1-.06,0v.19Z"/><path class="cls-1" d="M2.32,7.25Z"/><path class="cls-1" d="M2.89,7.39h0a.11.11,0,0,0-.08-.09h0v.19a.09.09,0,0,0,.06,0A.08.08,0,0,0,2.89,7.39Z"/><path class="cls-1" d="M2.79,7.3l-.41,0H2.32v.09l.48.06Z"/><path class="cls-1" d="M2.8,7.68V7.49H2.71v.21H2.8Z"/><path class="cls-1" d="M2.31,7.44Z"/><path class="cls-1" d="M2.71,7.48H2.8V7.4l-.48-.06v.1h.07Z"/><path class="cls-1" d="M9.11,7.48v.21l.22,0,.18,0V7.44H9.44Z"/><path class="cls-1" d="M8.93,7.39h0a2.72,2.72,0,0,0,0,.28H9V7.49a.1.1,0,0,1-.09-.1Z"/><path class="cls-1" d="M9.1,7.69h0V7.48H9v.19Z"/><path class="cls-1" d="M9.5,7.44Z"/><path class="cls-1" d="M9.27,6.59H9.13c0,.24,0,.47,0,.71l.32,0H9.5l0-.64Z"/><path class="cls-1" d="M9.5,7.25Z"/><path class="cls-1" d="M9,6.56c0,.28,0,.56,0,.83A.09.09,0,0,1,9,7.3H9c0-.24,0-.49,0-.73Z"/><path class="cls-1" d="M9.11,7.48h0l.33,0Z"/><path class="cls-1" d="M8.93,7.39h0a.1.1,0,0,0,.09.1V7.3H9A.09.09,0,0,0,8.93,7.39Z"/><path class="cls-1" d="M9,7.49h.09l.33,0H9.5v-.1L9,7.4Z"/><path class="cls-1" d="M9,6.57c0,.24,0,.49,0,.73l.41,0-.32,0c0-.24,0-.47,0-.71H9Z"/><path class="cls-1" d="M9,7.3v.1l.48-.06V7.25H9.43Z"/><path class="cls-1" d="M3,7.67l.22,0Z"/><path class="cls-1" d="M6.11,7.53h0Z"/><path class="cls-1" d="M3.4,7.63l.23,0Z"/><path class="cls-1" d="M5.23,7.54h0Z"/><path class="cls-1" d="M8.64,7.65l.23,0Z"/><path class="cls-1" d="M7.73,7.58,8,7.6Z"/><path class="cls-1" d="M6.82,7.54h0Z"/><path class="cls-1" d="M7.27,7.56h0Z"/><path class="cls-1" d="M3.85,7.6l.23,0Z"/><path class="cls-1" d="M4.76,7.55h0Z"/><path class="cls-1" d="M4.31,7.57h0Z"/><path class="cls-1" d="M8.19,7.61l.23,0Z"/><path class="cls-1" d="M6.36,7.53h0Z"/><path class="cls-1" d="M2.5,7.71l.21,0h0Z"/><polygon class="cls-1" points="2.71 7.69 2.71 7.69 2.71 7.69 2.71 7.69"/><path class="cls-1" d="M9.32,7.71l-.22,0h0Z"/><polygon class="cls-1" points="9.1 7.69 9.1 7.69 9.1 7.69 9.1 7.69"/><path d="M2.08,6.45,2,6.43a.11.11,0,0,1,0-.07c0,.22,0,.46,0,.7h.1C2.06,6.85,2.07,6.64,2.08,6.45Z"/><path d="M2,7.06Z"/><path d="M2,7.58h0V7.26H2v.42H2A.08.08,0,0,1,2,7.58Z"/><path d="M2,7.25H2Z"/><path d="M2,7.07H2Z"/><path d="M2.06,7.07H2v.1h.09Z"/><path d="M2.05,7.26h0Z"/><path d="M2.05,7.26v-.1H2v.09h.09Z"/><path d="M9.43,7.57h0a.09.09,0,0,1,.08.09c0-.15,0-.28,0-.42H9.42C9.42,7.36,9.42,7.47,9.43,7.57Z"/><path d="M9.44,7.25h0Z"/><path d="M9.4,6.45c0,.19,0,.4,0,.62h.09c0-.24,0-.48,0-.7h0s0,0,0,.07Z"/><path d="M9.42,7.07h0Z"/><path d="M9.51,7.25Z"/><path d="M9.42,7.26h.09V7.16H9.42Z"/><path d="M9.43,7.07h0Z"/><path d="M9.42,7.07v.09h.09v-.1H9.42Z"/><path d="M8.47,7.66l-.26,0Z"/><path d="M8.67,7.68h0Z"/><path d="M3.26,7.64,3,7.66Z"/><path d="M8,7.63l-.26,0Z"/><path d="M7.56,7.6l-.27,0Z"/><path d="M5.74,7.54h0Z"/><path d="M2.73,7.69Z"/><path d="M7.1,7.57h0Z"/><path d="M6.65,7.56h0Z"/><path d="M5.13,7.55h0Z"/><path d="M4.18,7.58l-.27,0Z"/><path d="M4.64,7.56h0Z"/><path d="M5.74,7.54h0Z"/><path d="M3.72,7.61l-.26,0Z"/><path d="M2.14,7.75l.21,0-.21,0Z"/><path d="M2.64,7.7Z"/><path d="M2.55,7.7h0Z"/><path d="M9.33,7.75l-.21,0,.21,0Z"/><path d="M8.74,7.69h0Z"/><path d="M8.92,7.7h0Z"/><path d="M2.05,7.76V7.57H2A.08.08,0,0,0,2,7.67s0,0,0,.07Z"/><path d="M9.44,7.58h0v.19l.06,0a.11.11,0,0,0,0-.07A.09.09,0,0,0,9.44,7.58Z"/><path d="M8.75,7.59a31.86,31.86,0,0,0-6,0v.1H2.8l.2,0,.26,0h.2l.26,0h.19l.27,0H7.29l.27,0h.19l.26,0h.2l.26,0,.2,0h.07Z"/><path d="M2.06,7.76h.08l.21,0,.2,0V7.61l-.49.06v.09h0Z"/><path d="M2.73,7.59H2.64v.1h.09Z"/><path d="M2.64,7.7V7.6h-.1V7.7h.09Z"/><path d="M8.93,7.7l.19,0,.21,0h.1V7.67l-.5-.06Z"/><path d="M8.74,7.69h.1V7.6H8.75Z"/><path d="M8.84,7.7h.09V7.61H8.84Z"/><path d="M8.24,7.46l.23,0Z"/><path d="M2.78,7.5h0Z"/><path d="M3,7.48l.23,0Z"/><path d="M5.28,7.36h0Z"/><path d="M3.46,7.44h0Z"/><path d="M5.94,7.36h0Z"/><path d="M6.88,7.38h0Z"/><path d="M6.42,7.37h0Z"/><path d="M3.91,7.41h0Z"/><path d="M4.37,7.39h0Z"/><path d="M4.83,7.37h0Z"/><path d="M7.79,7.43h0Z"/><path d="M4.84,6.25h0Z"/><path d="M5.46,6.24h0Z"/><path d="M6.43,6.25h0Z"/><path d="M5.29,6.24h0Z"/><path d="M4.38,6.27h0Z"/><path d="M3,6.36l-.21,0Z"/><path d="M3.93,6.29l-.22,0Z"/><path d="M3.48,6.32l-.21,0Z"/><path d="M7.32,6.28h0Z"/><path d="M8.65,6.38l-.21,0Z"/><path d="M6.87,6.26h0Z"/><path d="M8.75,7.5Z"/><path d="M8.21,6.34,8,6.32Z"/><path d="M7.76,6.31l-.22,0Z"/><path d="M7.33,7.4h0Z"/><path d="M2.37,6.42h0Z"/><path d="M2.09,6.45h0c0,.19,0,.4,0,.62h.09c0-.22,0-.43,0-.64Z"/><path d="M2.51,6.41Z"/><path d="M2.14,7.56V7.27H2.05v.31l.28,0Z"/><path d="M2.73,7.5h0Z"/><path d="M2.15,7.08h0Z"/><path d="M2.15,7.08H2.06v.09h.1Z"/><path d="M2.54,7.52h0Z"/><path d="M2.14,7.27Z"/><path d="M2.15,7.17h-.1v.1h.09Z"/><path d="M9.15,7.54l.28,0c0-.1,0-.21,0-.31H9.33v.29Z"/><path d="M8.84,7.51Z"/><path d="M9.33,7.27h0Z"/><path d="M8.93,7.52h0Z"/><path d="M9.1,6.42h0Z"/><path d="M9.38,6.45H9.3c0,.21,0,.42,0,.64h.1c0-.22,0-.43,0-.62h0Z"/><path d="M9.32,7.08Z"/><path d="M9.33,7.27h.09v-.1H9.33Z"/><path d="M9,6.41Z"/><path d="M9.33,7.17h.09V7.07h-.1Z"/><path d="M8.75,7.59V7.5H8.7l-.23,0-.23,0L8,7.44H7.79l-.23,0H3.91l-.23,0H3.46l-.23,0L3,7.48l-.22,0h0v.09A31.86,31.86,0,0,1,8.75,7.59Z"/><path d="M2.54,7.52l-.21,0-.28,0v.1l.49-.06Z"/><path d="M2.73,7.5h-.1V7.6h.09Z"/><path d="M2.63,7.51H2.54v.09h.1Z"/><path d="M8.93,7.52v.09l.5.06v-.1l-.28,0Z"/><path d="M8.75,7.59h.09V7.51H8.75Z"/><path d="M8.84,7.51V7.6h.09V7.52H8.84Z"/><path class="cls-2" d="M3.19,6.34l.25,0h.21l.24,0h4l.25,0h.2l.25,0,.2,0H9V6.09c0-.28,0-.56,0-.83H9l-.23,0-.21,0-.24,0H8.11l-.26,0H7.67l-.28,0h-3l-.28,0H4l-.26,0h-.2l-.24,0-.21,0-.22,0h0c0,.27,0,.55,0,.83a2.62,2.62,0,0,1,0,.28H3Z"/><path class="cls-2" d="M2.55,6.41l.13,0c0-.07,0-.14,0-.22l-.28,0h0a2.64,2.64,0,0,0,0,.29Z"/><path class="cls-2" d="M2.86,6.37a2.62,2.62,0,0,0,0-.28s0,0,0,.07l-.06,0v.2Z"/><path class="cls-2" d="M2.37,6.14Z"/><path class="cls-2" d="M2.77,6.38v-.2H2.67c0,.08,0,.15,0,.22h.09Z"/><path class="cls-2" d="M2.67,6c0-.24,0-.48,0-.71h0l-.18,0c0,.18,0,.4-.05.66h0Z"/><polygon class="cls-2" points="2.38 5.96 2.38 5.96 2.39 5.96 2.38 5.96"/><path class="cls-2" d="M2.85,6.09c0-.28,0-.56,0-.83H2.74c0,.24,0,.48,0,.73h0A.08.08,0,0,1,2.85,6.09Z"/><path class="cls-2" d="M2.39,6.14l.28,0h0Z"/><path class="cls-2" d="M2.85,6.09A.08.08,0,0,0,2.77,6h0v.18l.06,0S2.86,6.11,2.85,6.09Z"/><path class="cls-2" d="M2.67,6.17h.09V6.09l-.39,0v.09h0Z"/><path class="cls-2" d="M2.65,5.28c0,.23,0,.47,0,.71L2.39,6l.37,0c0-.25,0-.49,0-.73Z"/><path class="cls-2" d="M2.76,6,2.39,6h0v.09l.39,0Z"/><path class="cls-2" d="M9.14,6.17v.22l.13,0,.2,0c0-.1,0-.2,0-.29h0Z"/><path class="cls-2" d="M9,6.09v.28H9v-.2L9,6.16A.11.11,0,0,1,9,6.09Z"/><path class="cls-2" d="M9.45,6.14Z"/><path class="cls-2" d="M9.07,6.39h.07V6.17H9.05v.2Z"/><path class="cls-2" d="M9.2,5.28h0l0,.71.28,0h0q0-.39-.06-.66Z"/><polygon class="cls-2" points="9.44 5.96 9.44 5.96 9.43 5.96 9.44 5.96"/><path class="cls-2" d="M9,5.26c0,.27,0,.55,0,.83A.09.09,0,0,1,9,6h0c0-.25,0-.49,0-.73Z"/><path class="cls-2" d="M9.14,6.17h0l.28,0Z"/><path class="cls-2" d="M9,6.09a.11.11,0,0,0,0,.07l.06,0V6H9A.09.09,0,0,0,9,6.09Z"/><path class="cls-2" d="M9.05,6.18h.09l.28,0h0V6.05l-.39,0Z"/><path class="cls-2" d="M9.06,6l.37,0L9.15,6l0-.71H9.08C9.07,5.51,9.06,5.75,9.06,6Z"/><path class="cls-2" d="M9.06,6v.09l.39,0V6h0Z"/><path class="cls-2" d="M9,5.26l-.23,0Z"/><path class="cls-2" d="M5.46,5.11h0Z"/><path class="cls-2" d="M8.54,5.22l-.24,0Z"/><path class="cls-2" d="M3.06,5.24l-.22,0Z"/><path class="cls-2" d="M6.79,5.12h0Z"/><path class="cls-2" d="M4.91,5.13h0Z"/><path class="cls-2" d="M4,5.17l-.26,0Z"/><path class="cls-2" d="M4.43,5.14l-.28,0Z"/><path class="cls-2" d="M8.11,5.19l-.26,0Z"/><path class="cls-2" d="M3.51,5.2l-.24,0Z"/><path class="cls-2" d="M7.67,5.16l-.28,0Z"/><path class="cls-2" d="M7.23,5.14h0Z"/><path class="cls-2" d="M5.43,5.11h0Z"/><path class="cls-2" d="M2.43,5.3l.18,0-.18,0Z"/><path class="cls-2" d="M9.38,5.3l-.18,0,.18,0Z"/><path class="cls-2" d="M3,6.36l.2,0Z"/><path class="cls-2" d="M4.79,6.25h0Z"/><path class="cls-2" d="M3.89,6.29h0Z"/><path class="cls-2" d="M4.34,6.27h0Z"/><path class="cls-2" d="M3.44,6.32h0Z"/><path class="cls-2" d="M8.17,6.31h0Z"/><path class="cls-2" d="M7.72,6.28h0Z"/><path class="cls-2" d="M8.62,6.34l.2,0Z"/><path class="cls-2" d="M6.12,6.23h0Z"/><path class="cls-2" d="M7.26,6.26h0Z"/><path class="cls-2" d="M6.81,6.24h0Z"/><path class="cls-2" d="M5.24,6.23h0Z"/><path class="cls-2" d="M6.36,6.23h0Z"/><path class="cls-2" d="M2.55,6.41l.13,0h0Z"/><path class="cls-2" d="M2.68,6.39Z"/><path class="cls-2" d="M9.27,6.41l-.13,0h0Z"/><path class="cls-2" d="M9.14,6.39Z"/><path d="M2.07,6.27h0c0-.11,0-.21,0-.31H2c0,.13,0,.26,0,.41A.09.09,0,0,1,2.07,6.27Z"/><path d="M2.1,6h0Z"/><path d="M2.17,5.14l-.06,0a.06.06,0,0,1,0-.07c0,.19,0,.44-.07.73h.1C2.13,5.54,2.15,5.33,2.17,5.14Z"/><path d="M2.08,5.77h0Z"/><path d="M2.06,6h0Z"/><path d="M2.1,6V5.87H2V6H2.1Z"/><path d="M2,5.77Z"/><path d="M2.12,5.78H2v.09h.09Z"/><path d="M9.39,6.27h0a.08.08,0,0,1,.08.09h0c0-.15,0-.28,0-.41H9.37C9.38,6.06,9.38,6.16,9.39,6.27Z"/><path d="M9.41,6h0Z"/><path d="M9.3,5.14c0,.19,0,.4.06.64h.09c0-.29,0-.54-.06-.73a.09.09,0,0,1,0,.07Z"/><path d="M9.36,5.78h0Z"/><path d="M9.46,6Z"/><path d="M9.37,6h.09V5.86h-.1Z"/><path d="M9.4,5.77h0Z"/><path d="M9.36,5.78v.09h.1V5.77H9.36Z"/><path d="M4.65,4.77h0Z"/><path d="M3.78,4.82l.2,0Z"/><path d="M4.21,4.79h0Z"/><path d="M5.08,4.76h0Z"/><path d="M6.17,4.76h0Z"/><polygon points="2.66 4.9 2.66 4.9 2.66 4.9 2.66 4.9"/><path d="M3.34,4.84h0Z"/><path d="M2.91,4.88l.19,0Z"/><path d="M6.61,4.77h0Z"/><path d="M5.93,4.75h0Z"/><polygon points="8.82 4.9 8.82 4.9 8.81 4.9 8.82 4.9"/><path d="M8.38,4.86l.19,0Z"/><path d="M7.93,4.83h0Z"/><path d="M7.05,4.78h0Z"/><path d="M7.49,4.8l.21,0Z"/><polygon points="2.47 4.92 2.47 4.92 2.47 4.92 2.47 4.92"/><path d="M2.66,4.9h0Z"/><path d="M2.56,4.91h0Z"/><polygon points="9 4.92 9 4.92 9 4.92 9 4.92"/><path d="M8.91,4.91Z"/><path d="M8.91,4.91h0Z"/><path d="M2.17,5.14V5h0A.08.08,0,0,0,2.09,5a.06.06,0,0,0,0,.07Z"/><path d="M9.3,5h0v.19l.06,0a.09.09,0,0,0,0-.07A.09.09,0,0,0,9.3,5Z"/><path d="M8.82,5V4.9h0l-.24,0-.19,0-.25,0H7.7l-.21,0H4l-.2,0H3.34l-.24,0-.19,0-.25,0h0V5A30.19,30.19,0,0,1,8.82,5Z"/><path d="M2.47,4.92h0L2.19,5v.1l.29,0Z"/><path d="M2.66,4.9h-.1V5h.09Z"/><path d="M2.56,4.91H2.47V5h.1Z"/><path d="M9,5l.29,0V5L9,4.92H9Z"/><path d="M8.82,5h.09v-.1H8.82Z"/><path d="M8.91,5H9v-.1H8.91Z"/><path d="M3.27,6.34,3,6.36Z"/><path d="M8.44,6.36l-.23,0Z"/><path d="M2.7,6.39Z"/><path d="M6.64,6.25h0Z"/><path d="M7.09,6.27h0Z"/><path d="M6.19,6.24h0Z"/><path d="M8,6.32H8Z"/><path d="M7.54,6.29h0Z"/><path d="M8.65,6.38h0Z"/><path d="M3.71,6.31h0Z"/><path d="M4.16,6.28h0Z"/><path d="M4.61,6.26h0Z"/><path d="M5.46,6.24h0Z"/><path d="M5.05,6.25h0Z"/><path d="M2.17,6.44l.2,0-.2,0Z"/><path d="M2.6,6.4Z"/><path d="M2.58,6.4h0Z"/><path d="M9.3,6.44l-.2,0,.2,0Z"/><path d="M8.78,6.39h0Z"/><path d="M8.89,6.4h0Z"/><path d="M2.08,6.45V6.27h0A.09.09,0,0,0,2,6.36a.11.11,0,0,0,0,.07Z"/><path d="M9.4,6.27h0v.18l.06,0s0,0,0-.07A.08.08,0,0,0,9.4,6.27Z"/><path d="M8.78,6.3a31,31,0,0,0-6.09,0v.09h.12l.21,0,.24,0,.21,0h.23l.22,0H7.54l.22,0H8l.22,0,.23,0,.21,0h.13Z"/><path d="M2.17,6.44h0l.2,0h.14v-.1l-.43.05v.09h.09Z"/><path d="M2.69,6.3H2.6v.1h.1Z"/><path d="M2.6,6.4V6.3H2.51v.1H2.6Z"/><path d="M9,6.41H9.1l.2,0h.1V6.36L9,6.31Z"/><path d="M8.78,6.39h.09V6.3H8.78Z"/><path d="M8.87,6.4H9v-.1H8.87Z"/><path d="M8.2,6.15l.25,0Z"/><path d="M6.85,6.08h0Z"/><path d="M6.4,6.06h0Z"/><path d="M7.75,6.12l.25,0Z"/><path d="M3.54,5l-.2,0Z"/><path d="M7.31,6.1h0Z"/><path d="M8.58,5.07l-.21,0Z"/><path d="M8.78,6.2Z"/><path d="M6.22,4.94h0Z"/><path d="M4.85,5h0Z"/><path d="M6.74,5h0Z"/><path d="M5.29,4.94h0Z"/><path d="M5.29,6.06h0Z"/><path d="M7.21,5h0Z"/><path d="M8.13,5l-.2,0Z"/><path d="M7.68,5h0Z"/><path d="M6,6.06H6Z"/><path d="M3.93,6.11h0Z"/><path d="M4,5H4Z"/><path d="M4.38,6.08h0Z"/><polygon points="2.66 5.09 2.66 5.09 2.67 5.09 2.66 5.09"/><path d="M3.1,5.05l-.21,0Z"/><path d="M2.82,6.19h0Z"/><path d="M4.83,6.07h0Z"/><path d="M4.41,5h0Z"/><path d="M3,6.17l.25,0Z"/><path d="M3.48,6.14l.24,0Z"/><polygon points="8.81 5.09 8.81 5.09 8.81 5.09 8.81 5.09"/><path d="M2.18,6.26A2.64,2.64,0,0,1,2.2,6H2.1c0,.1,0,.2,0,.31l.29,0Z"/><path d="M2.69,6.2h0Z"/><path d="M2.57,6.21h0Z"/><path d="M2.2,6Z"/><path d="M2.44,5.11h0Z"/><path d="M2.19,5.14h0c0,.19,0,.4,0,.64h.09c0-.25,0-.47,0-.65Z"/><path d="M2.21,5.78h0Z"/><path d="M2.57,5.1Z"/><path d="M2.2,5.88H2.11V6h.1Z"/><path d="M2.57,5.1h0Z"/><path d="M2.21,5.78H2.12v.09H2.2Z"/><path d="M9.1,6.24l.29,0c0-.11,0-.21,0-.31H9.28c0,.09,0,.19,0,.29Z"/><path d="M8.87,6.21Z"/><path d="M8.9,6.21h0Z"/><path d="M9.28,6h0Z"/><path d="M9.28,5.14H9.21c0,.18,0,.4.06.65h.09c0-.24,0-.45-.06-.64h0Z"/><path d="M9,5.11H9Z"/><path d="M9.27,5.78Z"/><path d="M8.81,5.09h0Z"/><path d="M9.28,6h.09V5.87H9.27Z"/><path d="M8.9,5.1h0Z"/><path d="M9.27,5.88h.09V5.78H9.27Z"/><path d="M8.82,5A30.19,30.19,0,0,0,2.66,5v.09h0l.22,0,.21,0,.24,0,.2,0H4l.28,0h.15l.33,0h2l.32,0h.15L7.5,5h.43l.2,0,.24,0,.21,0,.23,0h0Z"/><path d="M2.26,5.13h0l.18,0h0V5l-.29,0v.09h.09Z"/><path d="M2.66,5H2.57V5.1h.09Z"/><path d="M2.57,5h-.1v.09h.09Z"/><path d="M9,5.11H9l.18,0H9.3V5.05L9,5Z"/><path d="M8.81,5.09H8.9V5H8.82Z"/><path d="M8.9,5.1H9V5H8.91Z"/><path d="M8.78,6.3V6.2H8.65l-.2,0-.25,0H8l-.25,0H7.31l-.22,0H4.38l-.21,0H3.72l-.24,0H3.27L3,6.17l-.2,0H2.69v.1A31,31,0,0,1,8.78,6.3Z"/><path d="M2.51,6.22l-.13,0-.29,0v.09l.43-.05Z"/><path d="M2.69,6.2H2.6V6.3h.09Z"/><path d="M2.6,6.21H2.51v.09H2.6Z"/><path d="M9,6.22v.09l.43.05V6.27l-.29,0Z"/><path d="M8.78,6.3h.09V6.21H8.78Z"/><path d="M8.87,6.21V6.3H9V6.22h-.1Z"/><path class="cls-1" d="M1.93,13.62,2.1,13h0l-.17,0h0l-.16,0h0l-.15,0h0l-.15,0h0l-.14,0h0l-.12,0H.79v.68Z"/><path class="cls-1" d="M1,12.77H1Z"/><path class="cls-1" d="M1.18,12.79h0Z"/><path class="cls-1" d="M.9,12.76h0Z"/><path class="cls-1" d="M1.35,12.81h0Z"/><polygon class="cls-1" points="2.1 12.96 2.09 12.96 2.1 12.96 2.1 12.96"/><path class="cls-1" d="M1.7,12.87h0Z"/><path class="cls-1" d="M1.53,12.84h0Z"/><path class="cls-1" d="M1.89,12.91h0Z"/><polygon class="cls-1" points="0.79 12.75 0.79 12.75 0.8 12.75 0.79 12.75"/><path d="M2.08,12.8H2l-.18.74-1.3-.21v-.77h0a.08.08,0,0,1-.08-.08h0v.85a.11.11,0,0,0,.08.09l1.3.21h0a.09.09,0,0,0,.09-.07l.21-.83S2.11,12.79,2.08,12.8Z"/><path d="M1.74,12.55h0Z"/><path d="M1.85,12.58h0Z"/><path d="M1.51,12.51h0Z"/><path d="M2,12.61l0,0Z"/><path d="M1.63,12.53h0Z"/><path d="M.76,12.41h0Z"/><path d="M.84,12.41h0Z"/><path d="M.92,12.42h0Z"/><path d="M.69,12.4h0Z"/><path d="M.59,12.39h0Z"/><path d="M1,12.43H1Z"/><path d="M1.09,12.44h0Z"/><path d="M1.18,12.45h0Z"/><path d="M2.09,12.65l0,0v0l0,.09h.07s0,0,0-.06A.08.08,0,0,0,2.09,12.65Z"/><path d="M.52,12.57h0v-.09h0l0-.07h0a.09.09,0,0,0,0,.07h0A.08.08,0,0,0,.52,12.57Z"/><path d="M2,12.61l0,0H1.81l-.07,0H1.49l-.21,0h0l-.1,0H.49l0,.07h0A7.75,7.75,0,0,1,2,12.72v0l0,0,0,0Z"/><path d="M1.93,12.79l-.17.66L.62,13.26v-.68H.53v.77l1.3.21L2,12.81H2Z"/><path d="M1,12.62l.14,0Z"/><path d="M1.56,12.7l.16,0Z"/><path d="M1.21,12.64l.15,0Z"/><path d="M1.38,12.67l.15,0Z"/><path d="M.63,12.58h0Z"/><path d="M.76,12.59h0Z"/><path d="M1.75,12.74l.17,0Z"/><path d="M.89,12.6l.12,0Z"/><path d="M.53,12.57H.89l.12,0H1l.14,0h0l.15,0h0l.15,0h0l.16,0h0l.17,0h0l.08,0H2l0-.09a7.75,7.75,0,0,0-1.51-.24Z"/><path class="cls-1" d="M11,13.43v-.68h-.27l-.13,0h0l-.13,0h0l-.15,0h0l-.15,0h0l-.17,0h0l-.18,0h0l.16.66Z"/><path class="cls-1" d="M10.89,12.76h0Z"/><path class="cls-1" d="M10.09,12.87h0Z"/><polygon class="cls-1" points="11.03 12.75 11.02 12.75 11.03 12.75 11.03 12.75"/><path class="cls-1" d="M10.26,12.84h0Z"/><path class="cls-1" d="M10.43,12.82h0Z"/><path class="cls-1" d="M10.6,12.79h0Z"/><polygon class="cls-1" points="9.72 12.96 9.72 12.96 9.72 12.96 9.72 12.96"/><path class="cls-1" d="M9.9,12.91h0Z"/><path class="cls-1" d="M10.76,12.77h0Z"/><path d="M11,12.57h0v.77l-1.31.21-.18-.74H9.39a.07.07,0,0,1,0-.06l.2.83a.09.09,0,0,0,.09.07h0l1.3-.21a.09.09,0,0,0,.08-.09v-.85h0A.09.09,0,0,1,11,12.57Z"/><path d="M9.66,12.57h0Z"/><path d="M9.55,12.59h0Z"/><path d="M10,12.5h0Z"/><path d="M10.68,12.41h0Z"/><path d="M10.22,12.46h0Z"/><path d="M10.42,12.44h0Z"/><path d="M9.77,12.54h0Z"/><path d="M10.09,12.49h0Z"/><path d="M10.33,12.45h0Z"/><path d="M10.51,12.43h0Z"/><path d="M10.6,12.42h0Z"/><path d="M10.88,12.39Z"/><path d="M10.82,12.4h0Z"/><path d="M10.75,12.4h0Z"/><path d="M9.88,12.52h0Z"/><path d="M9.39,12.8h.07l0-.09v0l0,0a.08.08,0,0,0,0,.09A.07.07,0,0,0,9.39,12.8Z"/><path d="M11,12.41h0a.28.28,0,0,0,0,.07h0v.09h0a.09.09,0,0,0,.09-.08h0A.09.09,0,0,0,11,12.41Z"/><path d="M10.88,12.39h-.69l-.1,0H9.73l-.07,0H9.51l-.1,0,0,0,0,0v0A7.53,7.53,0,0,1,11,12.48h0a.28.28,0,0,1,0-.07h-.11Z"/><path d="M10.61,12.6h0Z"/><path d="M9.75,12.74l.17,0Z"/><path d="M10.85,13.26l-1.14.19-.16-.66-.09,0h0l.18.74L11,13.34v-.77h-.1Z"/><path d="M10.74,12.59h0Z"/><path d="M10.3,12.64l.13,0Z"/><path d="M10.46,12.62l.13,0Z"/><path d="M9.55,12.78l.17,0Z"/><path d="M10.11,12.67l.15,0Z"/><path d="M9.94,12.7l.15,0Z"/><path d="M9.46,12.81h0l.09,0h0l.17,0h0l.17,0h0l.15,0h0l.15,0h0l.13,0h0l.13,0H11v-.09a7.53,7.53,0,0,0-1.51.24Z"/><path class="cls-2" d="M8.85,10.9c0-.1,0-.24,0-.4l-.24,0h0l-.42,0H3.65l-.25,0H3v.4c0,.13,0,.27,0,.42a3,3,0,0,1,0,.33c.57-.06,2-.19,3-.19s2.43.13,3,.19a2.88,2.88,0,0,1-.05-.33C8.86,11.17,8.85,11,8.85,10.9Z"/><path class="cls-2" d="M2.78,10.9c0-.1,0-.23,0-.38h0l-.15,0H2.48c0,.25.08.47.12.64l.16,0C2.77,11.1,2.78,11,2.78,10.9Z"/><path class="cls-2" d="M2.87,10.51h0c0,.16,0,.29,0,.39s0,.22,0,.32h0a.08.08,0,0,1,.08.1c0-.15,0-.29,0-.42v-.4H2.87Z"/><path class="cls-2" d="M2.78,10.52h0c0,.15,0,.28,0,.38s0,.2,0,.31l-.16,0h0l.26,0c0-.1,0-.21,0-.32s0-.23,0-.39H2.78Z"/><path class="cls-2" d="M2.64,11.38c0,.12,0,.21.07.27a2,2,0,0,0,0-.26Z"/><path class="cls-2" d="M2.64,11.38Z"/><path class="cls-2" d="M2.91,11.38l-.06,0h0a2,2,0,0,1,0,.26h.1a3,3,0,0,0,0-.33A.09.09,0,0,1,2.91,11.38Z"/><path class="cls-2" d="M2.86,11.22h0a.28.28,0,0,0,0,.09s0,.06,0,.09h0l.06,0a.09.09,0,0,0,0-.06A.08.08,0,0,0,2.86,11.22Z"/><path class="cls-2" d="M2.62,11.28l.23,0a.28.28,0,0,1,0-.09l-.26,0Z"/><path class="cls-2" d="M2.84,11.4H2.75a2,2,0,0,1,0,.26v0H2.8a2,2,0,0,0,0-.26Z"/><path class="cls-2" d="M2.62,11.28a.44.44,0,0,1,0,.1h.2s0-.06,0-.09Z"/><path class="cls-2" d="M9.07,11.39l0,.26c0-.06,0-.15.07-.27Z"/><path class="cls-2" d="M9,11.4l-.06,0,0-.06a2.88,2.88,0,0,0,.05.33H9c0-.08,0-.17,0-.26Z"/><path class="cls-2" d="M9,11.4H9c0,.09,0,.18,0,.26H9.1v0l0-.26Z"/><path class="cls-2" d="M9.05,11.21l.16,0c0-.17.08-.39.12-.64l-.29,0v.38C9,11,9,11.1,9.05,11.21Z"/><path class="cls-2" d="M9,11.22H9c0-.1,0-.21,0-.32v-.39H8.86c0,.16,0,.3,0,.4s0,.27,0,.42A.1.1,0,0,1,9,11.22Z"/><path class="cls-2" d="M9.07,11.39Z"/><path class="cls-2" d="M9,11.22H9a.1.1,0,0,0-.08.1l0,.06.06,0H9v-.09A.28.28,0,0,1,9,11.22Z"/><path class="cls-2" d="M9.17,11.38a.3.3,0,0,0,0-.1l-.22,0v.09h.2Z"/><path class="cls-2" d="M9,10.9c0,.11,0,.22,0,.32l.25,0h0l-.16,0c0-.11,0-.21,0-.31v-.38H9Z"/><path class="cls-2" d="M9,11.31l.22,0,0-.09-.25,0A.28.28,0,0,0,9,11.31Z"/><path class="cls-2" d="M7.72,10.41h0Z"/><path class="cls-2" d="M6.85,10.35h0Z"/><path class="cls-2" d="M5.91,10.32h0Z"/><path class="cls-2" d="M4.78,10.36h0Z"/><path class="cls-2" d="M5.74,10.33h0Z"/><path class="cls-2" d="M5.47,10.33h0Z"/><path class="cls-2" d="M5.6,10.33h0Z"/><path class="cls-2" d="M8.1,10.44h0Z"/><path class="cls-2" d="M5.33,10.34h0Z"/><path class="cls-2" d="M5.06,10.35h0Z"/><path class="cls-2" d="M5.19,10.34h0Z"/><path class="cls-2" d="M4.92,10.35h0Z"/><path class="cls-2" d="M8.19,10.44h0Z"/><path class="cls-2" d="M4.31,10.39h0Z"/><path class="cls-2" d="M7.32,10.38h0Z"/><path class="cls-2" d="M7.45,10.39h0Z"/><path class="cls-2" d="M7.59,10.4h0Z"/><path class="cls-2" d="M4.61,10.37h0Z"/><path class="cls-2" d="M8,10.43H8Z"/><path class="cls-2" d="M7,10.36H7Z"/><path class="cls-2" d="M7.18,10.37h0Z"/><path class="cls-2" d="M3.26,10.47h0Z"/><path class="cls-2" d="M6.29,10.33h0Z"/><path class="cls-2" d="M3.15,10.48h0Z"/><path class="cls-2" d="M6.56,10.34h0Z"/><path class="cls-2" d="M3.39,10.46h0Z"/><path class="cls-2" d="M3.77,10.43h0Z"/><path class="cls-2" d="M7.86,10.42h0Z"/><path class="cls-2" d="M3.65,10.44l-.25,0Z"/><path class="cls-2" d="M4.46,10.38h0Z"/><path class="cls-2" d="M6.16,10.33h0Z"/><path class="cls-2" d="M3.9,10.42h0Z"/><path class="cls-2" d="M3.05,10.49h0Z"/><path class="cls-2" d="M4,10.41H4Z"/><path class="cls-2" d="M4.17,10.4h0Z"/><path class="cls-2" d="M8.62,10.48h0Z"/><path class="cls-2" d="M6.43,10.33h0Z"/><path class="cls-2" d="M6,10.33H6Z"/><path class="cls-2" d="M6.7,10.34h0Z"/><path class="cls-2" d="M2.61,10.54h0Z"/><path class="cls-2" d="M2.77,10.52l-.15,0Z"/><path class="cls-2" d="M2.55,10.54h0Z"/><polygon class="cls-2" points="2.48 10.55 2.48 10.55 2.49 10.55 2.48 10.55"/><path class="cls-2" d="M3,10.5H3Z"/><path class="cls-2" d="M2.85,10.51h0Z"/><path d="M5.74,11.38c-1,0-2.48.14-3,.19,0,0,0,.07,0,.1.53-.06,2-.2,3.05-.2s2.51.14,3,.2a.44.44,0,0,0,0-.1C8.21,11.52,6.77,11.38,5.74,11.38Z"/><path d="M2.22,10.39a.1.1,0,0,1-.07,0,.06.06,0,0,1,0-.06q.06.4.12.69h.09c0-.17-.07-.38-.11-.62Z"/><path d="M2.33,11h0Z"/><path d="M2.37,11.2H2.28c.06.28.11.43.11.44a.11.11,0,0,0,.1.06h0l0-.1h0Z"/><path d="M2.37,11.2Z"/><path d="M2.61,11.58a.3.3,0,0,1,0,.1h.1s0-.06,0-.1Z"/><path d="M2.33,11H2.24l0,.09h.09Z"/><path d="M2.49,11.69h.1a.3.3,0,0,0,0-.1H2.52Z"/><path d="M2.35,11.1H2.26l0,.1h.09Z"/><path d="M9,11.69a.09.09,0,0,0,.09-.06s.05-.16.12-.44H9.1a4,4,0,0,1-.11.4H9a.3.3,0,0,0,0,.1H9Z"/><path d="M8.86,11.58h-.1a.44.44,0,0,1,0,.1h.1S8.87,11.62,8.86,11.58Z"/><path d="M9,11.59h-.1s0,.07,0,.1H9A.3.3,0,0,1,9,11.59Z"/><path d="M9.27,10.39h0c0,.24-.07.45-.11.62h.1q.06-.29.12-.69a.09.09,0,0,1,0,.06Z"/><path d="M9.1,11.2h0Z"/><path d="M9.1,11.2h.1l0-.1h-.1S9.11,11.17,9.1,11.2Z"/><path d="M9.14,11Z"/><path d="M9.12,11.1h.1a.29.29,0,0,1,0-.09h-.1S9.13,11.07,9.12,11.1Z"/><path d="M5.48,10h0Z"/><path d="M5.08,10h0Z"/><path d="M4.94,10h0Z"/><path d="M2.9,10.14h0Z"/><path d="M5.35,10h0Z"/><path d="M5.21,10h0Z"/><path d="M3.66,10.07h0Z"/><path d="M5.61,10h0Z"/><path d="M3.54,10.08h0Z"/><path d="M3.78,10.06h0Z"/><path d="M3.43,10.09l-.41,0Z"/><path d="M3,10.13H3Z"/><path d="M4.05,10h0Z"/><path d="M4.8,10h0Z"/><path d="M4.32,10h0Z"/><path d="M4.18,10h0Z"/><path d="M4.65,10h0Z"/><path d="M4.47,10h0Z"/><path d="M3.91,10.05h0Z"/><path d="M7.5,10.05h0Z"/><path d="M7.77,10.07h0Z"/><path d="M8,10.09l.65.06h0Z"/><path d="M6.74,10h0Z"/><path d="M7.06,10h0Z"/><path d="M2.78,10.15h0Z"/><path d="M6.6,10h0Z"/><path d="M6.88,10h0Z"/><path d="M7.36,10h0Z"/><path d="M6.05,10h0Z"/><path d="M6.18,10h0Z"/><path d="M7.22,10h0Z"/><path d="M5.9,10h0Z"/><path d="M7.64,10.06h0Z"/><path d="M8,10.09H8Z"/><path d="M7.9,10.08h0Z"/><path d="M6.32,10h0Z"/><path d="M6.46,10h0Z"/><path d="M2.5,10.18h0Z"/><path d="M2.57,10.17h0Z"/><path d="M2.73,10.15h0Z"/><path d="M2.69,10.16h0Z"/><path d="M2.6,10.16Z"/><path d="M2.65,10.16h0Z"/><path d="M8.87,10.16l.32,0h0l-.32,0Z"/><path d="M8.69,10.15Z"/><path d="M8.78,10.16h0Z"/><path d="M2.22,10.39h0v-.18h0a.08.08,0,0,0-.07.1.06.06,0,0,0,0,.06A.1.1,0,0,0,2.22,10.39Z"/><path d="M9.28,10.21h0a.28.28,0,0,0,0,.09l0,.09h0l.05,0a.09.09,0,0,0,0-.06A.1.1,0,0,0,9.28,10.21Z"/><path d="M8,10.09H3.43l-.41,0H2.78v.09c.72-.07,2-.18,3-.18s2.23.11,2.95.18v-.09Z"/><path d="M2.6,10.26v-.1H2.5l-.28,0h0v.09h0Z"/><path d="M2.73,10.15h0v.09h.1v-.09Z"/><path d="M2.62,10.16h0v.1h.09v-.09H2.62Z"/><path d="M8.87,10.16v.1l.37,0h0a.28.28,0,0,1,0-.09H9.19Z"/><path d="M8.78,10.16H8.69v.09h.09Z"/><path d="M8.78,10.25h.09v-.1H8.78Z"/><path d="M6.45,10.17h0Z"/><path d="M6.31,10.17h0Z"/><path d="M3.48,10.27Z"/><path d="M5.91,10.16h0Z"/><path d="M8.44,10.31l.25,0h0Z"/><path d="M2.89,10.32h0Z"/><path d="M3,10.31H3Z"/><path d="M3.77,10.25h0Z"/><path d="M3.23,10.29h0Z"/><path d="M4.33,10.21h0Z"/><path d="M6,10.16H6Z"/><polygon points="2.79 10.33 2.79 10.33 2.79 10.33 2.79 10.33"/><path d="M4.19,10.22h0Z"/><path d="M7.75,10.25h0Z"/><path d="M5.61,10.15h0Z"/><path d="M7.62,10.24h0Z"/><path d="M3.11,10.3h0Z"/><path d="M6.18,10.16h0Z"/><path d="M3.64,10.26h0Z"/><path d="M4.94,10.17h0Z"/><path d="M3.91,10.24h0Z"/><path d="M6.73,10.18h0Z"/><path d="M7.34,10.22h0Z"/><path d="M7.88,10.26h0Z"/><path d="M7,10.2H7Z"/><path d="M7.19,10.21h0Z"/><path d="M5.74,11.29c-1,0-2.44.13-3,.19,0,0,0,.06,0,.09.55-.05,2-.19,3-.19s2.47.14,3,.19c0,0,0-.06,0-.09C8.17,11.42,6.75,11.29,5.74,11.29Z"/><path d="M8.44,10.31l-.42,0Z"/><path d="M6.87,10.19h0Z"/><path d="M6.59,10.18h0Z"/><path d="M8,10.27H8Z"/><path d="M4.47,10.2h0Z"/><path d="M5.08,10.17h0Z"/><path d="M5.22,10.16h0Z"/><path d="M4.79,10.18h0Z"/><path d="M4.63,10.19h0Z"/><path d="M7.48,10.23h0Z"/><path d="M5.48,10.16h0Z"/><path d="M5.35,10.16h0Z"/><path d="M4.05,10.23h0Z"/><path d="M2.31,10.38H2.22c0,.24.08.45.11.62h.1C2.39,10.84,2.35,10.63,2.31,10.38Z"/><polygon points="2.6 10.35 2.6 10.35 2.6 10.35 2.6 10.35"/><path d="M2.35,10.38h0Z"/><path d="M2.45,10.36h0Z"/><path d="M2.4,10.37h0Z"/><polygon points="2.78 10.33 2.79 10.33 2.79 10.33 2.78 10.33"/><polygon points="2.69 10.34 2.7 10.34 2.69 10.34 2.69 10.34"/><polygon points="2.6 10.35 2.61 10.35 2.6 10.35 2.6 10.35"/><path d="M2.43,11h0Z"/><polygon points="2.68 10.34 2.69 10.34 2.69 10.34 2.68 10.34"/><path d="M2.37,11.2l.11.4h0s0-.07,0-.11,0-.15-.07-.27Z"/><path d="M2.37,11.2Z"/><path d="M2.63,11.49a.29.29,0,0,1,0,.09h.1s0-.06,0-.09Z"/><path d="M2.43,11h-.1l0,.09h.1Z"/><path d="M2.55,11.5v0s0,.08,0,.11h.09a.29.29,0,0,0,0-.09Z"/><path d="M2.45,11.11h-.1l0,.1h.1Z"/><path d="M9.1,11.2H9c0,.12-.05.21-.07.27l0,.11H9A4,4,0,0,0,9.1,11.2Z"/><path d="M8.75,11.48s0,.06,0,.09h.1s0-.06,0-.09Z"/><path d="M8.93,11.48v0H8.84s0,.06,0,.09H9Z"/><path d="M9.23,10.39l-.36,0h0l.29,0c0,.25-.08.46-.12.64h.1c0-.17.07-.38.11-.62Z"/><path d="M8.78,10.34h0Z"/><path d="M9,11.21H9Z"/><path d="M9,11.21h.1s0-.06,0-.1H9A.3.3,0,0,1,9,11.21Z"/><path d="M8.78,10.34h0Z"/><path d="M9,11H9Z"/><path d="M9,11.11h.1s0-.06,0-.09H9A.29.29,0,0,1,9,11.11Z"/><path d="M8.69,10.24c-.72-.07-2-.18-2.95-.18s-2.23.11-2.95.18v.09h.44l.25,0H8l.42,0h0l.25,0Z"/><path d="M2.32,10.38H2.6v-.09l-.37,0h0v.09h.1Z"/><path d="M2.69,10.34h.1v-.09h-.1Z"/><path d="M2.6,10.35h.09v-.09H2.6Z"/><path d="M8.87,10.26v.09l.36,0h0l0-.09h0Z"/><path d="M8.69,10.24v.09h.09v-.09Z"/><path d="M8.78,10.25v.09h.09v-.09Z"/><path class="cls-1" d="M5.92.39c.06,0,.63.12,1.32.3L7.11.36H4.7L4.57.69C5.27.51,5.83.4,5.89.39Z"/><path class="cls-1" d="M7.29.9C6.75.75,6.24.64,5.91.57S5.07.75,4.52.9a2.54,2.54,0,0,0,1.39.36A2.53,2.53,0,0,0,7.29.9Z"/><path class="cls-1" d="M7.28.8l0-.11C6.55.51,6,.4,5.92.39h0c-.06,0-.62.12-1.32.3l0,.11C5.28.6,5.91.48,5.91.48S6.53.6,7.28.8Z"/><path class="cls-1" d="M7.29.9l0,0,0-.08C6.53.6,5.91.48,5.91.48S5.28.6,4.53.8l0,.08,0,0C5.07.75,5.58.64,5.91.57S6.75.75,7.29.9Z"/><path d="M4.47.09H7l.18.46.11,0L7.09.06A.09.09,0,0,0,7,0H4.47a.1.1,0,0,0-.09.06l-.2.52.11,0Z"/><path d="M5.74,1.27A2.53,2.53,0,0,0,7.32.81s0,0,0,0l-.1,0a2.55,2.55,0,0,1-1.5.42A2.57,2.57,0,0,1,4.23.76l-.09,0a0,0,0,0,0,0,0A2.47,2.47,0,0,0,5.74,1.27Z"/><path d="M7.22.66l.11,0,0-.11-.11,0Z"/><path d="M4.25.66l0-.11-.11,0,0,.11Z"/><path d="M7.24.76l.1,0a.11.11,0,0,0,0-.08v0l-.11,0,0,.08Z"/><path d="M4.14.79l.09,0v0l0-.08-.11,0v0A.08.08,0,0,0,4.14.79Z"/><path d="M4.53.18H6.94l.13.34.11,0L7,.09H4.47L4.29.55l.11,0Z"/><path d="M7.24.76l-.12,0a2.53,2.53,0,0,1-1.38.36A2.54,2.54,0,0,1,4.35.73l-.12,0a2.57,2.57,0,0,0,1.51.42A2.55,2.55,0,0,0,7.24.76Z"/><path d="M7.11.63l.11,0,0-.11-.11,0Z"/><path d="M4.4.52l-.11,0,0,.11.11,0Z"/><path d="M7.14.71l0,0,.12,0,0,0,0-.08-.11,0Z"/><path d="M4.23.76l.12,0,0,0,0-.08-.11,0,0,.08Z"/></g></g></svg>