<svg xmlns="http://www.w3.org/2000/svg" viewBox="0 0 6.7 13.64"><defs><style>.cls-1{fill:#875430;}.cls-2{fill:#7f7f7f;}.cls-3{fill:#fff;}</style></defs><title>Asset 6</title><g id="Layer_2" data-name="Layer 2"><g id="_1" data-name=" 1"><path class="cls-1" d="M6.68,3.3l-.2-2.08H4.05V3a.37.37,0,0,1-.37.36H3.62L4.05,7.2l.36,5.35H6.68Z"/><path class="cls-1" d="M3,3.3V1.22H.56L.35,3.31v9.24H2.62L3,7.2l.43-3.81H3.09A.09.09,0,0,1,3,3.3Z"/><path d="M3.35,4l.34,3.08.44,6.29-.06-.87a.07.07,0,0,1,0-.07l.06,0L3.78,7,3.36,3.22h0L2.91,7l-.36,5.34.06,0a.19.19,0,0,1,0,.07L3,7.05Z"/><path d="M.09,12.37h0V3.13L.3,1.05A.08.08,0,0,1,.22,1h0L0,3.13v9.34A.1.1,0,0,1,.09,12.37Z"/><path d="M6.64,13.42a4.09,4.09,0,0,1-1.34.22A4.09,4.09,0,0,0,6.64,13.42Z"/><path d="M6.4,1.05l.21,2.08v9.24h0a.1.1,0,0,1,.09.1V3.12L6.48,1A.09.09,0,0,1,6.4,1.05Z"/><polygon points="6.3 1.05 6.51 3.13 6.51 12.37 6.61 12.37 6.61 3.13 6.4 1.05 6.39 1.05 6.3 1.05"/><polygon points="2.82 7.03 2.45 12.37 2.54 12.37 2.55 12.38 2.91 7.04 3.34 3.22 3.25 3.22 2.82 7.03"/><polygon points="4.24 12.37 3.87 7.03 3.45 3.22 3.36 3.22 3.78 7.04 4.15 12.38 4.16 12.37 4.24 12.37"/><polygon points="0.18 3.14 0.39 1.05 0.31 1.05 0.3 1.05 0.09 3.13 0.09 12.37 0.18 12.37 0.18 3.14"/><rect class="cls-2" x="5.78" y="0.36" width="0.68" height="0.68"/><rect class="cls-2" x="0.57" y="0.36" width="0.68" height="0.68"/><rect class="cls-2" x="1.44" y="0.36" width="1.55" height="0.68"/><rect class="cls-2" x="4.05" y="0.36" width="1.55" height="0.68"/><polygon points="0.22 0.09 0.22 0.96 0.22 0.95 0.22 0.09"/><path d="M1.09,1H.4v.09h.79A.09.09,0,0,1,1.09,1Z"/><path d="M5.43,1H3.88v.09H5.52A.09.09,0,0,1,5.43,1Z"/><path d="M2.82,1H1.27a.09.09,0,0,1-.09.09H2.82V1Z"/><path d="M5.61,1a.09.09,0,0,1-.09.09H6.3V1H5.61Z"/><path d="M.3,1.05v-1h.78A.09.09,0,0,1,1.18,0H.31A.09.09,0,0,0,.22.09V1h0A.08.08,0,0,0,.3,1.05Z"/><path d="M3.88.09H5.43A.09.09,0,0,1,5.52,0H3.78A.1.1,0,0,1,3.88.09Z"/><path d="M1.27.09H2.82A.09.09,0,0,1,2.91,0H1.18A.09.09,0,0,1,1.27.09Z"/><path d="M5.61.09h.78v1A.09.09,0,0,0,6.48,1V.09A.09.09,0,0,0,6.39,0H5.52A.09.09,0,0,1,5.61.09Z"/><polygon points="6.3 0.97 6.3 1.05 6.39 1.05 6.4 1.05 6.39 0.96 6.3 0.96 6.3 0.97"/><polygon points="0.39 1.05 0.4 0.96 0.31 0.96 0.31 0.96 0.3 1.05 0.31 1.05 0.39 1.05"/><polygon points="1.09 0.87 0.4 0.87 0.4 0.96 0.4 0.96 1.09 0.96 1.09 0.87"/><polygon points="5.61 0.87 5.61 0.96 6.3 0.96 6.3 0.18 6.3 0.18 6.3 0.87 5.61 0.87"/><rect x="3.88" y="0.87" width="1.55" height="0.09"/><rect x="1.27" y="0.87" width="1.55" height="0.09"/><polygon points="6.3 0.18 6.3 0.18 6.3 0.96 6.39 0.96 6.39 0.09 5.61 0.09 5.61 0.18 6.3 0.18"/><rect x="3.88" y="0.09" width="1.55" height="0.09"/><polygon points="0.4 0.96 0.4 0.96 0.4 0.87 0.4 0.18 1.09 0.18 1.09 0.09 0.31 0.09 0.31 0.96 0.31 0.96 0.4 0.96"/><rect x="1.27" y="0.09" width="1.55" height="0.09"/><rect class="cls-3" x="3.18" y="0.36" width="0.68" height="0.68"/><rect x="3.78" y="0.18" width="0.09" height="0.68"/><rect x="2.82" y="0.18" width="0.09" height="0.68"/><path d="M2.82.09H3.88A.1.1,0,0,0,3.78,0H2.91A.09.09,0,0,0,2.82.09Z"/><path d="M2.82,1A.09.09,0,0,1,2.91.87H2.82V1Z"/><path d="M3.88,1h0V.87h-.1A.1.1,0,0,1,3.88,1Z"/><rect x="2.82" y="0.09" width="0.09" height="0.09"/><rect x="3.78" y="0.09" width="0.09" height="0.09"/><polygon points="3.78 0.87 3.78 0.87 3.78 0.18 3.69 0.18 3.69 0.87 3.78 0.87"/><polygon points="2.91 0.87 3.01 0.87 3.01 0.18 2.91 0.18 2.91 0.87 2.91 0.87"/><polygon points="3.01 0.18 3.69 0.18 3.78 0.18 3.78 0.09 2.91 0.09 2.91 0.18 3.01 0.18"/><path class="cls-1" d="M3.18,3.21h.5A.18.18,0,0,0,3.86,3V1.22H3.18Z"/><path d="M3.88,2.86V1.05h-.1V2.88a.25.25,0,0,1-.25.25H3.44v.09h.06A.37.37,0,0,0,3.88,2.86Z"/><path d="M2.91,1.05H2.82V3.13a.09.09,0,0,0,.09.09h.34V3.13H2.91Z"/><polygon points="3.34 3.22 3.36 3.22 3.35 3.13 3.34 3.22"/><polygon points="3.26 3.13 3.25 3.22 3.34 3.22 3.35 3.13 3.26 3.13"/><polygon points="3.44 3.13 3.35 3.13 3.36 3.22 3.45 3.22 3.44 3.13"/><path d="M2.82,1v.09h.09A.09.09,0,0,1,2.82,1Z"/><path d="M3.78,1.05h.1V1A.1.1,0,0,1,3.78,1.05Z"/><path d="M3.78,1v.09A.1.1,0,0,0,3.88,1h-.1Z"/><path d="M2.82,1a.09.09,0,0,0,.09.09V1Z"/><path d="M3.78.87V1h.1A.1.1,0,0,0,3.78.87Z"/><path d="M2.82,1h.09V.87A.09.09,0,0,0,2.82,1Z"/><polygon points="2.91 0.96 3.78 0.96 3.78 0.87 3.78 0.87 3.69 0.87 3.01 0.87 2.91 0.87 2.91 0.87 2.91 0.96"/><path d="M3.35,3H3v-2h-.1V3.13h.35A.08.08,0,0,1,3.35,3Z"/><path d="M3.78,2.88V1.05H3.69V2.86A.18.18,0,0,1,3.51,3H3.35a.08.08,0,0,1,.09.08h.09A.25.25,0,0,0,3.78,2.88Z"/><path d="M3.35,3a.08.08,0,0,0-.09.08h.18A.08.08,0,0,0,3.35,3Z"/><polygon points="3.78 0.96 2.91 0.96 2.91 1.05 2.91 1.05 3.01 1.05 3.69 1.05 3.78 1.05 3.78 1.05 3.78 0.96"/><rect x="1.09" y="0.18" width="0.18" height="0.68"/><path d="M1.27,1H1.09a.09.09,0,0,0,.18,0Z"/><path d="M1.09.09h.18a.09.09,0,0,0-.18,0Z"/><rect x="1.09" y="0.87" width="0.18" height="0.09"/><rect x="1.09" y="0.09" width="0.18" height="0.09"/><rect x="5.43" y="0.18" width="0.18" height="0.68"/><path d="M5.61,1H5.43a.09.09,0,1,0,.18,0Z"/><path d="M5.43.09h.18a.09.09,0,0,0-.18,0Z"/><rect x="5.43" y="0.87" width="0.18" height="0.09"/><rect x="5.43" y="0.09" width="0.18" height="0.09"/><path class="cls-1" d="M.36,13.44a3.66,3.66,0,0,0,1.21.19,2.22,2.22,0,0,0,1-.19l0-.71H.36Z"/><polygon class="cls-1" points="2.61 12.73 2.61 12.73 2.56 13.44 2.61 12.73"/><polygon points="2.63 12.47 2.63 12.47 2.57 13.34 2.63 12.47"/><rect x="0.18" y="12.37" width="2.27" height="0.09"/><path d="M2.55,12.38v.09h0l-.06.87-.14.05a2.27,2.27,0,0,1-.51.14,3,3,0,0,1-.44,0H1.06l-.35,0a3.29,3.29,0,0,1-.62-.16v-1h0a.1.1,0,0,0-.09.1v.87a.08.08,0,0,0,.06.08,3.78,3.78,0,0,0,1.33.22,2.43,2.43,0,0,0,1.13-.22.08.08,0,0,0,0-.08l.06-.87a.19.19,0,0,0,0-.07Z"/><rect x="0.09" y="12.37" width="0.09" height="0.09"/><path d="M2.34,13.39a2.27,2.27,0,0,1-.51.14A2.27,2.27,0,0,0,2.34,13.39Z"/><polygon points="2.45 12.37 2.45 12.47 2.54 12.47 2.55 12.38 2.54 12.37 2.45 12.37"/><path d="M1.06,13.54l-.35,0Z"/><polygon points="0.18 13.27 0.18 12.56 2.44 12.56 2.45 12.47 0.18 12.47 0.18 13.27"/><polygon points="2.54 12.47 2.54 12.47 2.48 13.34 2.54 12.47"/><path d="M2.44,12.56h0l0,.71a2.23,2.23,0,0,1-1,.19,3.75,3.75,0,0,1-1.21-.19v-.8H.09v.87a3.29,3.29,0,0,0,.62.16l.35,0h.33a3,3,0,0,0,.44,0,2.27,2.27,0,0,0,.51-.14l.14-.05.06-.87H2.45Zm-2.26.78h0Z"/><path class="cls-1" d="M4.48,13.44a2.5,2.5,0,0,0,1,.19,3.87,3.87,0,0,0,1.21-.19v-.71H4.43Z"/><polygon points="6.7 12.47 6.7 12.47 6.7 13.34 6.7 12.47"/><rect x="4.25" y="12.37" width="2.27" height="0.09"/><path d="M6.61,12.37h0v1l-.08,0-.23.07-.17,0L6,13.5l-.34,0H5.17a2.91,2.91,0,0,1-.58-.09l-.24-.07-.13-.05-.06-.87h0v-.09l-.06,0a.07.07,0,0,0,0,.07l.06.87a.08.08,0,0,0,0,.08,2.8,2.8,0,0,0,1.12.22,4.09,4.09,0,0,0,1.34-.22.08.08,0,0,0,.06-.08v-.87A.1.1,0,0,0,6.61,12.37Z"/><rect x="6.51" y="12.37" width="0.09" height="0.09"/><polygon points="4.25 12.47 4.24 12.37 4.16 12.37 4.15 12.38 4.16 12.47 4.25 12.47"/><path d="M4.59,13.46l-.24-.07Z"/><path d="M6.3,13.43l-.17,0Z"/><path d="M6.13,13.47,6,13.5Z"/><path d="M6,13.5l-.34,0Z"/><path d="M6.53,13.36l-.23.07Z"/><polygon points="4.26 12.56 6.51 12.56 6.51 12.47 4.25 12.47 4.3 13.27 4.26 12.56"/><path d="M6.51,13.27a3.87,3.87,0,0,1-1.21.19A3.87,3.87,0,0,0,6.51,13.27Z"/><path d="M5.17,13.55a2.91,2.91,0,0,1-.58-.09A2.91,2.91,0,0,0,5.17,13.55Z"/><polygon points="4.16 12.47 4.22 13.34 4.16 12.47 4.16 12.47"/><path d="M6.51,12.56v.71a3.87,3.87,0,0,1-1.21.19,2.5,2.5,0,0,1-1-.19l-.06-.8H4.16l.06.87.13.05.24.07a2.91,2.91,0,0,0,.58.09h.44l.34,0,.18,0,.17,0,.23-.07.08,0v-.87h-.1Z"/></g></g></svg>