<svg xmlns="http://www.w3.org/2000/svg" viewBox="0 0 10.57 13.64"><defs><style>.cls-1{fill:#9bf2ff;}</style></defs><title>Asset 2</title><g id="Layer_2" data-name="Layer 2"><g id="_1" data-name=" 1"><path class="cls-1" d="M7,1.41l-.75.91a.2.2,0,0,1-.17.09h0a.21.21,0,0,1-.17-.11l-.49-.59L5,2.3a.23.23,0,0,1-.17.11h0a.21.21,0,0,1-.18-.09l-.75-.91a.11.11,0,0,1,0-.08L1.6,2.08A5.57,5.57,0,0,0,.48,4.73h0A4.23,4.23,0,0,0,2,5.15a.11.11,0,0,1,.1.09A.09.09,0,0,1,2,5.33H2A4.28,4.28,0,0,1,.44,4.92c0,.16-.06.34-.08.52a2.94,2.94,0,0,0,1.86.74C2,4.33,1.68,2.26,1.67,2.23a.08.08,0,0,1,.08-.1.08.08,0,0,1,.1.07,44.21,44.21,0,0,1,.66,5.66c0,1.86-.2,4.54-.22,4.77s.41,1,3.16,1,3.13-.9,3.17-1S8.4,9.72,8.4,7.86A46.88,46.88,0,0,1,9.05,2.2a.09.09,0,0,1,.11-.07.08.08,0,0,1,.07.1S9,3.64,8.8,5.15a4.26,4.26,0,0,0,1.4-.41.11.11,0,0,1,.13,0,.09.09,0,0,1-.05.12,4,4,0,0,1-1.5.43c0,.28-.07.57-.1.85a2.73,2.73,0,0,0,1.87-.74A6.32,6.32,0,0,0,9.31,2.08L7.06,1.33A.08.08,0,0,1,7,1.41ZM5.45,4.65a.09.09,0,0,1,0-.18.09.09,0,1,1,0,.18Zm0-.37a.09.09,0,0,1,0-.18.09.09,0,1,1,0,.18Zm0-.36a.1.1,0,0,1-.09-.1.09.09,0,0,1,.09-.09.1.1,0,0,1,.1.09A.11.11,0,0,1,5.45,3.92Zm0-.37a.1.1,0,0,1-.09-.1.09.09,0,0,1,.09-.09.1.1,0,0,1,.1.09A.11.11,0,0,1,5.45,3.55Zm0-.37a.09.09,0,0,1-.09-.09A.09.09,0,0,1,5.45,3a.1.1,0,0,1,.1.1A.1.1,0,0,1,5.45,3.18Z"/><path d="M.09,5.3A6.19,6.19,0,0,1,1.37,1.83l2.34-.78,0-.11-2.41.8,0,0A6.22,6.22,0,0,0,0,5.29a.11.11,0,0,0,0,.08,3,3,0,0,0,2,.82,9.67,9.67,0,0,1,.12,1.5c0-.45,0-1-.09-1.59A3,3,0,0,1,.09,5.3Z"/><path d="M9.26,1.76l0,0L6.81.94l0,.11,2.34.78A6.19,6.19,0,0,1,10.47,5.3a2.78,2.78,0,0,1-2,.8c-.06.58-.1,1.14-.1,1.59a9.7,9.7,0,0,1,.13-1.5,2.9,2.9,0,0,0,2-.82.08.08,0,0,0,0-.08A6.26,6.26,0,0,0,9.26,1.76Z"/><path d="M8.32,7.78c0,2,.22,4.69.22,4.69s-.22,1.08-3.26,1.08S2,12.47,2,12.47s.21-2.74.21-4.69a.09.09,0,0,1-.09-.09c0,1.93-.21,4.74-.22,4.77s0,0,0,0,.26,1.16,3.34,1.16,3.34-1.11,3.35-1.16v0s-.22-2.84-.22-4.77A.09.09,0,0,1,8.32,7.78Z"/><path d="M8.23,7.69c0,1.86.2,4.53.22,4.77s-.42,1-3.17,1-3.13-.9-3.16-1,.22-2.91.22-4.77a.1.1,0,0,1-.1.09h0c0,2-.21,4.69-.21,4.69s.21,1.08,3.25,1.08,3.26-1.08,3.26-1.08-.21-2.74-.22-4.69h0A.09.09,0,0,1,8.23,7.69Z"/><path d="M.19,5.27c0-.18,0-.36.08-.52l0,0a.08.08,0,0,1,0-.12.09.09,0,0,1,.1-.05A5.57,5.57,0,0,1,1.43,1.91l2.24-.75v0l0-.09-2.34.78A6.19,6.19,0,0,0,.09,5.3a3,3,0,0,0,2,.8V6A2.94,2.94,0,0,1,.19,5.27Z"/><path d="M6.89,1.16l2.25.75a6.32,6.32,0,0,1,1.24,3.36A2.78,2.78,0,0,1,8.51,6V6.1a2.78,2.78,0,0,0,2-.8A6.19,6.19,0,0,0,9.19,1.83L6.85,1.05l0,.09Z"/><path class="cls-1" d="M4.4.88h0A.38.38,0,0,1,4.3.74h0L4.22.86,4.15,1h.47Z"/><path class="cls-1" d="M4.76,2.2h0s0,0,0,0h0v0l.51-.62-.46-.35h-.7l-.1,0,0,.07Z"/><polygon class="cls-1" points="4.74 1.13 4.62 1.04 4.15 1.04 4.11 1.14 4.15 1.13 4.74 1.13"/><polygon class="cls-1" points="4.87 1.22 4.74 1.13 4.15 1.13 4.11 1.14 4.07 1.26 4.17 1.22 4.87 1.22"/><path d="M4,.65l.12-.2A.45.45,0,0,1,4.26.1,1,1,0,0,0,4,.49L3.89.6v0L3.76.94l.11,0Z"/><path d="M3.69,1.24l.75.91a.21.21,0,0,0,.18.09h0a.25.25,0,0,0,.17-.11l.48-.59-.06-.07-.5.61a.11.11,0,0,1-.2,0l-.76-.91,0-.06-.11,0A.11.11,0,0,0,3.69,1.24Z"/><polygon points="3.83 1.01 3.87 0.9 3.76 0.94 3.71 1.05 3.83 1.01"/><path d="M3.67,1.16l.11,0L3.83,1l-.12,0,0,.09Z"/><path d="M4,.87H4L4.05.69,4.12.58h0a.28.28,0,0,1,0-.12L4,.65,3.87.9,4,.87Z"/><path d="M4.52,2.09a.11.11,0,0,0,.2,0l.5-.61v0a0,0,0,0,1,0,0l0,0L4.65,2V2h0l-.72-.87,0-.07-.12,0,0,.06Z"/><path d="M4,.87H4L3.87.9l0,.11.11,0Z"/><polygon points="3.9 1.08 3.94 0.97 3.83 1.01 3.78 1.12 3.9 1.08"/><path class="cls-1" d="M6.57.88,6.35,1h.4L6.68.86l0-.07L6.58.87Z"/><path class="cls-1" d="M6.1,1.22l-.5.38.48.59,0,0s0,0,0,0h0l.72-.87,0-.07-.1,0Z"/><polygon class="cls-1" points="6.22 1.13 6.76 1.13 6.79 1.14 6.75 1.04 6.35 1.04 6.22 1.13"/><polygon class="cls-1" points="6.22 1.13 6.1 1.22 6.74 1.22 6.84 1.26 6.79 1.14 6.76 1.13 6.22 1.13"/><path d="M6.52.52A.74.74,0,0,0,6.6.65L6.69.9l.12,0L6.68.62v0L6.61.49,6.53.36A.43.43,0,0,1,6.52.52Z"/><path d="M6.05,2.09a.12.12,0,0,1-.21,0l-.49-.6h0l0,.06.49.59a.21.21,0,0,0,.17.11H6a.2.2,0,0,0,.17-.09l.75-.91a.08.08,0,0,0,0-.08l-.11,0,0,.06Z"/><polygon points="6.74 1.01 6.85 1.05 6.81 0.94 6.69 0.9 6.74 1.01"/><path d="M6.78,1.12l.11,0v0l0-.09L6.74,1Z"/><path d="M5.26,1.47l0,0,0,0,.06.07,0-.06h0Z"/><path d="M5.2,1.42a0,0,0,0,0,0,0v0l0,0Z"/><path d="M6.51.69l.07.18h0l.08,0L6.6.65A.74.74,0,0,1,6.52.52a.31.31,0,0,1,0,.1Z"/><path d="M6.7,1.16,6,2H5.92V2l-.48-.6-.06.05h0l.49.6a.12.12,0,0,0,.21,0l.75-.91,0-.06-.11,0Z"/><path d="M6.59.87h0l0,.1.12,0,0-.11-.08,0Z"/><polygon points="6.67 1.08 6.78 1.12 6.74 1.01 6.62 0.97 6.67 1.08"/><path class="cls-1" d="M5.73,1,6.24.36H4.67L5.18,1Z"/><polygon class="cls-1" points="5.59 1.22 5.31 1.22 5.45 1.41 5.59 1.22"/><polygon class="cls-1" points="5.66 1.13 5.73 1.04 5.18 1.04 5.25 1.13 5.66 1.13"/><polygon class="cls-1" points="5.59 1.22 5.66 1.13 5.25 1.13 5.31 1.22 5.59 1.22"/><path class="cls-1" d="M4.46.53a.17.17,0,0,0,0,.2L4.93,1H5L4.51.45A.22.22,0,0,0,4.46.53Z"/><polygon class="cls-1" points="4.95 1.04 4.93 1.04 4.97 1.07 4.95 1.04"/><path class="cls-1" d="M5.18,1,4.67.36,4.58.4,5.06,1Z"/><polygon class="cls-1" points="5.31 1.22 5.2 1.22 5.23 1.26 5.44 1.42 5.45 1.41 5.31 1.22"/><polygon class="cls-1" points="5.25 1.13 5.18 1.04 5.06 1.04 5.13 1.13 5.25 1.13"/><polygon class="cls-1" points="5.31 1.22 5.25 1.13 5.13 1.13 5.2 1.22 5.31 1.22"/><path class="cls-1" d="M5.06,1,4.58.4a.18.18,0,0,0-.07,0L5,1Z"/><polygon class="cls-1" points="5.17 1.22 5.23 1.26 5.2 1.22 5.17 1.22"/><polygon class="cls-1" points="5.05 1.13 5.13 1.13 5.06 1.04 4.95 1.04 4.97 1.07 5.05 1.13"/><polygon class="cls-1" points="5.2 1.22 5.13 1.13 5.05 1.13 5.17 1.22 5.2 1.22"/><path class="cls-1" d="M6.4.44,6,1H6L6.45.73A.17.17,0,0,0,6.52.59,1.11,1.11,0,0,0,6.4.44Z"/><polygon class="cls-1" points="5.91 1.13 6.04 1.04 5.96 1.04 5.89 1.13 5.91 1.13"/><polygon class="cls-1" points="5.91 1.13 5.89 1.13 5.86 1.17 5.91 1.13"/><path class="cls-1" d="M5.84,1l.5-.66-.1,0L5.73,1Z"/><polygon class="cls-1" points="5.59 1.22 5.45 1.41 5.48 1.45 5.61 1.36 5.71 1.22 5.59 1.22"/><polygon class="cls-1" points="5.78 1.13 5.84 1.04 5.73 1.04 5.66 1.13 5.78 1.13"/><polygon class="cls-1" points="5.71 1.22 5.78 1.13 5.66 1.13 5.59 1.22 5.71 1.22"/><polygon class="cls-1" points="5.44 1.42 5.48 1.45 5.48 1.45 5.45 1.41 5.44 1.42"/><path class="cls-1" d="M6,1,6.4.44a1.11,1.11,0,0,1,.12.15s0,0,0-.06A.32.32,0,0,0,6.34.38L5.84,1Z"/><polygon class="cls-1" points="5.61 1.36 5.79 1.22 5.71 1.22 5.61 1.36"/><polygon class="cls-1" points="5.89 1.13 5.96 1.04 5.84 1.04 5.78 1.13 5.89 1.13"/><polygon class="cls-1" points="5.79 1.22 5.86 1.17 5.89 1.13 5.78 1.13 5.71 1.22 5.79 1.22"/><path d="M4.44.12l.15,0H6.14l.09,0c.1,0,.19.12.3.28a.64.64,0,0,0,0-.07A.5.5,0,0,0,6,0H4.59a.61.61,0,0,0-.33.1l.07,0A.15.15,0,0,1,4.44.12Z"/><path d="M4.23.71l.22.16H4.6L4.28.63A.29.29,0,0,1,4.19.47a.37.37,0,0,0-.06.1A.38.38,0,0,0,4.22.7Z"/><polygon points="4.99 1.16 4.85 1.05 4.69 1.05 5.16 1.4 5.17 1.39 4.99 1.16"/><polygon points="4.6 0.87 4.45 0.87 4.57 0.96 4.72 0.96 4.6 0.87"/><polygon points="4.72 0.96 4.57 0.96 4.69 1.05 4.85 1.05 4.72 0.96"/><path d="M4.12.29a.45.45,0,0,0,0,.16A.71.71,0,0,1,4.31.18.31.31,0,0,1,4.44.12a.15.15,0,0,0-.11,0L4.26.1A.45.45,0,0,0,4.12.29Z"/><path d="M4.19.47A.3.3,0,0,1,4.31.18a.71.71,0,0,0-.22.27.28.28,0,0,0,0,.12A.37.37,0,0,1,4.19.47Z"/><path d="M5.21,1.34h0L5,1.16l.18.23h0l0,0A.08.08,0,0,1,5.21,1.34Z"/><path d="M6.34.63h0L6,.87h.16L6.4.71h0A.27.27,0,0,0,6.47.62l0,0,0,0a.25.25,0,0,1-.08.1Z"/><polygon points="5.77 1.05 5.5 1.25 5.4 1.39 5.43 1.43 5.93 1.05 5.77 1.05"/><polygon points="6.05 0.96 6.18 0.87 6.02 0.87 5.9 0.96 6.05 0.96"/><polygon points="5.77 1.05 5.93 1.05 6.05 0.96 5.9 0.96 5.77 1.05"/><path d="M6.23.08,6.14.1a.37.37,0,0,1,.3.29l.08.13a.43.43,0,0,0,0-.16C6.42.2,6.33.09,6.23.08Z"/><path d="M5.33,1.48h0Z"/><path d="M5.28,1.39l0,.06,0,0,0,0h0Z"/><polygon points="5.25 1.35 5.28 1.4 5.29 1.38 5.25 1.35"/><path d="M5.28,1.39l0,0,0,0h0a.08.08,0,0,0,0,.08l0,0Z"/><path d="M6.42.53l0,0,0,0a.31.31,0,0,0,0-.1L6.44.39A.34.34,0,0,1,6.42.53Z"/><path d="M5.5,1.25l-.14.11a.06.06,0,0,1,0,.09v0h0l.06-.05,0,0Z"/><path d="M5.29,1.38h0l.06.08v0a.06.06,0,0,0,0-.09l-.05,0Z"/><path d="M4.5.19H6.07l0,0,0,0H4.59l-.15,0a0,0,0,0,1,0,0Z"/><path d="M4.6.87h.16L4.34.56a.17.17,0,0,1,0-.2.22.22,0,0,1,0-.08h0a1,1,0,0,0-.14.2.29.29,0,0,0,.09.16Z"/><polygon points="4.85 1.05 4.99 1.16 4.91 1.05 4.85 1.05"/><polygon points="4.84 0.96 4.8 0.9 4.75 0.87 4.6 0.87 4.72 0.96 4.84 0.96"/><polygon points="4.84 0.96 4.72 0.96 4.85 1.05 4.91 1.05 4.84 0.96"/><path d="M4.39.2l0,0,.09,0,0,0a0,0,0,0,0,0,0,.31.31,0,0,0-.13.06A.06.06,0,0,1,4.39.2Z"/><polygon points="5.22 1.32 5.27 1.25 5.06 1.09 5.22 1.32"/><path d="M4.19.47a1,1,0,0,1,.14-.2h0A.18.18,0,0,1,4.41.23l0,0a.06.06,0,0,0-.08,0A.3.3,0,0,0,4.19.47Z"/><polygon points="5.06 1.09 5 1.05 4.91 1.05 4.99 1.16 5.22 1.33 5.22 1.32 5.06 1.09"/><polygon points="4.8 0.9 4.84 0.96 4.88 0.96 4.8 0.9"/><polygon points="5 1.05 4.88 0.96 4.84 0.96 4.91 1.05 5 1.05"/><path d="M5.87.87H6L6.34.63h0a.25.25,0,0,0,.08-.1L6.35.42a.17.17,0,0,1-.07.14Z"/><polygon points="5.5 1.25 5.77 1.05 5.65 1.05 5.5 1.25"/><polygon points="5.9 0.96 6.02 0.87 5.87 0.87 5.74 0.96 5.9 0.96"/><polygon points="5.74 0.96 5.69 1 5.65 1.05 5.77 1.05 5.9 0.96 5.74 0.96"/><path d="M6.1.14l0,0,.1,0h0c.07-.09.17,0,.27.19A.37.37,0,0,0,6.14.1Z"/><polygon points="5.34 1.32 5.44 1.19 5.31 1.28 5.34 1.32"/><polygon points="5.34 1.32 5.31 1.28 5.31 1.28 5.27 1.25 5.22 1.32 5.25 1.35 5.29 1.38 5.34 1.32"/><polygon points="5.22 1.33 5.25 1.35 5.22 1.32 5.22 1.33"/><path d="M6.17.2h0a.27.27,0,0,1,.16.15.14.14,0,0,1,0,.06l.07.11a.34.34,0,0,0,0-.14C6.34.24,6.24.11,6.17.2Z"/><path d="M5.62,1.05l-.18.14-.1.13,0,0v0l.14-.11.15-.2Z"/><polygon points="5.65 1.05 5.69 1 5.62 1.05 5.65 1.05"/><path d="M5.34,1.32l0,.06h0l.05,0v0Z"/><circle cx="5.28" cy="4.39" r="0.09"/><circle cx="5.28" cy="3.65" r="0.09"/><circle cx="5.28" cy="4.02" r="0.09"/><circle cx="5.28" cy="3.28" r="0.09"/><path d="M5.28,2.82a.09.09,0,0,0-.09.09.09.09,0,0,0,.09.1.1.1,0,0,0,.1-.1A.1.1,0,0,0,5.28,2.82Z"/><path d="M1.58,2a.08.08,0,0,0-.08.1s.37,2.1.55,4h.06a.11.11,0,0,1,.09.08,9.8,9.8,0,0,1,.14,1.6A44.21,44.21,0,0,0,1.68,2,.08.08,0,0,0,1.58,2Z"/><path d="M2.24,7.78V7.69A9.74,9.74,0,0,0,2.11,6.1h0c0,.58.09,1.14.09,1.59A.09.09,0,0,0,2.24,7.78Z"/><path d="M2.34,7.69a9.8,9.8,0,0,0-.14-1.6A.11.11,0,0,0,2.11,6H2.05V6.1h0a9.74,9.74,0,0,1,.13,1.59v.09h0A.1.1,0,0,0,2.34,7.69Z"/><path d="M8.58,5.16h0a.09.09,0,0,1-.09-.09c0-.06,0-.1.09-.09h.09c.19-1.51.43-2.9.43-2.92A.08.08,0,0,0,9,2,.09.09,0,0,0,8.88,2a46.88,46.88,0,0,0-.65,5.66,9.8,9.8,0,0,1,.14-1.6A.09.09,0,0,1,8.46,6h0c0-.28.06-.57.1-.85Z"/><path d="M8.46,6.1a9.7,9.7,0,0,0-.14,1.59v.09a.09.09,0,0,0,.09-.09c0-.45,0-1,.1-1.59Z"/><path d="M8.46,6a.09.09,0,0,0-.09.08,9.8,9.8,0,0,0-.14,1.6.09.09,0,0,0,.09.09h0V7.69A9.7,9.7,0,0,1,8.46,6.1h0V6Z"/><path d="M1.83,5.16a.08.08,0,0,0,.08-.09A.08.08,0,0,0,1.82,5,4.23,4.23,0,0,1,.33,4.57h0a1.06,1.06,0,0,0,0,.19,4.28,4.28,0,0,0,1.51.41ZM.29,4.65l1.53.42A4,4,0,0,1,.29,4.65Z"/><path d="M.21,4.61a.08.08,0,0,0,0,.12l0,0a1.06,1.06,0,0,1,0-.19A.09.09,0,0,0,.21,4.61Z"/><path d="M.29,4.65a4,4,0,0,0,1.53.42Z"/><path d="M10.07,4.65a4.28,4.28,0,0,1-1.45.42v.09a4,4,0,0,0,1.5-.43.08.08,0,0,0,0-.12.08.08,0,0,0-.12,0A4.26,4.26,0,0,1,8.63,5v.07Z"/><path d="M8.54,5s-.09,0-.09.09a.09.09,0,0,0,.09.09h.07V5.07H8.54l.08,0V5Z"/><path d="M8.62,5.05v0a4.28,4.28,0,0,0,1.45-.42Z"/><path d="M8.54,5.07h.08v0Z"/></g></g></svg>