<svg xmlns="http://www.w3.org/2000/svg" viewBox="0 0 9.74 13.64"><defs><style>.cls-1{fill:#f9c087;}.cls-2{fill:#fff;}</style></defs><title>Asset 4</title><g id="Layer_2" data-name="Layer 2"><g id="_1" data-name=" 1"><path class="cls-1" d="M.37,7.81,1,8a.36.36,0,0,0,.27,0,.35.35,0,0,0,.18-.2l.12-.53-1-.2Z"/><path class="cls-1" d="M8.67,7.84A.37.37,0,0,0,8.85,8a.36.36,0,0,0,.27,0l.59-.23L9.54,7.1l-1,.2Z"/><path class="cls-1" d="M6.84,1.41l-.37.37.15.15a.09.09,0,0,1,0,.13L5.31,3.58l.45,1.8a.08.08,0,0,1,0,0h0a.06.06,0,0,1,0,0L6,13.61a13,13,0,0,0,1.76-.18L7.37,8H6.56a.09.09,0,0,1-.09-.09V7a.09.09,0,0,1,.09-.09h.78V3.22a.14.14,0,0,1,.12-.14.15.15,0,0,1,.15.11l.91,3.93,1-.2L8.42,2.29a1.65,1.65,0,0,0-1-1.18L6.82.91a2.39,2.39,0,0,1,0,.44A.07.07,0,0,1,6.84,1.41Z"/><path class="cls-1" d="M5.58,5.5l0,0L3.44,2.05a.1.1,0,0,1,0-.12l.16-.15-.37-.37a.07.07,0,0,1,0-.06,2.39,2.39,0,0,1,0-.44l-.56.2a1.63,1.63,0,0,0-1,1.18L.58,6.92l1,.2.91-3.93a.15.15,0,0,1,.15-.11.14.14,0,0,1,.11.14V6.9h.78A.09.09,0,0,1,3.61,7v.87A.09.09,0,0,1,3.52,8H2.71l-.4,5.48a13.29,13.29,0,0,0,2.3.2h1.2L5.6,5.51Zm-.76,2a.09.09,0,0,1-.09-.09.09.09,0,1,1,.18,0A.09.09,0,0,1,4.82,7.52ZM4.82,6a.09.09,0,1,1,.09-.09A.09.09,0,0,1,4.82,6Z"/><path d="M7.29,7.78l.4,5.56a13.93,13.93,0,0,1-1.86.2h0a.1.1,0,0,1,0,.08,13.6,13.6,0,0,0,1.93-.2.1.1,0,0,0,.07-.1l-.4-5.56H7.29Z"/><path d="M2.48,6.73h0V3S2.41,3,2.4,3L1.48,7a.07.07,0,0,1,0,0l0,0-.14.59A.42.42,0,0,1,.75,8L.09,7.69l.19-.78A.1.1,0,0,1,.22,6.8a.1.1,0,0,1,.1-.07L1.4,2.09A1.71,1.71,0,0,1,2.5.86L3.11.63l0-.11L2.46.77a1.82,1.82,0,0,0-1.15,1.3L0,7.67a.11.11,0,0,0,.06.11L.72,8a.53.53,0,0,0,.41,0,.5.5,0,0,0,.28-.32l1-4.21V6.81h0A.1.1,0,0,1,2.48,6.73Z"/><path d="M8.33,7.72A.49.49,0,0,0,8.6,8,.56.56,0,0,0,9,8l.66-.26a.1.1,0,0,0,.05-.11l-1.3-5.6A1.81,1.81,0,0,0,7.27.77L6.6.52l0,.11.61.23a1.73,1.73,0,0,1,1.1,1.23L9.42,6.73a.1.1,0,0,1,.1.07.1.1,0,0,1-.06.11l.18.78L9,8a.43.43,0,0,1-.58-.26L8.28,7.1l0,0a.07.07,0,0,1,0,0L7.33,3a0,0,0,0,0-.07,0V6.73a.1.1,0,0,1,.09.07h0V3.5Z"/><path d="M5.64,13.55H4.43a12.54,12.54,0,0,1-2.38-.21l.39-5.56H2.35L2,13.33a.11.11,0,0,0,.08.1,13.55,13.55,0,0,0,2.4.21H5.7A.1.1,0,0,1,5.64,13.55Z"/><path d="M7.59,13.26a13,13,0,0,1-1.76.18v.1a13.93,13.93,0,0,0,1.86-.2l-.4-5.56H7.2Z"/><path d="M7.21.94a1.66,1.66,0,0,1,1,1.17L9.33,6.75l.08,0h0L8.34,2.09A1.73,1.73,0,0,0,7.24.86L6.63.63a.43.43,0,0,0,0,.11Z"/><path d="M9.37,6.93l.17.7L9,7.87a.36.36,0,0,1-.27,0,.37.37,0,0,1-.18-.19l-.12-.54h0l-.06,0,.13.59A.43.43,0,0,0,9,8l.65-.26-.18-.78h0Z"/><path d="M1.39,7.13h0l-.12.53a.35.35,0,0,1-.18.2.39.39,0,0,1-.28,0L.2,7.63l.17-.7-.08,0h0l-.19.78L.75,8a.42.42,0,0,0,.57-.26l.14-.59A.09.09,0,0,1,1.39,7.13Z"/><path d="M2.57,3a.14.14,0,0,0-.11-.13A.15.15,0,0,0,2.31,3L1.4,7h0A.09.09,0,0,1,1.48,7L2.4,3s.08,0,.08,0V6.73h.09Z"/><path d="M5.3,13.46H4.44a13.29,13.29,0,0,1-2.3-.2l.39-5.48H2.44l-.39,5.56a12.54,12.54,0,0,0,2.38.21H5.64v-.09Z"/><path d="M.41,6.75,1.49,2.11a1.62,1.62,0,0,1,1-1.17l.56-.2a.43.43,0,0,1,0-.11L2.5.86A1.71,1.71,0,0,0,1.4,2.09L.32,6.73h0Z"/><path d="M8.32,7h0L7.42,3a.13.13,0,0,0-.14-.11A.14.14,0,0,0,7.16,3V6.73h.1V3a0,0,0,0,1,.07,0l.93,4A.09.09,0,0,1,8.32,7Z"/><polygon class="cls-2" points="5.57 0.39 5.58 0.35 4.51 0.35 4.51 0.39 5.57 0.39"/><polygon class="cls-2" points="5.47 0.95 5.54 0.57 4.56 0.57 5.12 2.81 5.47 0.95"/><polygon class="cls-2" points="5.57 0.39 4.51 0.39 4.54 0.48 5.55 0.48 5.57 0.39"/><polygon class="cls-2" points="5.54 0.57 5.55 0.48 4.54 0.48 4.56 0.57 5.54 0.57"/><path d="M4.31.09H5.43A.14.14,0,0,1,5.53,0L5.47,0H4.27L4.21,0A.17.17,0,0,1,4.31.09Z"/><path d="M4.32.13l0,0H5.4v0h0s0,0,0,0H4.31s0,0,0,0Zm0,0Z"/><polygon points="5.3 0.78 4.95 2.64 4.95 2.64 5.3 0.78"/><polygon class="cls-2" points="5.9 0.39 5.76 0.37 5.76 0.39 5.9 0.39"/><path class="cls-2" d="M6.54.61A.32.32,0,0,0,6.4.45L5.94.39h0Z"/><path class="cls-2" d="M5.72.57l0,.28L5.23,3.24l0,.12L6.43,2l-.15-.15a.09.09,0,0,1,0-.07.07.07,0,0,1,0-.06l.4-.41A2.78,2.78,0,0,0,6.61.83L5.89.57Z"/><path class="cls-2" d="M5.74.48h.17l.67.25s0-.08,0-.12L5.94.39H5.76Z"/><path class="cls-2" d="M5.74.48l0,.09h.17l.72.26,0-.1L5.91.48Z"/><polygon class="cls-2" points="5.76 0.37 5.76 0.37 5.76 0.39 5.76 0.39 5.76 0.37"/><polygon class="cls-2" points="5.67 0.85 5.72 0.57 5.72 0.57 5.67 0.85"/><polygon class="cls-2" points="5.74 0.48 5.76 0.39 5.76 0.39 5.74 0.48 5.74 0.48"/><polygon class="cls-2" points="5.72 0.57 5.74 0.48 5.74 0.48 5.72 0.57 5.72 0.57"/><path d="M5.57.05s0,0,0,.06l.64.08a.42.42,0,0,1,.24.29l.12,0C6.53.32,6.43.14,6.26.1L5.6,0H5.53S5.56,0,5.57.05Z"/><path d="M6.17,1.61l.22.22L5.11,3.3l0,.11L6.46,1.89a.09.09,0,0,0,0-.13L6.3,1.61l.37-.37a.09.09,0,0,0,0-.07c0-.06,0-.24,0-.43l-.1,0a3.37,3.37,0,0,1,.06.48Z"/><path d="M6.52.59l.11,0,0-.11-.12,0A.76.76,0,0,1,6.52.59Z"/><path d="M6.55.7l.1,0a.43.43,0,0,1,0-.11l-.11,0Z"/><polygon points="5.4 0.22 5.41 0.18 5.41 0.18 5.4 0.22 5.4 0.22"/><polygon points="5.37 0.4 5.37 0.4 5.3 0.78 5.37 0.4"/><polygon points="5.38 0.31 5.38 0.31 5.4 0.22 5.4 0.22 5.38 0.31"/><polygon points="5.37 0.4 5.38 0.31 5.38 0.31 5.37 0.4 5.37 0.4"/><path d="M5.43.09h0s0,0,0,.05h0a.08.08,0,0,1,.07,0h0s0,0,0-.06,0,0,0,0A.14.14,0,0,0,5.43.09Z"/><polygon points="5 2.86 5.39 0.79 5 2.85 5 2.86"/><path d="M5.42.13h0v0h0v0h.09V.15h0s0-.05,0-.05h0s0,0,0,0Zm0,0Z"/><polygon points="4.95 2.64 5 2.85 5.39 0.79 5.46 0.4 5.37 0.4 5.3 0.78 4.95 2.64"/><polygon points="5.48 0.31 5.49 0.22 5.4 0.22 5.38 0.31 5.48 0.31"/><polygon points="5.46 0.4 5.48 0.31 5.38 0.31 5.37 0.4 5.46 0.4"/><path d="M5.6.16v0l.14,0h0l.46.06a.28.28,0,0,1,.14.16l.11,0A.42.42,0,0,0,6.24.19L5.6.11Z"/><path d="M6.51,1.14l-.4.41a.07.07,0,0,0,0,.06.09.09,0,0,0,0,.07l.15.15L5.09,3.19l0,.11L6.39,1.83l-.22-.22.44-.43A3.37,3.37,0,0,0,6.55.7l-.11,0A2.78,2.78,0,0,1,6.51,1.14Z"/><polygon points="5.06 3.07 5.5 0.68 5.06 3.07 5.06 3.07"/><path d="M6.41.55l.11,0a.76.76,0,0,0,0-.11l-.11,0S6.4.51,6.41.55Z"/><path d="M5.74.22h0Z"/><path d="M6.44.66l.11,0,0-.11-.11,0Z"/><path d="M5.59.22v0h0V.11h0a.08.08,0,0,0-.07,0l0,.07Zm0,0Z"/><polygon points="5.46 0.4 5.39 0.79 5 2.86 5.06 3.07 5.5 0.68 5.55 0.4 5.46 0.4"/><polygon points="5.57 0.31 5.59 0.22 5.49 0.22 5.48 0.31 5.57 0.31"/><polygon points="5.55 0.4 5.57 0.31 5.48 0.31 5.46 0.4 5.55 0.4"/><polygon points="5.49 0.22 5.49 0.22 5.51 0.15 5.5 0.15 5.49 0.22"/><polygon points="5.46 0.4 5.46 0.4 5.39 0.79 5.46 0.4"/><polygon points="5.48 0.31 5.49 0.22 5.49 0.22 5.48 0.31 5.48 0.31"/><polygon points="5.46 0.4 5.48 0.31 5.48 0.31 5.46 0.4 5.46 0.4"/><path d="M5.74,13.64Z"/><path d="M5.6,5.26h0a.18.18,0,0,1-.06.09H5.43l.21,8.11h.19L5.61,5.3A.06.06,0,0,0,5.6,5.26Z"/><path d="M5.83,13.55H5.64a.1.1,0,0,0,.06.08h.08A.1.1,0,0,0,5.83,13.55Z"/><path d="M5.64,13.45v.09h.19v-.1Z"/><polygon class="cls-2" points="3.43 7.08 2.74 7.08 2.74 7.43 2.72 7.77 3.43 7.77 3.43 7.08"/><path class="cls-2" d="M2.65,7.37l-.08.35s0,0,0,0l0,0h0l0-.34Z"/><polygon class="cls-2" points="2.74 7.08 2.72 7.08 2.65 7.37 2.65 7.43 2.63 7.77 2.72 7.77 2.74 7.43 2.74 7.08"/><path d="M2.31,7.52l.08-.33V6.81l-.17.69a.21.21,0,0,0,0,.2.31.31,0,0,0,.09.07V7.66A.12.12,0,0,1,2.31,7.52Z"/><path d="M3.44,7.69V6.82a.09.09,0,0,0-.09-.09H2.57v.09h.78v.87H2.54v.09h.82A.09.09,0,0,0,3.44,7.69Z"/><path d="M2.44,7.78V7.69h0a.11.11,0,0,1-.08,0v.11Z"/><path d="M2.48,6.82V6.73h0a.1.1,0,0,0-.09.07h0v.38Z"/><polygon points="2.54 7.69 2.45 7.69 2.44 7.78 2.54 7.78 2.54 7.69"/><rect x="2.48" y="6.73" width="0.09" height="0.09"/><path d="M2.39,7.19l-.08.33a.12.12,0,0,0,0,.14l0-.41Z"/><polygon points="3.35 6.82 2.57 6.82 2.57 6.91 3.26 6.91 3.26 7.6 2.55 7.6 2.54 7.69 3.35 7.69 3.35 6.82"/><path d="M2.44,7.6l0,0a.1.1,0,0,1,0,0l.09-.34V6.82l-.09.37v.06l0,.41a.11.11,0,0,0,.08,0h0V7.6Z"/><polygon points="2.55 6.91 2.57 6.91 2.57 6.82 2.48 6.82 2.48 7.2 2.55 6.91"/><polygon points="2.55 7.6 2.46 7.6 2.45 7.69 2.54 7.69 2.55 7.6"/><polygon class="cls-2" points="6.65 7.77 7.36 7.77 7.33 7.43 7.33 7.08 6.65 7.08 6.65 7.77"/><path class="cls-2" d="M7.45,7.77h0s0,0,0,0a0,0,0,0,0,0,0l-.08-.35v.06Z"/><polygon class="cls-2" points="7.36 7.77 7.45 7.77 7.43 7.43 7.43 7.37 7.36 7.08 7.33 7.08 7.33 7.43 7.36 7.77"/><path d="M7.43,7.52a.12.12,0,0,1,0,.14v.11l.1-.07a.24.24,0,0,0,0-.2l-.17-.69v.38Z"/><path d="M6.3,6.82v.87a.09.09,0,0,0,.09.09H7.2V7.69h-.8V6.82h.77V6.73H6.39A.09.09,0,0,0,6.3,6.82Z"/><path d="M7.26,6.73v.09l.09.37V6.81h0A.1.1,0,0,0,7.26,6.73Z"/><path d="M7.3,7.69h0v.09h.09V7.66A.11.11,0,0,1,7.3,7.69Z"/><polygon points="7.2 7.78 7.29 7.78 7.29 7.69 7.2 7.69 7.2 7.78"/><polygon points="7.17 6.73 7.17 6.82 7.26 6.82 7.26 6.73 7.26 6.73 7.17 6.73"/><path d="M7.38,7.66a.12.12,0,0,0,0-.14l-.08-.33v.07Z"/><polygon points="6.39 7.69 7.2 7.69 7.19 7.6 6.48 7.6 6.48 6.91 7.17 6.91 7.17 6.82 6.39 6.82 6.39 7.69"/><path d="M7.34,7.54s0,0,0,0,0,0,0,0h0v.09h0a.11.11,0,0,0,.08,0l0-.4V7.19l-.09-.37V7.2Z"/><polygon points="7.19 7.6 7.2 7.69 7.29 7.69 7.28 7.6 7.19 7.6"/><polygon points="7.17 6.91 7.18 6.91 7.26 7.2 7.26 6.82 7.17 6.82 7.17 6.91"/><path d="M4.65,7.16a.1.1,0,0,0-.09.1.09.09,0,0,0,.18,0A.1.1,0,0,0,4.65,7.16Z"/><path d="M4.65,5.64a.1.1,0,0,0-.09.1.09.09,0,0,0,.18,0A.1.1,0,0,0,4.65,5.64Z"/><polygon points="0.36 6.93 1.36 7.13 1.4 6.95 0.41 6.75 0.36 6.93"/><path d="M1.49,7.06a.07.07,0,0,0,0,0l0,.09Z"/><path d="M.22,6.8a.1.1,0,0,0,.06.11l0-.18A.1.1,0,0,0,.22,6.8Z"/><path d="M1.41,7h0l0,.18h0a.09.09,0,0,0,.07,0l0-.09A.09.09,0,0,0,1.41,7Z"/><path d="M.37,6.93l0-.18-.08,0h0l0,.18h0Z"/><polygon points="8.38 7.13 9.37 6.93 9.33 6.75 8.34 6.95 8.38 7.13"/><path d="M9.52,6.8a.1.1,0,0,0-.1-.07l0,.18A.1.1,0,0,0,9.52,6.8Z"/><path d="M8.25,7.06l0,0,0-.09A.07.07,0,0,0,8.25,7.06Z"/><path d="M8.34,7.13h0l0-.18h0A.09.09,0,0,0,8.26,7l0,.09Z"/><path d="M9.33,6.75l0,.18.08,0h0l0-.18h0Z"/><polygon class="cls-2" points="4.32 0.37 4.18 0.39 4.32 0.39 4.32 0.37"/><path class="cls-2" d="M4.14.39,3.68.46c-.06,0-.1.07-.14.15l.6-.22Z"/><path class="cls-2" d="M3.8,1.72a.07.07,0,0,1,0,.06.09.09,0,0,1,0,.07L3.64,2,5.45,5h0l-.3-1.2h0l0,0L5,3.82H5A.11.11,0,0,1,5,3.74L4.35.57H4.19L3.46.83a2.74,2.74,0,0,0-.06.48Z"/><path class="cls-2" d="M4.34.48l0-.09H4.14l-.6.22a.42.42,0,0,0,0,.12L4.17.48Z"/><path class="cls-2" d="M4.35.57V.48H4.17L3.5.73a.42.42,0,0,0,0,.1L4.19.57Z"/><polygon class="cls-2" points="4.32 0.39 4.32 0.37 4.32 0.37 4.32 0.39 4.32 0.39"/><path class="cls-2" d="M5,3.77a.09.09,0,0,1,0-.12L5,3.5,4.68,1.8,4.37.57h0L5,3.74A.11.11,0,0,0,5,3.82H5l.07,0h0Z"/><polygon class="cls-2" points="4.34 0.48 4.35 0.48 4.32 0.39 4.32 0.39 4.34 0.48"/><polygon class="cls-2" points="4.35 0.48 4.34 0.48 4.36 0.57 4.37 0.57 4.35 0.48"/><polygon class="cls-2" points="4.68 1.8 4.99 3.5 5.04 3.25 4.68 1.8"/><path class="cls-2" d="M5.15,3.69h0l0,.07a.08.08,0,0,1,0,0l0,0h0V3.68Z"/><path class="cls-2" d="M5.15,3.67v0l0,0s0,0,0,0l0-.2h0l0,.26H5L5,3.5l0,.15a.09.09,0,0,0,0,.12l.06,0h0a.08.08,0,0,0,0,0Z"/><path class="cls-2" d="M5,3.5l0,.22H5l0-.26,0-.21Z"/><path class="cls-2" d="M5.06,3.67s0,0,0,0l0,0,0-.17Z"/><path class="cls-2" d="M5.46,5h0l0,0Z"/><path d="M3.49.19,4.14.11a.14.14,0,0,1,0-.06s0,0,0,0H4.14L3.48.1a.56.56,0,0,0-.34.42l.11,0C3.31.34,3.38.22,3.49.19Z"/><path d="M3.07,1.24l.37.37-.16.15a.1.1,0,0,0,0,.12L5.39,5.31l0,0h0l-.21-.42a.13.13,0,0,1,0-.06l-1.86-3,.22-.22-.44-.43A3.37,3.37,0,0,1,3.19.7l-.1,0a2.4,2.4,0,0,0,0,.43A.09.09,0,0,0,3.07,1.24Z"/><path d="M5.42,4.89l.18.36a.06.06,0,0,0,0,0l-.45-1.8-.07.08Z"/><path d="M3.22.59l0-.11-.11,0,0,.11Z"/><path d="M3.19.7l0-.11-.11,0a.43.43,0,0,0,0,.11Z"/><polygon points="4.33 0.18 4.33 0.18 4.34 0.22 4.34 0.22 4.33 0.18"/><polygon points="4.91 2.86 4.95 2.64 4.39 0.4 4.37 0.4 4.6 1.61 4.91 2.86"/><polygon points="4.37 0.31 4.34 0.22 4.34 0.22 4.35 0.31 4.37 0.31"/><polygon points="4.39 0.4 4.37 0.31 4.35 0.31 4.37 0.4 4.39 0.4"/><path d="M4.16.05a.14.14,0,0,0,0,.06h0a.08.08,0,0,1,.07,0h0s0-.05,0-.05h0A.17.17,0,0,0,4.21,0S4.18,0,4.16.05Z"/><path d="M4.25.22h.09v0h0l0,0h0s0,0,0,0h0s0,0,0,.05h0Z"/><polygon points="4.37 0.4 4.29 0.4 4.6 1.61 4.37 0.4"/><polygon points="4.95 2.64 4.91 2.86 4.91 2.86 4.95 2.64 4.95 2.64"/><polygon points="4.35 0.31 4.34 0.22 4.25 0.22 4.27 0.31 4.35 0.31"/><polygon points="4.37 0.4 4.35 0.31 4.27 0.31 4.29 0.4 4.37 0.4"/><polygon points="5.02 3.26 5.09 3.19 5.06 3.07 5.02 3.26"/><polygon points="5.07 3.49 5.14 3.41 5.11 3.3 5.04 3.38 5.07 3.49"/><polygon points="4.96 3.07 4.96 3.08 5 2.86 5 2.85 4.96 3.07"/><polygon points="4.95 2.64 4.91 2.86 4.96 3.07 5 2.85 4.95 2.64"/><polygon points="5.06 3.07 5.06 3.07 5.01 3.29 5.04 3.38 5.11 3.3 5.09 3.19 5.02 3.26 5.06 3.07"/><polygon points="4.96 3.08 5.01 3.29 5.06 3.07 5 2.86 4.96 3.08"/><path d="M5.5,5.24s0,0,0,0l-.26-.41a.13.13,0,0,0,0,.06l.21.42h.11a.18.18,0,0,0,.06-.09l-.18-.36Z"/><path d="M3.51.28,4,.22H4l.14,0v0a0,0,0,0,1,0,0L3.49.19c-.11,0-.18.15-.24.29l.12,0C3.41.36,3.45.3,3.51.28Z"/><path d="M3.57,1.61l-.22.22,1.86,3a.1.1,0,0,1,0-.06h0L3.47,1.84l.16-.16a.09.09,0,0,0,0-.07.07.07,0,0,0,0-.06l-.4-.41A2.74,2.74,0,0,1,3.29.66l-.1,0a3.37,3.37,0,0,0-.06.48Z"/><path d="M5.39,4.83l0,.06-.35-1.4L5,3.58l.3,1.2A.09.09,0,0,1,5.39,4.83Z"/><path d="M4,.22H4Z"/><path d="M3.37.44l-.12,0,0,.11.1,0Z"/><path d="M3.29.66l0-.11-.1,0,0,.11Z"/><polygon points="4.87 3.07 4.91 2.86 4.6 1.61 4.87 3.07"/><path d="M4.14.16v0h0v0h.09V.15a.08.08,0,0,0-.07,0h0A0,0,0,0,0,4.14.16Zm0,0h0Z"/><polygon points="4.2 0.4 4.51 1.63 4.28 0.4 4.2 0.4"/><polygon points="4.26 0.31 4.24 0.22 4.15 0.22 4.18 0.31 4.26 0.31"/><polygon points="4.28 0.4 4.26 0.31 4.18 0.31 4.2 0.4 4.28 0.4"/><polygon points="4.25 0.22 4.23 0.15 4.23 0.15 4.24 0.22 4.25 0.22"/><polygon points="4.91 2.86 4.91 2.86 4.87 3.07 4.6 1.61 4.29 0.4 4.28 0.4 4.51 1.63 4.87 3.08 4.91 2.86"/><polygon points="4.27 0.31 4.25 0.22 4.24 0.22 4.26 0.31 4.27 0.31"/><polygon points="4.29 0.4 4.27 0.31 4.26 0.31 4.28 0.4 4.29 0.4"/><polygon points="5.04 3.38 4.99 3.44 4.97 3.5 4.98 3.51 4.98 3.51 4.98 3.51 4.99 3.58 5.07 3.49 5.04 3.38"/><polygon points="4.97 3.5 4.99 3.44 4.97 3.47 4.97 3.5"/><polygon points="4.96 3.07 4.92 3.29 4.92 3.29 4.96 3.08 4.96 3.07"/><polygon points="4.91 2.86 4.87 3.08 4.92 3.29 4.96 3.07 4.91 2.86"/><polygon points="5.04 3.38 5.01 3.29 4.99 3.44 5.04 3.38"/><polygon points="4.92 3.29 4.97 3.47 4.99 3.44 5.01 3.29 4.96 3.08 4.92 3.29"/><path d="M5.5,5.24l-.08-.35,0-.06a.09.09,0,0,0-.1,0v0l0,0h0a.1.1,0,0,0,0,.06l.26.41S5.51,5.26,5.5,5.24Z"/></g></g></svg>