<svg xmlns="http://www.w3.org/2000/svg" viewBox="0 0 8.43 13.63"><defs><style>.cls-1{fill:#f96178;}</style></defs><title>Asset 1</title><g id="Layer_2" data-name="Layer 2"><g id="_1" data-name=" 1"><path class="cls-1" d="M6.68,3.51h0V3.26a1.48,1.48,0,0,0-.12-.61.08.08,0,0,1,0-.12.09.09,0,0,1,.12,0,1.58,1.58,0,0,1,.15.69v.19H7a1.11,1.11,0,0,0,1-.2A2.48,2.48,0,0,0,6.1.56h0L5.78.41A1.77,1.77,0,0,1,5.37,1.7a1.3,1.3,0,0,1-1,.38h0a1.35,1.35,0,0,1-1-.38A1.82,1.82,0,0,1,3,.42L2.69.55h0A2.46,2.46,0,0,0,.79,3.25a1.08,1.08,0,0,0,1,.2h.17V3.26a1.74,1.74,0,0,1,.14-.69.11.11,0,0,1,.13,0,.09.09,0,0,1,0,.12,1.33,1.33,0,0,0-.13.61v.25h0v.62a.9.9,0,0,0,.95.59,1.28,1.28,0,0,0,.48-.09.09.09,0,0,1,.07.17,1.45,1.45,0,0,1-.55.1,1.33,1.33,0,0,1-.95-.37,5.15,5.15,0,0,0,.11,1l0,.17a4.19,4.19,0,0,1,.07.81,0,0,0,0,1,0,0s-.49,1.28-.57,1.55A28.9,28.9,0,0,1,.38,11.52a1.4,1.4,0,0,0,.69.36l.84-2.11a.09.09,0,0,1,.12,0,.1.1,0,0,1,.06.12L1.22,12l-.2.6a1.08,1.08,0,0,0,.91.36l.41-1.67a.11.11,0,0,1,.12-.07.09.09,0,0,1,.06.12l-.42,1.7h0a2.48,2.48,0,0,0,1.2.56H5.47a2.44,2.44,0,0,0,1.2-.56h0l-.43-1.7a.11.11,0,0,1,.07-.12.09.09,0,0,1,.11.07L6.85,13a1.09,1.09,0,0,0,.91-.36l-.2-.6L6.69,9.84a.09.09,0,0,1,.17-.07l.85,2.11a1.4,1.4,0,0,0,.69-.36A28.9,28.9,0,0,1,7.05,8.13l-.23-.59a5.08,5.08,0,0,1-.35-1,4.19,4.19,0,0,1,.07-.81l0-.17a5.27,5.27,0,0,0,.1-1,1.29,1.29,0,0,1-1,.37,1.45,1.45,0,0,1-.59-.12.09.09,0,1,1,.07-.17,1.31,1.31,0,0,0,.52.11.91.91,0,0,0,1-.59V3.51Z"/><path d="M.84,11.89l-.18.54a.09.09,0,0,0,0,.07S.9,13,1.77,13a2.48,2.48,0,0,0,1.36.65H5.3A2.44,2.44,0,0,0,6.66,13c.87,0,1.1-.46,1.11-.48a.09.09,0,0,0,0-.07l-.18-.54a1.86,1.86,0,0,0,.81-.45.11.11,0,0,0,0-.11A31.37,31.37,0,0,1,7.05,7.91c0-.11-.12-.34-.23-.61a6.85,6.85,0,0,1-.34-.92,3.85,3.85,0,0,1,.07-.78l0-.17a5.76,5.76,0,0,0,.11-1.1V4a.8.8,0,0,1-.09.26v.09a6.23,6.23,0,0,1-.14,1.27,4.12,4.12,0,0,0-.07.79c0,.16.49,1.29.57,1.56a28.83,28.83,0,0,0,1.38,3.43,1.57,1.57,0,0,1-.78.43.08.08,0,0,1,0,.09h0l.19.57s-.2.4-1,.43a.1.1,0,0,1-.07.09H6.56a2.58,2.58,0,0,1-1.26.57H3.13A2.62,2.62,0,0,1,1.87,13H1.81a.09.09,0,0,1-.07-.09c-.79,0-1-.43-1-.43l.19-.57h0a.1.1,0,0,1-.06-.09,1.63,1.63,0,0,1-.78-.43A29.31,29.31,0,0,0,1.47,7.93c.09-.27.58-1.55.58-1.55A4.12,4.12,0,0,0,2,5.59a6.23,6.23,0,0,1-.14-1.27V4.23A.82.82,0,0,1,1.74,4v.35a5.08,5.08,0,0,0,.11,1.11l0,.17A4.76,4.76,0,0,1,2,6.36c-.06.16-.49,1.28-.57,1.55A29.31,29.31,0,0,1,0,11.33a.09.09,0,0,0,0,.11A1.79,1.79,0,0,0,.84,11.89Z"/><path d="M1.83,3.79h0V3.43h0a.1.1,0,0,1-.09-.06H1.61A1.19,1.19,0,0,1,.53,3.12S.31.73,2.48.3L2.87.12s0,0,0,0c0,.37-.07,1.67,1.3,1.68S5.53.38,5.51.1c0,0,0,0,0,0L6,.3c2.17.43,2,2.82,2,2.82a1.21,1.21,0,0,1-1.09.25H6.69a.09.09,0,0,1-.08.06h0v.36h0a.08.08,0,0,1,.08.06V3.46h.12A1.26,1.26,0,0,0,8,3.19a.09.09,0,0,0,0-.06S8.2.66,6,.21L5.58,0a.09.09,0,0,0-.1,0,.11.11,0,0,0-.06.1A1.71,1.71,0,0,1,5.07,1.4a1.14,1.14,0,0,1-.86.33h0a1.22,1.22,0,0,1-.88-.33A1.66,1.66,0,0,1,3,.15.11.11,0,0,0,2.93,0a.14.14,0,0,0-.11,0L2.45.21C.24.66.43,3.1.43,3.13l0,.06a1.28,1.28,0,0,0,1.17.27h.11v.39A.1.1,0,0,1,1.83,3.79Z"/><path d="M6.52,12.91v0h0a2.44,2.44,0,0,1-1.2.56H3.13a2.48,2.48,0,0,1-1.2-.56h0v0s0,.05,0,.06a2.62,2.62,0,0,0,1.26.57H5.3A2.58,2.58,0,0,0,6.56,13,.07.07,0,0,1,6.52,12.91Z"/><path d="M1.74,3.27H1.57a1.08,1.08,0,0,1-.95-.2A2.46,2.46,0,0,1,2.5.39h0L2.81.25a1.82,1.82,0,0,0,.38,1.28,1.35,1.35,0,0,0,1,.38h0a1.3,1.3,0,0,0,1-.38A1.77,1.77,0,0,0,5.61.24l.3.14h0A2.48,2.48,0,0,1,7.82,3.08a1.11,1.11,0,0,1-1,.2H6.7v.06s0,0,0,0h.13a1.21,1.21,0,0,0,1.09-.25S8.12.73,6,.3L5.53.1s0,0,0,0c0,.28.08,1.71-1.3,1.72h0C2.84,1.81,2.89.51,2.91.14c0,0,0,0,0,0L2.48.3C.31.73.53,3.12.53,3.12a1.19,1.19,0,0,0,1.08.25h.13v-.1Z"/><path d="M.9,11.71a1.48,1.48,0,0,1-.7-.36A26.81,26.81,0,0,0,1.56,8c.08-.27.57-1.54.57-1.55a0,0,0,0,0,0,0,5.18,5.18,0,0,0-.07-.81l0-.18a5.15,5.15,0,0,1-.11-1,.47.47,0,0,1-.09-.12v.09A6.23,6.23,0,0,0,2,5.59a4.12,4.12,0,0,1,.07.79s-.49,1.28-.58,1.55A29.31,29.31,0,0,1,.09,11.37a1.63,1.63,0,0,0,.78.43v0Z"/><path d="M1.92,3.88a.22.22,0,0,0,0,.08V3.34a.09.09,0,0,1-.09.09v.36A.09.09,0,0,1,1.92,3.88Z"/><path d="M6.4,5.4l0,.17a4.19,4.19,0,0,0-.07.81,5.08,5.08,0,0,0,.35,1c.1.25.19.49.22.59a30.33,30.33,0,0,0,1.36,3.39,1.39,1.39,0,0,1-.7.36l0,.06v0a1.57,1.57,0,0,0,.78-.43A28.83,28.83,0,0,1,7,7.94c-.08-.27-.57-1.4-.57-1.56a4.12,4.12,0,0,1,.07-.79A6.23,6.23,0,0,0,6.6,4.32V4.23l-.1.12A5.39,5.39,0,0,1,6.4,5.4Z"/><path d="M1.76,12.8a1.12,1.12,0,0,1-.92-.36l.21-.6h0A.11.11,0,0,1,1,11.9h0l-.19.57s.21.4,1,.43v0Z"/><path d="M6.51,3.34v.54a.09.09,0,0,1,.09-.09V3.43S6.52,3.39,6.51,3.34Z"/><path d="M7.39,11.84h0l.2.6a1.09,1.09,0,0,1-.91.36v.07s0,0,0,0c.79,0,1-.43,1-.43l-.19-.57h0A.1.1,0,0,1,7.39,11.84Z"/><path d="M1.74,3.88v0Z"/><path d="M2.88,4.73a1.45,1.45,0,0,0,.55-.1.09.09,0,0,0-.07-.17,1.28,1.28,0,0,1-.48.09A.9.9,0,0,1,1.93,4v.39A1.28,1.28,0,0,0,2.88,4.73Z"/><path d="M1.83,3.79h0a.1.1,0,0,0-.09.06V4a.82.82,0,0,0,.1.26Z"/><path d="M1.93,4.32V4a.22.22,0,0,1,0-.08.09.09,0,0,0-.09-.09v.44a.47.47,0,0,0,.09.12Z"/><path d="M6.7,3.88V4S6.7,3.91,6.7,3.88Z"/><path d="M5.55,4.55A1.31,1.31,0,0,1,5,4.44.09.09,0,1,0,5,4.61a1.45,1.45,0,0,0,.59.12,1.26,1.26,0,0,0,1-.38V4A.91.91,0,0,1,5.55,4.55Z"/><path d="M6.61,3.79h0v.44A.8.8,0,0,0,6.69,4V3.85A.08.08,0,0,0,6.61,3.79Z"/><path d="M6.51,3.88v.47l.1-.12V3.79A.09.09,0,0,0,6.51,3.88Z"/><path d="M1.86,9.55a.09.09,0,0,0-.12,0L.9,11.71H1a.12.12,0,0,1,.08,0,.11.11,0,0,1,0,.08h0l.86-2.17A.09.09,0,0,0,1.86,9.55Z"/><path d="M.87,11.8a.1.1,0,0,0,.06.09h0l0-.09Z"/><path d="M1.05,11.84h0a.11.11,0,0,0,0-.08.12.12,0,0,0-.08,0H.9l0,.06v0H1l0,.09H1A.11.11,0,0,0,1.05,11.84Z"/><path d="M2.29,11.06a.11.11,0,0,0-.12.07L1.76,12.8h.07a.09.09,0,0,1,.08,0l0,0,.42-1.7A.11.11,0,0,0,2.29,11.06Z"/><path d="M1.83,12.89H1.74a.09.09,0,0,0,.07.09h.06l0,0Z"/><path d="M1.92,12.91v0l0,0a.09.09,0,0,0-.08,0H1.76l0,.07v0h.09l0,0,0,0S1.91,12.94,1.92,12.91Z"/><path d="M6.57,9.55a.09.09,0,0,0-.05.12l.87,2.17h0a.08.08,0,0,1,0-.08.1.1,0,0,1,.07,0h.06L6.69,9.6A.09.09,0,0,0,6.57,9.55Z"/><path d="M7.5,11.89h0a.08.08,0,0,0,0-.09H7.47Z"/><path d="M7.53,11.71H7.47a.1.1,0,0,0-.07,0,.08.08,0,0,0,0,.08h0a.1.1,0,0,0,.08.06h0l0-.09h.09v0Z"/><path d="M6.15,11.06a.11.11,0,0,0-.07.12l.43,1.7v0a.11.11,0,0,1,.09,0h.07l-.42-1.67A.09.09,0,0,0,6.15,11.06Z"/><path d="M6.58,12.93a.05.05,0,0,1,0,0h.07a.1.1,0,0,0,.07-.09H6.6Z"/><path d="M6.68,12.8H6.61a.11.11,0,0,0-.09,0v.06a.07.07,0,0,0,0,.06.05.05,0,0,0,0,0l0,0h.1s0,0,0,0Z"/><path d="M1.92,3.09a1.33,1.33,0,0,1,.13-.61.09.09,0,0,0,0-.12.11.11,0,0,0-.13,0,1.74,1.74,0,0,0-.14.69v.18h.13a.1.1,0,0,1,0,.06h0Z"/><path d="M1.74,3.37a.1.1,0,0,0,.09.06h0V3.36Z"/><path d="M1.92,3.34a.1.1,0,0,0,0-.06H1.74v.1h.09v.07A.09.09,0,0,0,1.92,3.34Z"/><path d="M6.55,2.4a.1.1,0,0,0-.12,0,.08.08,0,0,0,0,.12,1.48,1.48,0,0,1,.12.61v.25h0a.15.15,0,0,1,0-.06H6.7V3.09A1.58,1.58,0,0,0,6.55,2.4Z"/><path d="M6.6,3.43h0a.09.09,0,0,0,.08-.06H6.6Z"/><path d="M6.7,3.28H6.56a.15.15,0,0,0,0,.06c0,.05,0,.09.09.09V3.37h.09s0,0,0,0Z"/></g></g></svg>