<svg xmlns="http://www.w3.org/2000/svg" viewBox="0 0 9.74 13.64"><defs><style>.cls-1{fill:#f7d450;}.cls-2{fill:#7f7f7f;}</style></defs><title>Asset 7</title><g id="Layer_2" data-name="Layer 2"><g id="_1" data-name=" 1"><path class="cls-1" d="M.48,12.08h0c0,.78.09,1.35.11,1.55H1.91V12.08Z"/><path class="cls-1" d="M1.91,11.89v-.38A.5.5,0,0,1,2,11.2v-.15a.57.57,0,0,1-.11-.33v-.38H.48a.09.09,0,1,1,0-.18H1.91V9.78a.51.51,0,0,1,.15-.37l0,0,0,0A.54.54,0,0,1,1.91,9V8.6H.48a.09.09,0,1,1,0-.18H1.91V8a.51.51,0,0,1,.15-.37l0,0,0,0a.51.51,0,0,1-.15-.37V5.92l0-.11h0V5.62l0,0V5.49l0-.07h0a11.75,11.75,0,0,1-.44-2h0l0-.34A3.5,3.5,0,0,0,.54,5l1,.21a.09.09,0,0,1,.08.1.09.09,0,0,1-.09.08h0l-1-.21A23.92,23.92,0,0,0,.36,8.3c0,1.32,0,2.61.1,3.6H1.91ZM.5,6.68l1.3.22A.09.09,0,0,1,1.87,7a.09.09,0,0,1-.09.08h0L.46,6.87a.09.09,0,0,1-.07-.11A.1.1,0,0,1,.5,6.68Z"/><path d="M.31,13.64H1.83a.09.09,0,0,0,.09-.09v-.63l-.09-.08v.71H.31S.09,11,.09,8.12A22.47,22.47,0,0,1,.26,4.94a.08.08,0,0,1,0-.09.11.11,0,0,1,.06-.07,3.37,3.37,0,0,1,.81-2V2.7a.09.09,0,0,1,0-.08h0C.33,3.22,0,4.82,0,8.12c0,2.8.22,5.41.22,5.44A.08.08,0,0,0,.31,13.64Z"/><path d="M.33,4.78h0a3.5,3.5,0,0,1,.73-1.9.49.49,0,0,0,0-.12,3.37,3.37,0,0,0-.81,2S.31,4.77.33,4.78Z"/><path d="M1.92,11l0,0,0,0V11l0-.06Z"/><path d="M1.74,12.68v.78H.39c0-.21,0-.77-.1-1.56a.08.08,0,0,1-.07-.08.09.09,0,0,1,.06-.09c-.05-1-.1-2.28-.1-3.61A23.67,23.67,0,0,1,.34,5H.29l0,0A22.47,22.47,0,0,0,.09,8.12c0,2.83.22,5.43.22,5.43H1.83v-.71a.37.37,0,0,1-.08-.11A.09.09,0,0,1,1.74,12.68Z"/><path class="cls-1" d="M4.17,6H2.52l-.1,1.55H4.17a.09.09,0,0,1,.09.09.09.09,0,0,1-.09.1H2.41l-.1,1.55H4.17a.09.09,0,0,1,0,.18H2.3L2.21,11l0,0H4.17a.09.09,0,0,1,0,.18H2.25l-.06.06h0l-.1,1.56c.05.08.29.37,1,.37H5V5.59L4.22,6Z"/><path class="cls-1" d="M2.09,6V7.25a.37.37,0,0,0,.1.24l.05,0L2.34,6Z"/><path class="cls-1" d="M2.19,7.8a.35.35,0,0,0-.1.24V9a.34.34,0,0,0,.05.17l.09-1.38Z"/><path class="cls-1" d="M2.09,9.78V9.9l0-.21A.29.29,0,0,0,2.09,9.78Z"/><path class="cls-1" d="M2.09,11.51v1.32h0l.1-1.56A.37.37,0,0,0,2.09,11.51Z"/><polygon class="cls-1" points="2.33 7.55 2.42 7.55 2.52 6 2.43 6 2.33 7.55"/><polygon class="cls-1" points="2.22 9.26 2.25 9.29 2.31 9.29 2.41 7.74 2.32 7.74 2.22 9.26"/><path class="cls-1" d="M2.21,9.52l-.09,1.34a.36.36,0,0,0,.07.1l0,0L2.3,9.47h0Z"/><path class="cls-1" d="M2.11,9.69l0,.21v.82a.32.32,0,0,0,0,.14l.09-1.34,0,0A.28.28,0,0,0,2.11,9.69Z"/><path class="cls-1" d="M2.23,7.77,2.14,9.15a.35.35,0,0,0,0,.08l0,0,.1-1.52H2.25Z"/><polygon class="cls-1" points="2.33 7.55 2.43 6 2.34 6 2.24 7.54 2.25 7.55 2.33 7.55"/><path d="M1.15,2.61l.07-.06Z"/><polygon points="1.14 2.61 1.13 2.62 1.13 2.62 1.13 2.62 1.14 2.61"/><path d="M2.83,1.87a9.47,9.47,0,0,0-1.4.56,9.47,9.47,0,0,1,1.4-.56Z"/><path d="M1.33,2.49l.1-.06Z"/><path d="M1.23,2.55l.09-.06Z"/><path d="M4.78,13.12H2.91a1.35,1.35,0,0,1-1-.32v.12a1.5,1.5,0,0,0,1,.29h2A.09.09,0,0,1,4.78,13.12Z"/><path d="M1.6,5.34v0Z"/><path d="M1.62,5.41v0Z"/><path d="M1.57,5.25Z"/><path d="M1.66,5.54v0Z"/><path d="M1.83,10.55v-.38H1.74v.38a.57.57,0,0,0,.11.33v-.17A.41.41,0,0,1,1.83,10.55Z"/><path d="M1.83,9.61A.42.42,0,0,1,2,9.31V9.12H2a.4.4,0,0,1-.13-.31V8.43H1.74v.38a.54.54,0,0,0,.15.38l0,0,0,0a.5.5,0,0,0-.15.37V10h.09Z"/><path d="M1.64,5.48v0Z"/><polygon points="1.74 12.68 1.78 11.91 1.74 11.91 1.74 12.68"/><path d="M1.7,5.64v0Z"/><path d="M1.68,5.59v0Z"/><path d="M1.11,2.88h0l0,.34Z"/><path d="M1.74,11.34v.38H1.8l0-.69A.5.5,0,0,0,1.74,11.34Z"/><path d="M1.83,7.87A.42.42,0,0,1,2,7.56l0,0a.09.09,0,0,1,0-.07.09.09,0,0,1,0-.06l0,0a.39.39,0,0,1-.13-.3V5.83a.1.1,0,0,1-.09-.06.93.93,0,0,0,0-.13l0,.11V7.08a.51.51,0,0,0,.15.37l0,0,0,0a.51.51,0,0,0-.15.37v.38h.09Z"/><path d="M1.09,2.7v.07h0V2.69a.11.11,0,0,1,0-.07h0A.09.09,0,0,0,1.09,2.7Z"/><path d="M1.83,12.68v.16l.09.08V12.8A.41.41,0,0,1,1.83,12.68Z"/><path d="M2,10.88l0,0,0,0v.23l0,0,0,0A.07.07,0,0,1,2,11,.09.09,0,0,1,2,10.88Z"/><path d="M2,9.28a.09.09,0,0,1,0-.07.06.06,0,0,1,0-.06l0,0v.19H2Z"/><path d="M1.83,11.91h0l-.05.77a.09.09,0,0,0,0,.05.37.37,0,0,0,.08.11v-.93Z"/><path d="M1.93,11.07v-.23a.57.57,0,0,1-.08-.13v.17l0,0,0,0,0,0,0,.06,0,.69h0v-.38A.45.45,0,0,1,1.93,11.07Z"/><path d="M1.11,2.88V2.76h0a.49.49,0,0,1,0,.12Z"/><polygon points="2.05 10.86 2.08 10.86 2.04 10.81 2.04 10.86 2.05 10.86"/><path d="M4.78,13H2.91c-.7,0-.94-.29-1-.37v.14a1.35,1.35,0,0,0,1,.32H4.78Z"/><path d="M2,11v.07H2L2.08,11H2Z"/><path d="M2,7.38l0,0a.09.09,0,0,1,.07,0h0l0,0a.37.37,0,0,1-.1-.24V5.83H1.83V7.08A.39.39,0,0,0,2,7.38Z"/><path d="M1.92,8.81V8.34a.09.09,0,0,1-.09.09h0v.38A.4.4,0,0,0,2,9.12H2V9A.34.34,0,0,1,1.92,8.81Z"/><path d="M1.92,8.34V7.87A.35.35,0,0,1,2,7.63l0,0v0h0a.09.09,0,0,1-.07,0l0,0a.42.42,0,0,0-.13.31v.38h0A.09.09,0,0,1,1.92,8.34Z"/><path d="M1.9,10l0-.3V9.61s0-.06,0-.09l0-.21a.42.42,0,0,0-.12.3V10h0A.07.07,0,0,1,1.9,10Z"/><path d="M1.83,10.17h0v.38a.41.41,0,0,0,0,.16l0-.57A.09.09,0,0,1,1.83,10.17Z"/><path d="M2,11.1V11l0,0,0,0,0,0,0,.68a.08.08,0,0,1,0,.07v-.48A.37.37,0,0,1,2,11.1Z"/><polygon points="2.08 9.12 2.05 9.09 2.05 9.12 2.08 9.12"/><polygon points="2.04 9.3 2.04 9.35 2.08 9.3 2.05 9.3 2.04 9.3"/><path d="M1.92,12.66h0v-.84a.1.1,0,0,1,0,.07l0,.79a.41.41,0,0,0,.09.12v-.14Z"/><path d="M2,10.69v.15l0,0,0,0a.08.08,0,0,1,.06,0v0l0,0A.36.36,0,0,1,2,10.69Z"/><path d="M1.9,10a.08.08,0,0,1,0,.05V9.73Z"/><path d="M2,9.37l0,0v0L2,9.28l0,0H2l0,.21A.38.38,0,0,1,2,9.37Z"/><polygon points="2.07 7.37 2.07 7.38 2.08 7.38 2.07 7.37"/><path d="M1.83,11.34v.38h0l.06,0,0-.68A.45.45,0,0,0,1.83,11.34Z"/><path d="M1.92,10.55v-.47a.11.11,0,0,1,0,.06l0,.57a.57.57,0,0,0,.08.13v-.15A.32.32,0,0,1,1.92,10.55Z"/><path d="M1.83,11.91h0v.77l0-.79Z"/><path d="M2.05,9.12h0v0l0,0A.35.35,0,0,1,2,9v.14l0,0A.09.09,0,0,1,2.05,9.12Z"/><polygon points="2.06 7.57 2.06 7.59 2.08 7.57 2.06 7.57"/><path d="M4,7.57a.1.1,0,0,0,.09-.1A.09.09,0,0,0,4,7.38H2.25v.19Z"/><polygon points="2.15 7.57 2.24 7.57 2.25 7.38 2.16 7.38 2.15 7.57"/><path d="M2.11,7.41a.09.09,0,0,1,0,.13l0,0h.07V7.38H2.08Z"/><path d="M2,7.41a.09.09,0,0,0,0,.06.09.09,0,0,0,0,.07l.07-.07Z"/><path d="M2.06,7.57V7.38h0a.09.09,0,0,0-.07,0l.07.06L2,7.54a.09.09,0,0,0,.07,0Z"/><path d="M2.08,7.57l0,0a.09.09,0,0,0,0-.13l0,0h0v.19Z"/><path class="cls-2" d="M2.53,5v.78H4.15L5,5.38V3.79A5.12,5.12,0,0,1,3.06,2.21a7.37,7.37,0,0,0-1.59.69L2.52,5S2.53,5,2.53,5Z"/><path class="cls-2" d="M2.34,5.06,1.48,3.35v.16l0,.17v0c0,.13,0,.25.07.37h0c0,.25.1.49.16.71h0a1.94,1.94,0,0,1,.05.2V5l0,.09h0c0,.06,0,.1,0,.15v0l0,.06,0,.08v0l0,0v0l0,.07v0l0,0v.07h.28Z"/><path class="cls-2" d="M2.43,5.82h.1V5s0,0,0,0l-1-2.1h0v.21L2.43,5Z"/><polygon class="cls-2" points="2.34 5.82 2.43 5.82 2.43 5.04 1.47 3.11 1.48 3.35 2.34 5.06 2.34 5.82"/><polygon class="cls-2" points="2.06 5.82 2.06 5.82 2.06 5.81 2.06 5.82"/><path class="cls-2" d="M1.53,3.68l0-.17Z"/><path class="cls-2" d="M1.84,5.12l0-.09Z"/><path class="cls-2" d="M1.49,3.39v0Z"/><path class="cls-2" d="M2,5.51v0Z"/><path class="cls-2" d="M1.89,5.28s0-.09,0-.15S1.88,5.23,1.89,5.28Z"/><path class="cls-2" d="M1.92,5.38l0-.06Z"/><path class="cls-2" d="M1.81,5a1.94,1.94,0,0,0-.05-.2A1.94,1.94,0,0,1,1.81,5Z"/><path class="cls-2" d="M1.76,4.81c-.06-.22-.11-.46-.16-.71C1.65,4.35,1.7,4.59,1.76,4.81Z"/><path class="cls-2" d="M2,5.7v0Z"/><path class="cls-2" d="M1.6,4.09c0-.12-.05-.24-.07-.37C1.55,3.85,1.57,4,1.6,4.09Z"/><path class="cls-2" d="M2.05,5.76v0Z"/><path class="cls-2" d="M2,5.6v0Z"/><path d="M1.22,2.55h0Z"/><path d="M1.32,2.49h0Z"/><path d="M1.43,2.43Z"/><polygon points="1.14 2.61 1.14 2.61 1.15 2.61 1.14 2.61"/><path d="M1.69,5.61v0Z"/><path d="M1.67,5.56v0Z"/><path d="M1.63,5.45v0Z"/><path d="M1.59,5.32l0-.07Z"/><path d="M1.61,5.39v0Z"/><path d="M1.7,5.64Z"/><path d="M1.65,5.51v0Z"/><path d="M1.13,3.23a11.75,11.75,0,0,0,.44,2,12,12,0,0,1-.44-2Z"/><path d="M4,5.74H2.36v.09H4l.74-.41v-.1Z"/><polygon points="2.17 5.74 1.92 5.74 1.92 5.74 1.92 5.83 2.17 5.83 2.17 5.74"/><polygon points="2.26 5.74 2.26 5.74 2.26 5.74 2.26 5.83 2.35 5.83 2.35 5.74 2.35 5.74 2.35 5.74 2.26 5.74 2.26 5.74"/><polygon points="2.17 5.83 2.26 5.83 2.26 5.74 2.26 5.74 2.26 5.74 2.26 5.74 2.17 5.74 2.17 5.83"/><path d="M1.2,2.61a.07.07,0,0,1,.05,0A6.68,6.68,0,0,1,2.86,2a.32.32,0,0,1,0-.09,9.47,9.47,0,0,0-1.4.56h0l-.1.06h0l-.09.06h0l-.07.06h0A.08.08,0,0,1,1.2,2.61Z"/><path d="M1.57,5.25h0l0,.07v.32h0a.93.93,0,0,1,0,.13.1.1,0,0,0,.09.06V5.74h0v0h0a11.22,11.22,0,0,1-.51-2V3.23h0a2.46,2.46,0,0,1,0-.28l-.05-.1,0,0,0,.35A12,12,0,0,0,1.57,5.25Z"/><path d="M1.18,2.71v0h0l.06,0a.07.07,0,0,0-.05,0,.08.08,0,0,0-.07,0,.11.11,0,0,0,0,.07v.07l.08-.06Z"/><path d="M1.15,2.84l.05.1c0-.07,0-.15,0-.23h0l-.08.06v.12Z"/><path d="M2.86,2h0a6.68,6.68,0,0,0-1.61.69h0A6.68,6.68,0,0,1,2.86,2Z"/><path d="M1.83,5.74h0Z"/><path d="M1.81,5.68a11.5,11.5,0,0,1-.51-2A11.22,11.22,0,0,0,1.81,5.68Z"/><path d="M1.29,3.69v0Z"/><path d="M1.21,3v0a2.46,2.46,0,0,0,0,.28Z"/><polygon points="1.92 5.83 1.92 5.74 1.92 5.74 1.83 5.74 1.83 5.83 1.83 5.83 1.92 5.83"/><path d="M1.25,3.43v0Z"/><path d="M1.27,3.56v0Z"/><path d="M1.23,3.3v0Z"/><path d="M1.82,5.72h0Z"/><path d="M1.82,5.7v0Z"/><path d="M1.19,2.69h0v0Z"/><path d="M1.25,2.65h0l-.06,0Z"/><path d="M1.19,2.73v0c0,.08,0,.16,0,.23V3Z"/><path d="M2.89,2h0a7.37,7.37,0,0,0-1.59.69h0A7.37,7.37,0,0,1,2.89,2Z"/><polygon points="4.78 5.21 3.98 5.64 2.35 5.64 2.35 5.74 4 5.74 4.78 5.31 4.78 5.26 4.78 5.21"/><path d="M1.65,4.86v0Z"/><path d="M1.81,5.39l0,0Z"/><path d="M1.87,5.57l0,0Z"/><path d="M1.68,5h0Z"/><path d="M1.59,4.64Z"/><path d="M1.84,5.5l0-.07Z"/><path d="M1.73,5.15v0Z"/><path d="M1.78,5.29l0-.08Z"/><path d="M1.33,3.34s0-.06,0-.08Z"/><path d="M1.43,3.93h0Z"/><path d="M1.36,3.55v0Z"/><path d="M1.89,5.64v0Z"/><path d="M2.17,5.73V5.64H1.89l0,.06v0h.25Z"/><path d="M1.31,3.17v0Z"/><path d="M1.29,2.73h0a1.09,1.09,0,0,0,0,.18V2.73Z"/><rect x="2.26" y="5.64" width="0.09" height="0.09"/><polygon points="2.17 5.73 2.17 5.74 2.26 5.74 2.26 5.64 2.17 5.64 2.17 5.73"/><path d="M1.31,3.18V2.92a2.11,2.11,0,0,0,0,.25Z"/><path d="M1.26,3.48v0Z"/><path d="M1.3,3.72v0Z"/><path d="M1.24,3.36v0Z"/><path d="M1.82,5.71h0Z"/><path d="M1.81,5.68Z"/><path d="M1.28,3.6v0Z"/><path d="M1.22,3.22h0Z"/><path d="M1.82,5.73h0Z"/><polygon points="1.19 2.69 1.19 2.69 1.19 2.69 1.19 2.69"/><path d="M1.3,2.73A7.37,7.37,0,0,1,2.89,2l0-.08a6.68,6.68,0,0,0-1.61.69h0Z"/><path d="M1.92,5.7l0-.06h0V5.57l0,0v0l0-.07v0l0,0v0l0-.08,0-.06v0c0-.05,0-.1,0-.15h0a.29.29,0,0,0,0-.09v0a1.94,1.94,0,0,0,0-.2h0c-.06-.22-.11-.46-.16-.71h0c0-.12-.05-.24-.07-.37v0l0-.17V3.17L1.21,3v.26h0v.49a11.5,11.5,0,0,0,.51,2h0v0h.1Z"/><path d="M1.29,2.92a1.09,1.09,0,0,1,0-.18h0l0-.07h0l-.06,0h0v0Z"/><path d="M1.29,2.92l-.1-.19,0,.23.1.21A2.11,2.11,0,0,1,1.29,2.92Z"/><path d="M4,9.3a.09.09,0,0,0,0-.18H2.14V9.3Z"/><path d="M2.11,9.15a.09.09,0,0,1,0,.13l0,0h0V9.12H2.08Z"/><path d="M2,9.15a.06.06,0,0,0,0,.06.09.09,0,0,0,0,.07l.07-.07Z"/><path d="M2.05,9.21V9.3h0l0,0a.09.09,0,0,0,0-.13l0,0h0Z"/><path d="M2,9.28,2,9.3V9.21Z"/><path d="M2.05,9.12h0a.09.09,0,0,0-.07,0l.07.06Z"/><path d="M2.11,11l0,0H4A.09.09,0,0,0,4.09,11a.1.1,0,0,0-.09-.1H2.08l0,0A.09.09,0,0,1,2.11,11Z"/><polygon points="2.05 10.95 2.03 10.93 2.03 10.96 2.05 10.95"/><path d="M2,10.93l0,0A.09.09,0,0,0,2,11,.07.07,0,0,0,2,11l0,0Z"/><path d="M2,10.86v.07l0,0H2V11h.06l0,0a.09.09,0,0,0,0-.13l0,0H2Z"/><path d="M2,11l0,0V11Z"/><path d="M2,10.86a.08.08,0,0,0-.06,0l0,0Z"/><path d="M1.74,11.91v-.19H.28v.17H1.74Z"/><path d="M.22,11.82a.08.08,0,0,0,.07.08v-.17A.09.09,0,0,0,.22,11.82Z"/><polygon points="1.74 11.72 1.74 11.91 1.78 11.91 1.8 11.72 1.74 11.72"/><polygon points="1.8 11.72 1.78 11.91 1.83 11.91 1.83 11.72 1.8 11.72"/><path d="M1.89,11.75v.14a.1.1,0,0,0,0-.07A.08.08,0,0,0,1.89,11.75Z"/><path d="M1.88,11.89v-.14l-.06,0h0v.19h0Z"/><path d="M.31,10a.09.09,0,1,0,0,.18H1.74V10Z"/><rect x="1.74" y="9.99" width="0.09" height="0.18"/><path d="M1.9,10.14V10a.07.07,0,0,0-.07,0h0v.18h0A.09.09,0,0,0,1.9,10.14Z"/><path d="M1.9,10.14a.11.11,0,0,0,0-.06.08.08,0,0,0,0-.05Z"/><path d="M.31,8.25a.09.09,0,1,0,0,.18H1.74V8.25Z"/><rect x="1.74" y="8.25" width="0.09" height="0.18"/><path d="M1.92,8.34a.09.09,0,0,0-.09-.09h0v.18h0A.09.09,0,0,0,1.92,8.34Z"/><path d="M.29,6.7l1.31.21h0a.08.08,0,0,0,.09-.07.09.09,0,0,0-.07-.11L.32,6.51a.1.1,0,0,0-.1.08A.09.09,0,0,0,.29,6.7Z"/><path d="M1.39,5.18a.1.1,0,0,0,.1-.08S1.46,5,1.41,5l-1-.2L.34,5l1,.21Z"/><path d="M.22,4.85a.08.08,0,0,0,0,.09,1,1,0,0,1,0-.16A.11.11,0,0,0,.22,4.85Z"/><path d="M.29,5H.34l0-.18h0s0,0,0,0a1,1,0,0,0,0,.16Z"/><path class="cls-1" d="M8.17,12.08v.77h0v.77H9.51c0-.2.06-.77.1-1.55H8.17Z"/><path class="cls-1" d="M8.78,3.4c0,.08,0,.16,0,.25h0a.43.43,0,0,1,0,.11v0s0,.06,0,.1v0l0,.09V4.3l0,.07v.12l0,0v.11l0,0v.11l0,.05V5a1.82,1.82,0,0,1-.07.25h0l0,.06v0l0,.06v.1l0,0v0l0,0h0l0,0h0l0,0v.06h0v0h0l0,.11V7.25A.51.51,0,0,1,8,7.62l0,0,0,0A.51.51,0,0,1,8.17,8v.38H9.6a.09.09,0,0,1,0,.18H8.17V9A.54.54,0,0,1,8,9.36l0,0,0,0a.51.51,0,0,1,.15.37v.38H9.6a.09.09,0,1,1,0,.18H8.17v.38a.57.57,0,0,1-.11.33v.15a.57.57,0,0,1,.1.31v.38H9.62c.05-1,.1-2.28.1-3.6a25.76,25.76,0,0,0-.15-3.16l-1,.21h0a.09.09,0,0,1-.09-.08.08.08,0,0,1,.07-.1l1-.21a3.5,3.5,0,0,0-.73-1.9l0,.34Zm.8,3.28a.11.11,0,0,1,.11.08.1.1,0,0,1-.08.11l-1.3.21h0a.1.1,0,0,1,0-.19Z"/><path d="M8.65,2.7a.15.15,0,0,0,0,.07,3.31,3.31,0,0,1,.82,2,.11.11,0,0,1,.06.07.08.08,0,0,1,0,.09,24.26,24.26,0,0,1,.16,3.18c0,2.83-.21,5.43-.21,5.43H7.91v-.71l-.09.08v.63a.09.09,0,0,0,.09.09H9.43a.08.08,0,0,0,.09-.08s.22-2.64.22-5.44c0-3.3-.33-4.9-1.13-5.5h0A.12.12,0,0,1,8.65,2.7Z"/><path d="M7.82,11l0,0L7.9,11v-.15l0,0Z"/><path d="M9.37,4.79h0s0,0,.05,0a3.31,3.31,0,0,0-.82-2v.12A3.5,3.5,0,0,1,9.37,4.79Z"/><path d="M9.45,5h0a25.59,25.59,0,0,1,.15,3.15c0,1.33-.05,2.62-.1,3.61a.09.09,0,0,1,.07.09.08.08,0,0,1-.08.08c0,.79-.08,1.35-.1,1.56H8v-.77a.08.08,0,0,1,0,0l-.08.11v.71H9.43s.21-2.6.21-5.43a24.26,24.26,0,0,0-.16-3.18Z"/><path class="cls-1" d="M7.89,11.27l-.07-.06H5.91a.09.09,0,0,1,0-.18H7.82l0,0-.1-1.51H5.91a.09.09,0,0,1,0-.18H7.76L7.67,7.74H5.91a.09.09,0,0,1-.09-.1.09.09,0,0,1,.09-.09H7.65L7.56,6H5.86l-.73-.4V13.2H7c.7,0,.94-.29,1-.37l-.09-1.56Z"/><path class="cls-1" d="M7.84,7.54l0,0A.37.37,0,0,0,8,7.25V6H7.74Z"/><path class="cls-1" d="M8,9V8a.35.35,0,0,0-.1-.24l0,0,.09,1.38A.34.34,0,0,0,8,9Z"/><path class="cls-1" d="M8,9.78a.29.29,0,0,0,0-.09L8,9.9Z"/><polygon class="cls-1" points="7.85 9.26 7.76 7.74 7.67 7.74 7.76 9.29 7.82 9.29 7.85 9.26"/><path class="cls-1" d="M8,10.86,7.87,9.52l0,0H7.77L7.87,11l0,0A.33.33,0,0,0,8,10.86Z"/><polygon class="cls-1" points="7.65 6 7.56 6 7.66 7.55 7.75 7.55 7.65 6"/><path class="cls-1" d="M7.89,11.27,8,12.83H8V11.51A.37.37,0,0,0,7.89,11.27Z"/><polygon class="cls-1" points="7.65 6 7.75 7.55 7.82 7.55 7.84 7.54 7.74 6 7.65 6"/><path class="cls-1" d="M7.94,9.15,7.85,7.77l0,0H7.76l.09,1.52,0,0Z"/><path class="cls-1" d="M8,10.25V9.9l0-.21a.28.28,0,0,0-.08-.15l0,0L8,10.86a.33.33,0,0,0,0-.14Z"/><path d="M8.31,2.43l.1.06Z"/><path d="M8.41,2.49l.09.06Z"/><path d="M6.82,13.12H5a.09.09,0,0,1-.09.09h2a1.51,1.51,0,0,0,1-.29V12.8A1.36,1.36,0,0,1,6.82,13.12Z"/><path d="M8.31,2.43a9.94,9.94,0,0,0-1.4-.56h0A9.94,9.94,0,0,1,8.31,2.43Z"/><polygon points="8.61 2.62 8.61 2.62 8.6 2.61 8.61 2.62 8.61 2.62"/><path d="M8.51,2.55l.08.06Z"/><path d="M5,13.12H4.78a.09.09,0,1,0,.18,0Z"/><path d="M4.78,5.41v7.71h.09V5.36Z"/><path d="M4.82,5.34l0,0h0v.1l.09,0h0Z"/><path d="M4.78,5.31h0s0,0,0,0Z"/><path d="M7.91,8.81a.44.44,0,0,1-.13.31h0v.19a.47.47,0,0,1,.12.3V10H8V9.61a.5.5,0,0,0-.15-.37l0,0,0,0A.54.54,0,0,0,8,8.81V8.43H7.91Z"/><path d="M7.78,7.38l0,0a.14.14,0,0,1,0,.06.14.14,0,0,1,0,.07l0,0a.46.46,0,0,1,.13.31v.38H8V7.87a.51.51,0,0,0-.15-.37l0,0,0,0A.51.51,0,0,0,8,7.08V5.75l0-.11,0,.13a.08.08,0,0,1-.08.06V7.08A.43.43,0,0,1,7.78,7.38Z"/><path d="M7.91,10.55a.41.41,0,0,1,0,.16v.17A.57.57,0,0,0,8,10.55v-.38H7.91Z"/><path d="M8.3,4.79v0Z"/><path d="M8.38,4.48v0Z"/><path d="M8.4,4.37v0Z"/><path d="M8.35,4.59v0Z"/><path d="M8.06,5.6v0Z"/><path d="M8.32,4.69l0-.05Z"/><path d="M8,5.64v0Z"/><path d="M8.15,5.29l0-.06Z"/><path d="M8.45,4.13v0Z"/><path d="M8.09,5.49l0,0Z"/><path d="M8.48,4V4Z"/><path d="M8.13,5.36l0-.05Z"/><path d="M8.22,5.06c0-.08,0-.16.07-.25C8.27,4.9,8.24,5,8.22,5.06Z"/><path d="M8.43,4.25v0Z"/><path d="M8.2,5.13l0-.06Z"/><path d="M8.57,3.49h0Z"/><path d="M8.18,5.21l0-.06Z"/><path d="M8.11,5.43l0,0Z"/><path d="M8.64,2.89h0l0,.35C8.62,3.11,8.63,3,8.64,2.89Z"/><path d="M8.53,3.76v0Z"/><path d="M8.55,3.63v0Z"/><path d="M8,11.72v-.38A.57.57,0,0,0,7.9,11l0,.69Z"/><path d="M8.07,5.54l0,0Z"/><polygon points="8 11.91 7.95 11.91 8 12.68 8 12.69 8 12.68 8 11.91"/><path d="M8.5,3.89v0Z"/><path d="M7.78,10.86l0,0a.14.14,0,0,1,0,.07.11.11,0,0,1,0,.06l0,0,0,0,0-.23Z"/><path d="M7.91,12.84v-.16l-.09.12v.12Z"/><path d="M8.64,2.69v.07h0a.15.15,0,0,1,0-.07.12.12,0,0,0,0-.08h0A.11.11,0,0,1,8.64,2.69Z"/><path d="M8.64,2.89V2.77h0v.12Z"/><path d="M8,12.69H8l0-.77h0v.93L8,12.73A.08.08,0,0,0,8,12.69Z"/><path d="M7.78,9.21a.14.14,0,0,1,0,.07l0,0h0V9.12l0,0A.08.08,0,0,1,7.78,9.21Z"/><path d="M7.79,10.84l0,.23a.45.45,0,0,1,.1.27v.38h0l0-.69L7.85,11l0,0,0,0,0,0v-.17A.38.38,0,0,1,7.79,10.84Z"/><polygon points="7.7 10.86 7.7 10.81 7.65 10.86 7.69 10.86 7.7 10.86"/><path d="M7.65,11l.07.06h0V11H7.65Z"/><path d="M7.81,12.66c0,.08-.29.37-1,.37H5v.09H6.82a1.36,1.36,0,0,0,1-.32v-.14Z"/><path d="M5,13V5.41l-.09,0h0v7.76H5Z"/><path d="M7.84,10.14l0,.57a.41.41,0,0,0,0-.16v-.38A.09.09,0,0,1,7.84,10.14Z"/><path d="M7.82,9.61V10a.09.09,0,0,1,.08,0V9.61a.47.47,0,0,0-.12-.3v.21A.29.29,0,0,1,7.82,9.61Z"/><path d="M7.82,7.08a.37.37,0,0,1-.1.24l0,0h0a.09.09,0,0,1,.07,0l0,0a.43.43,0,0,0,.13-.3V5.83H7.82Z"/><path d="M7.82,8.34v.47A.34.34,0,0,1,7.77,9v.14h0a.44.44,0,0,0,.13-.31V8.43A.09.09,0,0,1,7.82,8.34Z"/><path d="M7.69,7.57h0v0l0,0a.35.35,0,0,1,.1.24v.47a.09.09,0,0,1,.09-.09V7.87a.46.46,0,0,0-.13-.31l0,0A.09.09,0,0,1,7.69,7.57Z"/><path d="M7.85,11.75l0-.68,0,0,0,0,0,0v.07a.37.37,0,0,1,.1.24v.48A.08.08,0,0,1,7.85,11.75Z"/><path d="M7.76,10.88l0,0v-.17a.33.33,0,0,1-.06.1l0,0v0Z"/><path d="M7.82,11.82v.84h0v.14l.09-.12,0-.79A.08.08,0,0,1,7.82,11.82Z"/><polygon points="7.69 9.3 7.65 9.3 7.7 9.35 7.7 9.3 7.69 9.3"/><polygon points="7.68 9.09 7.65 9.12 7.68 9.12 7.68 9.09"/><path d="M7.81,11.07l0,.68.06,0v-.38A.45.45,0,0,0,7.81,11.07Z"/><path d="M7.83,10v.05A.07.07,0,0,1,7.83,10Z"/><path d="M7.86,11.89l0,.79v-.77Z"/><polygon points="7.67 7.38 7.67 7.37 7.65 7.38 7.67 7.38"/><path d="M7.72,9.06l0,0v0h0a.09.09,0,0,1,.07,0l0,0V9Z"/><path d="M7.76,9.28l-.06,0v0l0,0a.28.28,0,0,1,.08.15V9.31h0Z"/><polygon points="7.68 7.57 7.65 7.57 7.68 7.6 7.68 7.57"/><path d="M7.82,10.08v.47a.33.33,0,0,1,0,.14v.15a.38.38,0,0,0,.09-.13l0-.57A.11.11,0,0,1,7.82,10.08Z"/><path d="M5.74,7.38a.1.1,0,0,0-.1.09.11.11,0,0,0,.1.1H7.5l0-.19Z"/><polygon points="7.58 7.38 7.48 7.38 7.5 7.57 7.59 7.57 7.58 7.38"/><path d="M7.63,7.54a.09.09,0,0,1,0-.13l0,0H7.58v.19h.06Z"/><path d="M7.76,7.54a.14.14,0,0,0,0-.07.14.14,0,0,0,0-.06l-.07.06Z"/><path d="M7.69,7.57a.09.09,0,0,0,.07,0l-.07-.07.07-.06a.09.09,0,0,0-.07,0h0v.19Z"/><path d="M7.63,7.41a.09.09,0,0,0,0,.13l0,0h0V7.38h0Z"/><path class="cls-2" d="M5.47,3.54l-.34.24v1.6l.8.44H7.55V5s0,0,0,0l1-2.1A7.18,7.18,0,0,0,7,2.2,5.93,5.93,0,0,1,5.47,3.54Z"/><path class="cls-2" d="M7.74,5.82H8v0H8V5.67l0-.07v0l0-.07v0l0-.1v0l0-.09v0l0-.12v0l0-.1,0-.07a.3.3,0,0,0,0-.1l0-.06,0-.13,0-.07,0-.09,0-.07,0-.14V4.14s0-.06,0-.09V4l0-.15V3.75s0-.08,0-.12V3.57a.88.88,0,0,1,0-.16V3.35L7.74,5.06Z"/><path class="cls-2" d="M7.55,5v.78h.09V5l1-1.93V2.9h0L7.56,5S7.55,5,7.55,5Z"/><polygon class="cls-2" points="7.64 5.82 7.74 5.82 7.74 5.06 8.59 3.35 8.61 3.11 7.64 5.04 7.64 5.82"/><path class="cls-2" d="M8.21,5.22v0Z"/><path class="cls-2" d="M8.25,5.05v0Z"/><path class="cls-2" d="M8.17,5.34v0Z"/><path class="cls-2" d="M8.09,5.57v0Z"/><path class="cls-2" d="M8.43,4.36l0,.07Z"/><path class="cls-2" d="M8.06,5.67v0Z"/><path class="cls-2" d="M8.3,4.88l0,.07Z"/><path class="cls-2" d="M8.13,5.47v0Z"/><polygon class="cls-2" points="8.01 5.82 8.02 5.81 8.01 5.82 8.01 5.82"/><path class="cls-2" d="M8.59,3.38h0v0Z"/><path class="cls-2" d="M8.34,4.72l0,.06Z"/><path class="cls-2" d="M8,5.75H8Z"/><path class="cls-2" d="M8.39,4.52l0,.07Z"/><path class="cls-2" d="M8.54,3.75v0Z"/><path class="cls-2" d="M8.47,4.14v0Z"/><path class="cls-2" d="M8.57,3.57v0Z"/><path class="cls-2" d="M8.5,4V4Z"/><path d="M8.31,2.43Z"/><path d="M8.41,2.49Z"/><path d="M8.5,2.55h0Z"/><polygon points="8.6 2.61 8.59 2.61 8.6 2.61 8.6 2.61"/><path d="M8.22,5.07h0Z"/><path d="M8.31,4.73v0Z"/><path d="M8.49,4V4Z"/><path d="M8,5.64Z"/><path d="M8.05,5.6h0Z"/><path d="M8.2,5.15v0Z"/><path d="M8.29,4.81v0Z"/><path d="M8.17,5.23v0Z"/><path d="M8.44,4.2v0Z"/><path d="M8.13,5.38v0Z"/><path d="M8.15,5.31v0Z"/><path d="M8.46,4.09l0-.08Z"/><path d="M8.09,5.5h0Z"/><path d="M8.11,5.44h0Z"/><path d="M8.41,4.32l0-.07Z"/><path d="M8.36,4.53l0,0Z"/><path d="M8.07,5.56v0Z"/><path d="M8.51,3.85s0-.06,0-.09S8.52,3.82,8.51,3.85Z"/><path d="M8.34,4.64v0Z"/><path d="M8.53,3.72l0-.09Z"/><path d="M8.39,4.43v0Z"/><path d="M8.55,3.6a.43.43,0,0,0,0-.11A.43.43,0,0,1,8.55,3.6Z"/><path d="M8.6,3.23a2.42,2.42,0,0,1,0,.25,2.42,2.42,0,0,0,0-.25Z"/><path d="M5.74,5.83H7.39V5.74H5.74L5,5.31v.1l.73.41Z"/><polygon points="7.57 5.83 7.82 5.83 7.82 5.74 7.82 5.74 7.57 5.74 7.57 5.83"/><polygon points="7.47 5.74 7.38 5.74 7.38 5.74 7.38 5.74 7.39 5.83 7.48 5.83 7.47 5.74"/><polygon points="7.57 5.74 7.47 5.74 7.48 5.83 7.57 5.83 7.57 5.74"/><path d="M6.87,2a7.08,7.08,0,0,1,1.61.7s0,0,.06,0a.09.09,0,0,1,.07,0h0l-.08-.06h0l-.09-.06h0l-.1-.06h0a9.94,9.94,0,0,0-1.4-.56A.3.3,0,0,0,6.87,2Z"/><path d="M4.82,5.34l0,0v-.1l-.08,0Z"/><path d="M4.84,3.65h0l0,0h0V5.26s0,0,0,0l.08,0V3.66Z"/><path d="M8.51,3.22h0v.49a13.5,13.5,0,0,1-.51,2h0v0h0v.09A.08.08,0,0,0,8,5.77l0-.13H8v0h0V5.54l0,0h0l0,0h0l0,0v0l0-.05v0l0-.06v0l0-.06v0l0-.06h0c0-.08,0-.16.07-.25V4.69l0-.05V4.53l0,0V4.32l0-.07V4.09l0-.08V3.85s0-.06,0-.09v0l0-.09v0a.43.43,0,0,0,0-.11h0a2.42,2.42,0,0,0,0-.25l0-.35s0,0,0,0l-.05.1,0,.28Z"/><path d="M8.55,2.69h0v0h0l.07.06V2.69a.11.11,0,0,0,0-.07.09.09,0,0,0-.07,0s0,0-.06,0l.06,0Z"/><path d="M8.55,2.71c0,.08,0,.16,0,.23l.05-.1s0,0,0,0V2.76L8.56,2.7Z"/><path d="M8.48,2.65h0A7.08,7.08,0,0,0,6.87,2h0A7.08,7.08,0,0,1,8.48,2.65Z"/><path d="M5,5.3a.08.08,0,0,1,0,0l0,0,.09,0v-.1Z"/><path d="M5,5.3l-.08,0v.1h0l0,0A.08.08,0,0,0,5,5.3Z"/><path d="M8.51,3.22l0-.28V3Z"/><path d="M8.51,3.23v0Z"/><path d="M8.5,3.36v0Z"/><path d="M7.93,5.68v0Z"/><path d="M7.92,5.71h0Z"/><path d="M7.91,5.73h0Z"/><path d="M8.46,3.6v0Z"/><path d="M8.48,3.48v0Z"/><path d="M8.44,3.72a13.9,13.9,0,0,1-.51,2A13.5,13.5,0,0,0,8.44,3.72Z"/><polygon points="7.82 5.74 7.82 5.83 7.91 5.83 7.91 5.74 7.82 5.74 7.82 5.74"/><path d="M8.55,2.71v0h0v0Z"/><path d="M8.54,2.69l-.06,0h0Z"/><path d="M8.53,3v0c0-.07,0-.15,0-.23V3Z"/><path d="M8.44,2.73h0A7.18,7.18,0,0,0,6.82,2h0A7.18,7.18,0,0,1,8.44,2.73Z"/><polygon points="5.76 5.64 4.96 5.21 4.96 5.26 4.96 5.31 5.74 5.74 7.38 5.74 7.38 5.64 5.76 5.64"/><path d="M8.43,3.17h0v0Z"/><path d="M8.42,3.24a.88.88,0,0,0,0,.16A.88.88,0,0,1,8.42,3.24Z"/><path d="M8.15,4.61l0,.1A.36.36,0,0,0,8.15,4.61Z"/><path d="M8.2,4.42l0,.13Z"/><path d="M8.24,4.26l0,.09Z"/><path d="M8.28,4.05a.78.78,0,0,1,0,.14A.78.78,0,0,0,8.28,4.05Z"/><path d="M8.32,3.87s0,.07,0,.1S8.31,3.91,8.32,3.87Z"/><path d="M8.11,4.78l0,.1Z"/><path d="M8,5.2l0,.1Z"/><path d="M7.86,5.59v0Z"/><path d="M8.39,3.46s0,.08,0,.12S8.38,3.5,8.39,3.46Z"/><path d="M8.36,3.65l0,.15Z"/><path d="M7.57,5.73h.25v0l0-.06H7.57Z"/><path d="M7.88,5.52v0Z"/><path d="M8,5.08l0,.09Z"/><path d="M7.92,5.43l0,.07Z"/><path d="M8.07,4.93A.36.36,0,0,1,8,5,.36.36,0,0,0,8.07,4.93Z"/><path d="M8,5.33l0,.07Z"/><path d="M8.45,2.73v.19c0-.06,0-.12,0-.18h0Z"/><rect x="7.38" y="5.64" width="0.09" height="0.09"/><polygon points="7.57 5.73 7.57 5.64 7.47 5.64 7.47 5.74 7.57 5.74 7.57 5.73"/><path d="M8.42,3.18h0a2.11,2.11,0,0,1,0-.25v0Z"/><path d="M8.47,3.56v0Z"/><path d="M8.49,3.43v0Z"/><path d="M8.5,3.3v0Z"/><path d="M8.45,3.69v0Z"/><path d="M7.92,5.7h0Z"/><path d="M7.91,5.72h0Z"/><path d="M7.93,5.68Z"/><path d="M8.51,3.22Z"/><polygon points="8.55 2.69 8.54 2.69 8.55 2.69 8.55 2.69"/><path d="M8.44,2.73l0-.07h0A7.08,7.08,0,0,0,6.87,2a.56.56,0,0,1,0,.08A7.18,7.18,0,0,1,8.44,2.73Z"/><path d="M5,5.3H5v0S5,5.29,5,5.3Z"/><path d="M5,5.2V3.61l0,0h0v1.6L5,5.3s0,0,0,0Zm-.09.06Z"/><path d="M8.42,3.2h0v0a.88.88,0,0,0,0,.16v.06s0,.08,0,.12v.07l0,.15v.07s0,.07,0,.1l0,.08a.78.78,0,0,1,0,.14l0,.07,0,.09,0,.07,0,.13,0,.06a.36.36,0,0,1,0,.1l0,.07,0,.1v0A.36.36,0,0,1,8,5v0l0,.09v0l0,.1v0l0,.07v0l0,.07v.08h0v0h0l0,.06v0h.1v0h0a13.9,13.9,0,0,0,.51-2V3.23h0l0-.26-.1.21Z"/><path d="M8.44,2.73h0c0,.06,0,.12,0,.18l.09-.19v0h0l-.06,0h0Z"/><path d="M8.53,3V2.73l-.09.19a2.11,2.11,0,0,0,0,.25Z"/><path d="M5.74,9.12a.09.09,0,1,0,0,.18H7.6V9.12Z"/><path d="M7.63,9.28a.09.09,0,0,1,0-.13l0,0H7.59V9.3h.05Z"/><path d="M7.76,9.28a.14.14,0,0,0,0-.07.08.08,0,0,0,0-.06l-.07.06Z"/><path d="M7.7,9.3V9.12h0l0,0a.09.09,0,0,0,0,.13l0,0h0Z"/><path d="M7.76,9.15a.09.09,0,0,0-.07,0h0v.09Z"/><path d="M7.7,9.3l.06,0-.07-.07Z"/><path d="M7.63,10.88l0,0H5.74a.11.11,0,0,0-.1.1.1.1,0,0,0,.1.09H7.65l0,0A.09.09,0,0,1,7.63,10.88Z"/><polygon points="7.71 10.96 7.71 10.93 7.69 10.95 7.71 10.96"/><path d="M7.76,10.88l0,0v0l0,0a.11.11,0,0,0,0-.06A.14.14,0,0,0,7.76,10.88Z"/><path d="M7.69,11l0,0v-.07h0l0,0a.09.09,0,0,0,0,.13l0,0h.06V11Z"/><path d="M7.71,11l0,0,0,0Z"/><path d="M7.71,10.93l0,0-.06,0Z"/><path d="M8,11.72v.19H9.44a.91.91,0,0,0,0-.17H8Z"/><path d="M9.52,11.82a.09.09,0,0,0-.07-.09.91.91,0,0,1,0,.17A.08.08,0,0,0,9.52,11.82Z"/><polygon points="8 11.72 7.94 11.72 7.95 11.91 8 11.91 8 11.72"/><polygon points="7.91 11.72 7.91 11.91 7.95 11.91 7.94 11.72 7.91 11.72"/><path d="M7.82,11.82a.08.08,0,0,0,0,.07v-.14A.08.08,0,0,0,7.82,11.82Z"/><path d="M7.85,11.75v.14l0,0v-.19Z"/><path d="M9.43,10.17a.09.09,0,0,0,0-.18H8v.18Z"/><rect x="7.91" y="9.99" width="0.09" height="0.18"/><path d="M7.83,10v.11a.09.09,0,0,0,.07,0V10A.09.09,0,0,0,7.83,10Z"/><path d="M7.84,10.14V10a.07.07,0,0,0,0,.05A.11.11,0,0,0,7.84,10.14Z"/><path d="M9.43,8.43a.09.09,0,0,0,0-.18H8v.18Z"/><rect x="7.91" y="8.25" width="0.09" height="0.18"/><path d="M7.82,8.34a.09.09,0,0,0,.09.09V8.25A.09.09,0,0,0,7.82,8.34Z"/><path d="M8,6.84a.1.1,0,0,0,.09.07h0l1.3-.21a.1.1,0,0,0,.08-.11.11.11,0,0,0-.11-.08l-1.3.22A.11.11,0,0,0,8,6.84Z"/><path d="M8.25,5.1a.09.09,0,0,0,.09.08h0L9.4,5l0-.18-1,.2A.1.1,0,0,0,8.25,5.1Z"/><path d="M9.52,4.85a.11.11,0,0,0-.06-.07c0,.06,0,.11,0,.16A.08.08,0,0,0,9.52,4.85Z"/><path d="M9.37,4.79,9.4,5h0l0,0c0-.05,0-.1,0-.16s0,0-.05,0Z"/><path class="cls-2" d="M3.65,1.26a0,0,0,0,1,0,0A1.17,1.17,0,0,1,3.83.77,2.15,2.15,0,0,0,3.18,2l.73-.22A1.2,1.2,0,0,1,3.65,1.26Z"/><path class="cls-2" d="M6.43,1.27a2.13,2.13,0,0,1-.31.48c.24.07.51.14.78.23A2.22,2.22,0,0,0,6.25.77a1.23,1.23,0,0,1,.18.46S6.43,1.26,6.43,1.27Z"/><path class="cls-2" d="M3.91,1.76,3.18,2h0l.73-.22Z"/><path class="cls-2" d="M5,3.57V2.7A4.57,4.57,0,0,1,4,1.92l-.8.24A4.91,4.91,0,0,0,5,3.57Z"/><path class="cls-2" d="M3.91,1.76,3.18,2V2a.19.19,0,0,0,0,.07L4,1.84Z"/><path class="cls-2" d="M4,1.84H4l-.77.23h0Z"/><path class="cls-2" d="M4,1.92H4l-.8.24h0Z"/><path class="cls-2" d="M4,1.84l-.77.23a.36.36,0,0,0,0,.09L4,1.92Z"/><path class="cls-2" d="M6.12,1.75c.24.07.51.14.78.23h0c-.27-.09-.54-.16-.78-.23Z"/><path class="cls-2" d="M5.13,2.7v.86l.24-.17A6.67,6.67,0,0,0,6.81,2.15C6.52,2.06,6.24,2,6,1.91A7.13,7.13,0,0,1,5.13,2.7Z"/><path class="cls-2" d="M6.06,1.83l.8.24A.59.59,0,0,1,6.9,2h0c-.27-.09-.54-.16-.78-.23Z"/><path class="cls-2" d="M6.06,1.83l.8.24h0l-.8-.24Z"/><path class="cls-2" d="M6,1.91c.25.06.53.15.82.24h0C6.52,2.06,6.24,2,6,1.91Z"/><path class="cls-2" d="M6.81,2.15a.56.56,0,0,1,.05-.08l-.8-.24A.27.27,0,0,0,6,1.91C6.24,2,6.52,2.06,6.81,2.15Z"/><path d="M2.91,1.83a2.15,2.15,0,0,1,1-1.5A1.39,1.39,0,0,1,4.75,0,2.11,2.11,0,0,0,2.82,1.82v.05l.09,0Z"/><path d="M6.82,1.83h0l.09,0h0s0,0,0,0A2.08,2.08,0,0,0,5,0a1.39,1.39,0,0,1,.85.33A2.16,2.16,0,0,1,6.82,1.83Z"/><path d="M2.92,1.84h0l-.09,0h0Z"/><path d="M4.78,3.62V3.51A4.87,4.87,0,0,1,3,2L2.89,2A5.12,5.12,0,0,0,4.78,3.62Z"/><path d="M2.92,1.84l-.09,0a.32.32,0,0,0,0,.09l.08,0A.29.29,0,0,1,2.92,1.84Z"/><path d="M2.94,1.93h0L2.86,2h0Z"/><path d="M3,2H3L2.89,2h0Z"/><path d="M3,2l0-.08L2.86,2l0,.08Z"/><path d="M6.82,1.84l.09,0h0l-.09,0Z"/><path d="M5,3.5v.11l.34-.24A6.13,6.13,0,0,0,6.82,2L6.73,2A8,8,0,0,1,5,3.5Z"/><path d="M6.87,2a.3.3,0,0,1,0-.08l-.09,0s0,0,0,.08Z"/><path d="M4.78,3.57v.05h0l0,0h0A.1.1,0,0,1,4.78,3.57Z"/><path d="M4.84,3.65h0Z"/><path d="M6.78,1.92l.09,0h0l-.09,0Z"/><path d="M6.82,2h0L6.73,2h0Z"/><path d="M6.82,2a.56.56,0,0,0,0-.08l-.09,0a.56.56,0,0,1,0,.08Z"/><path d="M4.9,3.65h0Z"/><path d="M4.91,3.65h0l0,0v0A.1.1,0,0,1,4.91,3.65Z"/><path d="M6.08.6a2.22,2.22,0,0,1,.65,1.21l.09,0h0a2.16,2.16,0,0,0-1-1.5A1.2,1.2,0,0,1,6.08.6Z"/><path d="M3.66.6A1,1,0,0,1,3.9.33a2.15,2.15,0,0,0-1,1.5h0l.09,0A2.08,2.08,0,0,1,3.66.6Z"/><path d="M3,1.81l-.09,0h0l.09,0Z"/><path d="M4.78,3.51V3.4A4.91,4.91,0,0,1,3.07,2L3,2A4.87,4.87,0,0,0,4.78,3.51Z"/><path d="M3,1.9a.25.25,0,0,1,0-.07v0l-.09,0a.29.29,0,0,0,0,.09Z"/><path d="M3,1.9l-.09,0h0L3,1.9Z"/><path d="M3.07,2h0L3,2H3Z"/><path d="M3.07,2A.36.36,0,0,1,3,1.9l-.09,0L3,2Z"/><path d="M6.73,1.81l.09,0h0l-.09,0Z"/><path d="M5.2,3.22,5,3.38V3.5A8,8,0,0,0,6.73,2L6.64,2A6.67,6.67,0,0,1,5.2,3.22Z"/><path d="M6.73,1.82l0,.07.09,0s0,0,0-.08l-.09,0Z"/><path d="M6.78,1.92h0l-.09,0h0Z"/><path d="M6.73,2h0L6.64,2h0Z"/><path d="M6.64,2l.09,0a.56.56,0,0,0,0-.08l-.09,0Z"/><path class="cls-2" d="M3.83,1.24a1.29,1.29,0,0,0,.27.47L5,1.48H5a0,0,0,0,1,0,0h0l.85.22a2.81,2.81,0,0,0,.32-.47A1.12,1.12,0,0,0,5,.36,1.11,1.11,0,0,0,3.83,1.24Z"/><path class="cls-2" d="M5,1.48l-.9.23h0Z"/><path class="cls-2" d="M5,2.48v-.8l-.72.19A5.62,5.62,0,0,0,5,2.48Z"/><path class="cls-2" d="M5,1.48H5Z"/><path class="cls-2" d="M4.17,1.79c.35-.1.64-.17.78-.2v0a.11.11,0,0,1,0-.08H5l-.9.23Z"/><path class="cls-2" d="M5,1.48a0,0,0,0,1,0,0A0,0,0,0,0,5,1.48Z"/><path class="cls-2" d="M5,1.59H5c-.14,0-.43.1-.78.2h0C4.52,1.69,4.81,1.62,5,1.59Z"/><path class="cls-2" d="M4.23,1.87h0L5,1.68Z"/><path class="cls-2" d="M5,1.59c-.14,0-.43.1-.78.2l.06.08L5,1.68Z"/><path class="cls-2" d="M5.93,1.7l-.85-.22.85.22Z"/><path class="cls-2" d="M5.79,1.85l-.66-.17v.78A6.36,6.36,0,0,0,5.79,1.85Z"/><path class="cls-2" d="M5.06,1.48h0Z"/><path class="cls-2" d="M5.13,1.57v0l.73.18.07-.07-.85-.22h0A.11.11,0,0,1,5.13,1.57Z"/><path class="cls-2" d="M5,1.57v0l.08,0h0l.08,0v0a.11.11,0,0,0,0-.08h0a0,0,0,0,0,0,0H5A.11.11,0,0,0,5,1.57Z"/><path class="cls-2" d="M5,1.57,5,1.59H5Z"/><path class="cls-2" d="M5,1.57H5Z"/><path class="cls-2" d="M5,1.68v.8L5,2.54H5v-1H5L5,1.59Z"/><path class="cls-2" d="M5.86,1.77h0l-.73-.18h0Z"/><path class="cls-2" d="M5.13,1.59l-.08,0,.08,0Z"/><path class="cls-2" d="M5.79,1.85l-.66-.17.66.17Z"/><path class="cls-2" d="M5,1.57H5Z"/><path class="cls-2" d="M5.86,1.77l-.73-.18v.09l.66.17Z"/><path class="cls-2" d="M5.13,2.46V1.59l-.08,0H5v1Z"/><path d="M4.75,0h0Z"/><path d="M4.87,0h0Z"/><path d="M3.48,1.09a1.27,1.27,0,0,0,.26.5l.09,0a1.27,1.27,0,0,1-.26-.5A1.19,1.19,0,0,1,4,.4a1.49,1.49,0,0,0-.29.2,1.56,1.56,0,0,0-.19.46A0,0,0,0,0,3.48,1.09Z"/><path d="M6.17,1.07a1.81,1.81,0,0,1-.32.48l.1,0a2.13,2.13,0,0,0,.31-.48v0A1.23,1.23,0,0,0,6.08.6,2.11,2.11,0,0,0,5.79.4,1.26,1.26,0,0,1,6.17,1.07Z"/><path d="M3.83,1.57l-.09,0h0l.09,0Z"/><path d="M4.78,2.53V2.42A4.66,4.66,0,0,1,4,1.72l-.09,0A4.57,4.57,0,0,0,4.78,2.53Z"/><path d="M3.83,1.57l-.09,0,.06.08.1,0A.46.46,0,0,1,3.83,1.57Z"/><path d="M3.9,1.64l-.1,0h0l.1,0Z"/><path d="M4,1.72l-.09,0h0l.09,0Z"/><path d="M4,1.72,3.9,1.64l-.1,0,.07.08Z"/><path d="M6,1.58H6l-.1,0h0Z"/><path d="M5,2.41v.12a7.16,7.16,0,0,0,.86-.8l-.1,0A8.4,8.4,0,0,1,5,2.41Z"/><path d="M5.79,1.63l.1,0L6,1.58l-.1,0Z"/><path d="M4.78,2.42v.06a.07.07,0,0,1,0,0Z"/><path d="M5.79,1.63l.1,0h0l-.1,0Z"/><path d="M5.82,1.73h0l-.1,0h0Z"/><path d="M5.72,1.71l.1,0,.07-.07-.1,0Z"/><path d="M5,2.48V2.41h0A.14.14,0,0,1,5,2.48Z"/><path d="M4.75.1H5a1.82,1.82,0,0,1,.86.23A1.39,1.39,0,0,0,5,0H4.75A1.39,1.39,0,0,0,3.9.33,1.81,1.81,0,0,1,4.75.1Z"/><path d="M3.66.6A1.49,1.49,0,0,1,4,.4a1.25,1.25,0,0,1,.8-.3A1.81,1.81,0,0,0,3.9.33,1,1,0,0,0,3.66.6Z"/><path d="M6.08.6A1.2,1.2,0,0,0,5.84.33,1.82,1.82,0,0,0,5,.1a1.32,1.32,0,0,1,.81.3A2.11,2.11,0,0,1,6.08.6Z"/><path d="M3.57,1.07a1.27,1.27,0,0,0,.26.5l.1,0a1.38,1.38,0,0,1-.27-.47A1.12,1.12,0,0,1,4.87.18,1.89,1.89,0,0,0,4,.4,1.19,1.19,0,0,0,3.57,1.07Z"/><path d="M6.08,1.06a2.81,2.81,0,0,1-.32.47l.09,0a1.81,1.81,0,0,0,.32-.48A1.26,1.26,0,0,0,5.79.4,1.89,1.89,0,0,0,4.87.18,1.14,1.14,0,0,1,6.08,1.06Z"/><path d="M3.93,1.54h0l-.1,0h0Z"/><path d="M4.06,1.69l-.1,0a4.66,4.66,0,0,0,.82.7V2.31A4.47,4.47,0,0,1,4.06,1.69Z"/><path d="M3.93,1.54l-.1,0a.46.46,0,0,0,.07.07l.09,0Z"/><path d="M4,1.62l-.09,0h0l.09,0Z"/><path d="M4.06,1.69h0l-.1,0H4Z"/><path d="M4,1.62l-.09,0L4,1.72l.1,0Z"/><path d="M5.85,1.55h0l-.09,0h0Z"/><path d="M5.72,1.71l-.1,0A6.36,6.36,0,0,1,5,2.29v.12A8.4,8.4,0,0,0,5.72,1.71Z"/><path d="M5.85,1.55l-.09,0-.07.07.1,0Z"/><path d="M4.87,2.39v0h0l-.08-.06v.11h0A.12.12,0,0,1,4.87,2.39Z"/><path d="M5.79,1.63h0l-.1,0h0Z"/><path d="M5.62,1.68l.1,0h0l-.1,0Z"/><path d="M5.62,1.68l.1,0,.07-.08-.1,0Z"/><path d="M4.87,2.39a.09.09,0,0,1,.07,0H5V2.29l-.09.07v0Z"/><path d="M4.75.1h0Z"/><path d="M4.87.09h0Z"/><path d="M4.87.18A1.89,1.89,0,0,1,5.79.4,1.32,1.32,0,0,0,5,.1H4.75A1.25,1.25,0,0,0,4,.4,1.89,1.89,0,0,1,4.87.18Z"/><path d="M4.84,3.65h0Z"/><path d="M4.91,3.65h0Z"/><path d="M4.87,3.45V2.57h0l0,0V3.4l.08.05Z"/><path d="M4.87,2.57h0v.88L5,3.38V2.53l0,0S4.89,2.57,4.87,2.57Z"/><path d="M4.87,3.57l-.09-.06v.06a.1.1,0,0,0,0,.08h0Z"/><path d="M5,3.57V3.5l-.09.07v.09h0A.1.1,0,0,0,5,3.57Z"/><path d="M4.87,3.45h0L4.78,3.4v.11l.09.06Z"/><path d="M4.87,3.57,5,3.5V3.38l-.09.07Z"/><path d="M4.87,2.57V2.48l-.08,0a.07.07,0,0,0,0,0v0l0,0Z"/><path d="M4.87,2.48v.09h0s0,0,0,0l0,0v0a.14.14,0,0,0,0-.06Z"/><path d="M4.79,2.43l.08,0V2.39A.12.12,0,0,0,4.79,2.43Z"/><path d="M4.87,2.39h0v.09l.07-.06A.09.09,0,0,0,4.87,2.39Z"/></g></g></svg>