<svg xmlns="http://www.w3.org/2000/svg" viewBox="0 0 12.34 13.64"><defs><style>.cls-1{fill:#f96178;}</style></defs><title>Asset 5</title><g id="Layer_2" data-name="Layer 2"><g id="_1" data-name=" 1"><path class="cls-1" d="M6.38,1.21H6.3A6.88,6.88,0,0,1,5,.41H5L4.67.76a.06.06,0,0,1-.06,0c-1.76.19-2.06.74-2.09.8L.93,9a12,12,0,0,0-.2,1.34L.57,12.21a0,0,0,0,1,0,0l-.17.36,1.16.58L1.72,13s0,0,0,0c.31-.08.75-.26.8-.44a.2.2,0,0,0,0-.07c.08-.89.45-5.18.64-6.35a4.27,4.27,0,0,0-.1-.81A6.53,6.53,0,0,1,3,4.17,3,3,0,0,1,3.44,2.6L3.88,2a.08.08,0,0,1,.12,0,.09.09,0,0,1,0,.13L3.6,2.7a2.88,2.88,0,0,0-.42,1.47A5.53,5.53,0,0,0,3.3,5.28a4.41,4.41,0,0,1,.09.84v0c-.2,1.22-.6,6-.64,6.46a4.55,4.55,0,0,0,2.42.93v0l.22-6.94c0-.06,0-.09.1-.09a.09.09,0,0,1,.09.09l-.22,7s0,0,0,.05a9.08,9.08,0,0,0,1,.07s.34,0,.82-.05a.08.08,0,0,1,0-.07L7,10.82a.1.1,0,1,1,.19,0L7.3,13.5a.08.08,0,0,1,0,.06,4.87,4.87,0,0,0,2.66-1c0-.5-.45-5.24-.65-6.46v0a4.39,4.39,0,0,1,.1-.84,5.53,5.53,0,0,0,.12-1.11A3,3,0,0,0,9.09,2.7l-.44-.65A.09.09,0,1,1,8.81,2l.43.65a3,3,0,0,1,.45,1.57,5.69,5.69,0,0,1-.12,1.14,4.27,4.27,0,0,0-.1.81c.2,1.17.56,5.46.64,6.35,0,0,0,0,0,.07.05.18.49.36.8.44L11,13l.17.17,1.16-.58-.18-.36v0L12,10.29A10.07,10.07,0,0,0,11.75,9L10.16,1.59c0-.08-.36-.61-2.09-.8A.09.09,0,0,1,8,.76L7.65.4h0A6.56,6.56,0,0,1,6.38,1.21Zm-4.94,11a.11.11,0,0,1-.09.07h0l-.65-.22A.08.08,0,0,1,.61,12a.09.09,0,0,1,.12-.06l.65.22A.09.09,0,0,1,1.44,12.23Zm2.55-1a.09.09,0,0,1-.09.09h0a.09.09,0,0,1-.08-.1L4.3,5.68a.08.08,0,0,1,.1-.08.09.09,0,0,1,.08.1ZM6.34,4.76a.09.09,0,1,1,.09-.09A.09.09,0,0,1,6.34,4.76Zm0-.37a.09.09,0,1,1,.09-.09A.09.09,0,0,1,6.34,4.39Zm0-.37a.09.09,0,1,1,.09-.09A.09.09,0,0,1,6.34,4Zm0-.37a.09.09,0,1,1,.09-.09A.09.09,0,0,1,6.34,3.65Zm0-.37a.09.09,0,1,1,.09-.09A.09.09,0,0,1,6.34,3.28Zm0-.36a.1.1,0,0,1-.09-.1.09.09,0,0,1,.18,0A.1.1,0,0,1,6.34,2.92Zm0-.37a.09.09,0,0,1-.09-.1.09.09,0,0,1,.18,0A.09.09,0,0,1,6.34,2.55Zm0-.37a.09.09,0,0,1-.09-.09.09.09,0,1,1,.18,0A.09.09,0,0,1,6.34,2.18Zm0-.37a.09.09,0,1,1,.09-.09A.09.09,0,0,1,6.34,1.81Zm0-.37a.09.09,0,1,1,.09-.09A.09.09,0,0,1,6.34,1.44Zm.73,7.49h0A.09.09,0,0,1,7,8.84L6.9,6.56A.09.09,0,0,1,7,6.47a.08.08,0,0,1,.09.09l.08,2.28A.09.09,0,0,1,7.07,8.93Zm4.24,3.19L12,11.9a.08.08,0,0,1,.11.06.08.08,0,0,1-.05.11l-.66.22h0a.09.09,0,0,1-.08-.07A.08.08,0,0,1,11.31,12.12Zm-3-6.52a.09.09,0,0,1,.1.08L9,13.06a.09.09,0,0,1-.09.1H9a.1.1,0,0,1-.1-.08L8.2,5.7A.1.1,0,0,1,8.29,5.6Z"/><path d="M12.12,12,12,10.1a8.92,8.92,0,0,0-.2-1.36L10.17,1.38v0l-.08,0h0l1.59,7.37a10,10,0,0,1,.2,1.35L12,12l.22.44-1.3.65-.22-.22a2,2,0,0,1-.79-.38.1.1,0,0,1-.07,0h0a.11.11,0,0,1-.07,0c-1.12,1-3.62,1-3.62,1s-2.5,0-3.62-1a.09.09,0,0,1-.07,0h0a.07.07,0,0,1-.06,0,2,2,0,0,1-.8.38l-.22.22-1.3-.65L.31,12l.16-1.92a10,10,0,0,1,.2-1.35L2.26,1.39h0c0-.09.38-.65,2.16-.85l.41-.4a.09.09,0,0,1,0,0A.13.13,0,0,1,5,0H4.87A.09.09,0,0,0,4.8,0L4.39.44c-1.79.2-2.15.79-2.2.9h0v0L.58,8.74a10.37,10.37,0,0,0-.2,1.36L.22,12,0,12.43a.1.1,0,0,0,0,.12l1.3.65a.09.09,0,0,0,.11,0l.2-.2a2,2,0,0,0,.81-.39c1.13,1,3.59,1.05,3.7,1.05s2.57,0,3.7-1.05a2,2,0,0,0,.81.39l.2.2a.09.09,0,0,0,.11,0l1.3-.65a.09.09,0,0,0,0-.12Z"/><path d="M7.49.08l0,.05.4.4c1.78.2,2.12.76,2.16.85h0l.08,0C10.1,1.23,9.74.64,8,.44L7.54,0a.09.09,0,0,0-.07,0H7.36A.13.13,0,0,1,7.49.08Z"/><path d="M10.07,1.38c0-.09-.38-.65-2.16-.85l-.4-.4a.19.19,0,0,1,0,.1l.36.36a.09.09,0,0,0,.06,0c1.73.19,2,.72,2.09.8l1.59,7.36a10.07,10.07,0,0,1,.2,1.34L11.94,12a0,0,0,0,0,0,0l.18.36L11,13l-.17-.17-.05,0c-.31-.08-.75-.26-.8-.44,0,0,0,0,0-.07v.16a.07.07,0,0,1,0,.06,2,2,0,0,0,.79.38l.22.22,1.3-.65L12,12l-.16-1.92a10,10,0,0,0-.2-1.35L10.08,1.39h0Z"/><path d="M2.4,12.3a.2.2,0,0,1,0,.07c-.05.18-.49.36-.8.44,0,0,0,0,0,0L1.38,13,.22,12.43l.17-.36a0,0,0,0,0,0,0l.16-1.92a12,12,0,0,1,.2-1.34L2.35,1.42c0-.06.33-.61,2.09-.8a.07.07,0,0,0,.06,0L4.86.23a.12.12,0,0,1,0-.1l-.41.4c-1.78.2-2.12.76-2.16.85h0L.67,8.76a10,10,0,0,0-.2,1.35L.31,12l-.22.44,1.3.65.22-.22a2,2,0,0,0,.8-.38.07.07,0,0,1,0-.06Z"/><path d="M9.77,12.43a4.87,4.87,0,0,1-2.66,1,.1.1,0,0,1-.07,0H7l0,0c-.48.05-.81.05-.82.05a9.08,9.08,0,0,1-1-.07.1.1,0,0,1-.07,0h0A.08.08,0,0,1,5,13.36a4.55,4.55,0,0,1-2.42-.93v0a.11.11,0,0,1,0,.06c1.12,1,3.62,1,3.62,1s2.5,0,3.62-1a.11.11,0,0,1,0-.06Z"/><path d="M6.17,1.45a.1.1,0,0,0-.09.1.09.09,0,0,0,.18,0A.1.1,0,0,0,6.17,1.45Z"/><path d="M6.17,1.09a.09.09,0,1,0,.09.09A.09.09,0,0,0,6.17,1.09Z"/><path d="M6.17,3.3a.09.09,0,1,0,.09.09A.09.09,0,0,0,6.17,3.3Z"/><path d="M6.17,4a.09.09,0,1,0,.09.09A.09.09,0,0,0,6.17,4Z"/><path d="M6.17,3.67a.09.09,0,1,0,.09.09A.09.09,0,0,0,6.17,3.67Z"/><path d="M6.17,4.4a.1.1,0,0,0-.09.1.09.09,0,0,0,.18,0A.1.1,0,0,0,6.17,4.4Z"/><path d="M6.17,2.93A.09.09,0,1,0,6.26,3,.09.09,0,0,0,6.17,2.93Z"/><path d="M6.17,2.56a.09.09,0,0,0-.09.09.09.09,0,1,0,.18,0A.09.09,0,0,0,6.17,2.56Z"/><path d="M6.17,1.82a.09.09,0,0,0-.09.1.09.09,0,0,0,.18,0A.09.09,0,0,0,6.17,1.82Z"/><path d="M6.17,2.19a.09.09,0,0,0-.09.09.09.09,0,1,0,.18,0A.09.09,0,0,0,6.17,2.19Z"/><path class="cls-1" d="M7.44.36H5.25A8.6,8.6,0,0,0,6.34,1,8.72,8.72,0,0,0,7.44.36Z"/><path d="M7.4.18A7.14,7.14,0,0,1,6.17,1,7.14,7.14,0,0,1,4.94.18h0l0,.05h0A6.88,6.88,0,0,0,6.13,1h.08A6.56,6.56,0,0,0,7.47.24h0l0-.05Z"/><path d="M4.85.08a.09.09,0,0,0,0,.05l0,0h2.6l0,0,0,0A.13.13,0,0,0,7.36,0H5A.13.13,0,0,0,4.85.08Z"/><path d="M4.86.23l0-.05h0A.05.05,0,0,1,5,.09H4.87l0,0A.12.12,0,0,0,4.86.23Z"/><path d="M7.4.18h0l0,.05a.19.19,0,0,0,0-.1l0,0H7.36A.05.05,0,0,1,7.4.18Z"/><path d="M6.17,1A7.14,7.14,0,0,0,7.4.18H7.26A7.65,7.65,0,0,1,6.17.86,7.65,7.65,0,0,1,5.08.18H4.94A7.14,7.14,0,0,0,6.17,1Z"/><path d="M4.94.18H7.4a.05.05,0,0,0,0-.09H5A.05.05,0,0,0,4.94.18Z"/><path d="M1.21,12l-.65-.22a.09.09,0,0,0-.12.06.08.08,0,0,0,.06.11l.65.22h0a.1.1,0,0,0,.09-.06A.09.09,0,0,0,1.21,12Z"/><path d="M11.16,12.12h0l.65-.22a.09.09,0,1,0-.05-.17l-.66.22a.08.08,0,0,0-.05.11A.08.08,0,0,0,11.16,12.12Z"/><path d="M9.4,5.14A6.53,6.53,0,0,0,9.52,4a3,3,0,0,0-.45-1.57l-.43-.65a.09.09,0,1,0-.16.1l.44.65A3,3,0,0,1,9.34,4a6.38,6.38,0,0,1-.12,1.11,4.39,4.39,0,0,0-.1.84V6c.2,1.22.6,6,.65,6.46h0v0a.15.15,0,0,1,0-.07c0-.1.07-.11.09-.11s.08,0,.09.08C9.86,11.41,9.5,7.12,9.3,6A4.17,4.17,0,0,1,9.4,5.14Z"/><path d="M9.86,12.47l-.07.06a.11.11,0,0,0,.07,0h0a.1.1,0,0,0,.07,0,.29.29,0,0,1-.08-.14Z"/><path d="M9.85,12.33a.07.07,0,0,0,0,.05C9.85,12.33,9.85,12.28,9.85,12.33Z"/><path d="M9.94,12.3c0-.06,0-.08-.09-.08s-.09,0-.09.11a.15.15,0,0,0,0,.07v0h0v0a.11.11,0,0,0,0,.06l.07-.06v-.09a.07.07,0,0,1,0-.05c0-.05,0,0,0,.05a.29.29,0,0,0,.08.14.07.07,0,0,0,0-.06Z"/><path d="M3.22,6a4.41,4.41,0,0,0-.09-.84A5.53,5.53,0,0,1,3,4a2.88,2.88,0,0,1,.42-1.47l.43-.65a.09.09,0,0,0,0-.13.08.08,0,0,0-.12,0l-.44.65A3,3,0,0,0,2.82,4a6.53,6.53,0,0,0,.12,1.14A4.17,4.17,0,0,1,3,6c-.19,1.17-.56,5.46-.64,6.35a.08.08,0,0,1,.09-.08s.09,0,.09.11v.1h0c0-.5.44-5.24.64-6.46Z"/><path d="M2.48,12.38a.27.27,0,0,1-.07.14.07.07,0,0,0,.06,0h0a.09.09,0,0,0,.07,0l-.07-.06Z"/><path d="M2.58,12.43h0v-.1c0-.1-.07-.11-.09-.11a.08.08,0,0,0-.09.08v.16a.07.07,0,0,0,0,.06.27.27,0,0,0,.07-.14c0-.05,0-.1,0-.05a.07.07,0,0,1,0,.05v.09l.07.06a.11.11,0,0,0,0-.06Z"/><path d="M2.48,12.38a.07.07,0,0,0,0-.05C2.49,12.28,2.49,12.33,2.48,12.38Z"/><path d="M4.23,5.43a.08.08,0,0,0-.1.08l-.49,5.54a.09.09,0,0,0,.08.1h0a.09.09,0,0,0,.09-.09l.49-5.53A.09.09,0,0,0,4.23,5.43Z"/><path d="M8.78,13h0a.1.1,0,0,0,.09-.1L8.22,5.51a.09.09,0,0,0-.1-.08.1.1,0,0,0-.09.1l.65,7.38A.1.1,0,0,0,8.78,13Z"/><path d="M5.39,6.39a.08.08,0,0,0-.08-.09.08.08,0,0,0-.1.09L5,13.33v0l.16,0s0,0,0-.05Z"/><path d="M5.08,13.43h0a.1.1,0,0,0,.07,0l-.16,0A.08.08,0,0,0,5.08,13.43Z"/><path d="M6.82,6.3a.09.09,0,0,0-.09.09L6.8,8.67a.09.09,0,0,0,.09.09h0A.09.09,0,0,0,7,8.66L6.91,6.39C6.91,6.33,6.87,6.29,6.82,6.3Z"/><path d="M7.05,10.64a.1.1,0,0,0-.19,0L7,13.34a.08.08,0,0,0,0,.07l.12,0a.08.08,0,0,0,0-.06Z"/><path d="M7,13.43H7a.1.1,0,0,0,.07,0l-.12,0Z"/></g></g></svg>